mtllib glyphs.mtl
# Blender 5.0.1
# www.blender.org
o 001
v -0.280001 0.925896 -0.127900
v -0.281306 0.928745 -0.135311
v -0.284326 0.921684 -0.122578
v -0.291746 0.918578 -0.122464
v -0.297917 0.918396 -0.127624
v -0.299222 0.921247 -0.135037
v -0.294897 0.925458 -0.140357
v -0.287476 0.928564 -0.140471
v -0.333441 0.906635 -0.133879
v -0.333449 0.906631 -0.133878
v -0.311955 0.918167 -0.139765
v -0.337260 0.906944 -0.137994
v -0.340304 0.899677 -0.124835
v -0.300847 0.920853 -0.135638
v -0.329212 0.925617 -0.171605
v -0.332393 0.918326 -0.158517
v -0.327398 0.920766 -0.159357
v -0.327404 0.920767 -0.159365
v -0.284762 0.924744 -0.129667
v -0.285421 0.926182 -0.133408
v -0.286945 0.922618 -0.126981
v -0.290689 0.921051 -0.126923
v -0.293802 0.920959 -0.129527
v -0.294461 0.922398 -0.133269
v -0.292278 0.924524 -0.135954
v -0.288534 0.926091 -0.136011
v -0.278334 0.921846 -0.129751
v -0.279640 0.924696 -0.137161
v -0.282659 0.917634 -0.124429
v -0.290080 0.914528 -0.124315
v -0.296250 0.914347 -0.129475
v -0.297556 0.917197 -0.136888
v -0.293231 0.921409 -0.142208
v -0.285809 0.924515 -0.142321
v -0.331774 0.902585 -0.135729
v -0.331782 0.902582 -0.135728
v -0.310288 0.914118 -0.141615
v -0.335594 0.902894 -0.139844
v -0.338637 0.895628 -0.126685
v -0.299181 0.916803 -0.137489
v -0.327545 0.921567 -0.173456
v -0.330726 0.914276 -0.160367
v -0.325732 0.916716 -0.161208
v -0.325738 0.916717 -0.161216
v -0.283095 0.920695 -0.131518
v -0.283754 0.922133 -0.135259
v -0.285279 0.918568 -0.128832
v -0.289022 0.917001 -0.128774
v -0.292136 0.916910 -0.131378
v -0.292795 0.918349 -0.135120
v -0.290612 0.920474 -0.137805
v -0.286867 0.922042 -0.137862
v -0.344134 0.926273 -0.213741
v -0.373000 0.869278 -0.115024
v -0.243824 0.941753 -0.154664
v -0.346285 0.931373 -0.211425
v -0.360718 0.902876 -0.162067
v -0.245975 0.946853 -0.152349
v -0.256120 0.926823 -0.117655
v -0.266264 0.906793 -0.082962
v -0.264114 0.901692 -0.085278
v -0.375151 0.874379 -0.112708
vn -0.3506 0.8518 0.3893
vn -0.9224 -0.3860 0.0140
vn -0.7670 -0.0226 -0.6412
vn -0.1623 0.3541 -0.9210
vn 0.5375 0.5234 -0.6612
vn 0.9224 0.3860 -0.0140
vn 0.7669 0.0225 0.6413
vn 0.1623 -0.3541 0.9210
vn -0.5376 -0.5234 0.6611
vn 0.2772 -0.3027 0.9119
vn 0.6447 0.5210 -0.5594
vn -0.9153 -0.2235 -0.3351
vn 0.3787 -0.2512 0.8908
vn 0.7055 0.5135 -0.4884
vn -0.9132 -0.2187 -0.3438
vn 0.2962 -0.2935 0.9089
vn -0.7057 -0.5135 0.4881
vn -0.3788 0.2512 -0.8907
vn 0.7255 0.5099 -0.4623
vn 0.7670 0.0226 0.6412
vn -0.5375 -0.5234 0.6612
vn -0.7669 -0.0225 -0.6413
vn 0.5376 0.5234 -0.6611
vn -0.9007 -0.2062 -0.3824
vn 0.3767 0.5100 -0.7733
vn -0.3585 0.8500 0.3859
vn 0.9007 0.2062 0.3824
vn -0.1088 -0.4486 0.8871
vn -0.3505 0.8519 0.3892
vn 0.2774 -0.3026 0.9119
vn 0.2469 -0.8687 -0.4294
vt 0.908084 0.906097
vt 0.969759 0.925268
vt 0.918192 0.919814
vt 0.945797 0.941249
vt 0.952546 0.932757
vt 0.952547 0.944044
vt 0.941767 0.931522
vt 0.945797 0.935552
vt 0.936073 0.931522
vt 0.944563 0.924773
vt 0.925297 0.932754
vt 0.933277 0.924772
vt 0.932046 0.935549
vt 0.925298 0.944045
vt 0.932047 0.941248
vt 0.933281 0.952026
vt 0.941771 0.945276
vt 0.936076 0.945276
vt 0.944568 0.952026
vt 0.918224 0.955008
vt 0.918189 0.954996
vt 0.925467 0.958032
vt 0.908084 0.970701
vt 0.952530 0.938096
vt 0.951786 0.930246
vt 0.951800 0.930250
vt 0.124849 0.500602
vt 0.187651 0.500602
vt 0.189254 0.503933
vt 0.180000 0.370651
vt 0.156250 0.500000
vt 0.178376 0.374864
vt 0.156250 0.375000
vt 0.132500 0.370651
vt 0.134124 0.374864
vt 0.123246 0.503933
s 0
usemtl glyph
f 14/1/1 15/2/1 11/3/1
f 20/4/1 1/5/1 2/6/1
f 21/7/1 1/5/1 19/8/1
f 22/9/1 3/10/1 21/7/1
f 22/9/1 5/11/1 4/12/1
f 23/13/1 6/14/1 5/11/1
f 24/15/1 7/16/1 6/14/1
f 26/17/1 7/16/1 25/18/1
f 26/17/1 2/6/1 8/19/1
f 20/4/2 45/8/2 19/8/2
f 19/8/3 47/7/3 21/7/3
f 21/7/4 48/9/4 22/9/4
f 22/9/5 49/13/5 23/13/5
f 23/13/6 50/15/6 24/15/6
f 24/15/7 51/18/7 25/18/7
f 25/18/8 52/17/8 26/17/8
f 26/17/9 46/4/9 20/4/9
f 10/20/10 35/21/10 9/21/10
f 9/21/11 38/22/11 12/22/11
f 13/23/12 38/22/12 39/23/12
f 13/23/13 40/1/13 14/1/13
f 14/1/14 41/2/14 15/2/14
f 16/24/15 41/2/15 42/24/15
f 16/24/16 43/25/16 17/25/16
f 11/3/17 44/26/17 37/3/17
f 10/20/18 37/3/18 36/20/18
f 17/25/19 44/26/19 18/26/19
f 1/5/6 28/6/6 2/6/6
f 3/10/20 27/5/20 1/5/20
f 4/12/8 29/10/8 3/10/8
f 4/12/21 31/11/21 30/12/21
f 5/11/2 32/14/2 31/11/2
f 7/16/22 32/14/22 6/14/22
f 8/19/4 33/16/4 7/16/4
f 2/6/23 34/19/23 8/19/23
f 62/27/24 56/28/24 53/29/24
f 56/28/25 55/30/25 53/29/25
f 57/31/26 58/32/26 56/28/26
f 58/32/27 59/33/27 61/34/27
f 60/35/26 57/31/26 62/27/26
f 61/34/28 62/27/28 54/36/28
f 11/3/29 10/20/29 9/21/29
f 9/21/1 12/22/1 13/23/1
f 16/24/1 17/25/1 18/26/1
f 11/3/1 9/21/1 13/23/1
f 15/2/1 16/24/1 18/26/1
f 11/3/1 13/23/1 14/1/1
f 15/2/1 18/26/1 11/3/1
f 20/4/1 19/8/1 1/5/1
f 21/7/1 3/10/1 1/5/1
f 22/9/1 4/12/1 3/10/1
f 22/9/1 23/13/1 5/11/1
f 23/13/1 24/15/1 6/14/1
f 24/15/1 25/18/1 7/16/1
f 26/17/1 8/19/1 7/16/1
f 26/17/1 20/4/1 2/6/1
f 20/4/2 46/4/2 45/8/2
f 19/8/3 45/8/3 47/7/3
f 21/7/4 47/7/4 48/9/4
f 22/9/5 48/9/5 49/13/5
f 23/13/6 49/13/6 50/15/6
f 24/15/7 50/15/7 51/18/7
f 25/18/8 51/18/8 52/17/8
f 26/17/9 52/17/9 46/4/9
f 10/20/30 36/20/30 35/21/30
f 9/21/11 35/21/11 38/22/11
f 13/23/12 12/22/12 38/22/12
f 13/23/13 39/23/13 40/1/13
f 14/1/14 40/1/14 41/2/14
f 16/24/15 15/2/15 41/2/15
f 16/24/16 42/24/16 43/25/16
f 11/3/17 18/26/17 44/26/17
f 10/20/18 11/3/18 37/3/18
f 17/25/19 43/25/19 44/26/19
f 1/5/6 27/5/6 28/6/6
f 3/10/20 29/10/20 27/5/20
f 4/12/8 30/12/8 29/10/8
f 4/12/21 5/11/21 31/11/21
f 5/11/2 6/14/2 32/14/2
f 7/16/22 33/16/22 32/14/22
f 8/19/4 34/19/4 33/16/4
f 2/6/23 28/6/23 34/19/23
f 53/29/24 54/36/24 62/27/24
f 62/27/31 57/31/31 56/28/31
f 56/28/25 58/32/25 55/30/25
f 57/31/26 59/33/26 58/32/26
f 61/34/27 55/30/27 58/32/27
f 59/33/27 60/35/27 61/34/27
f 60/35/26 59/33/26 57/31/26
f 61/34/28 60/35/28 62/27/28
