mtllib glyphs.mtl
# Blender 5.0.1
# www.blender.org
o 002
v 0.048967 0.812382 0.136876
v 0.028282 0.810108 0.140383
v 0.046837 0.820095 0.129717
v 0.044635 0.827492 0.122862
v 0.045611 0.829509 0.120891
v 0.047833 0.833907 0.116583
v 0.049023 0.836544 0.114011
v 0.047992 0.837882 0.112811
v 0.045164 0.841457 0.109615
v 0.043347 0.843929 0.107394
v 0.045743 0.846605 0.104705
v 0.048106 0.849386 0.101919
v 0.040963 0.848505 0.103221
v 0.033862 0.847500 0.104638
v 0.034359 0.845976 0.106047
v 0.038541 0.839165 0.112217
v 0.040798 0.836253 0.114825
v 0.040072 0.834468 0.116561
v 0.038793 0.831098 0.119833
v 0.038198 0.829551 0.121336
v 0.033455 0.828880 0.122283
v 0.028705 0.828229 0.123210
v 0.023564 0.832240 0.119752
v 0.018429 0.836230 0.116313
v 0.018082 0.837841 0.114812
v 0.018788 0.842330 0.110518
v 0.019054 0.843700 0.109204
v 0.018795 0.844493 0.108470
v 0.005764 0.842539 0.111174
v 0.012263 0.843568 0.109774
v 0.008201 0.840984 0.112486
v 0.010607 0.839534 0.113700
v 0.011668 0.836277 0.116712
v 0.012730 0.833021 0.119723
v 0.014160 0.831913 0.120678
v 0.017107 0.829623 0.122652
v 0.021000 0.826614 0.125243
v 0.023343 0.824805 0.126801
v 0.022553 0.820937 0.130513
v 0.020831 0.809447 0.141498
v 0.042309 0.814846 0.134981
v 0.040908 0.821330 0.128937
v 0.040145 0.823668 0.126775
v 0.034275 0.822990 0.127802
v 0.028069 0.822155 0.128999
v 0.027550 0.821012 0.130115
v 0.026806 0.816735 0.134210
v 0.026342 0.813328 0.137464
v 0.034254 0.814033 0.136278
v 0.048784 0.809738 0.134082
v 0.028099 0.807465 0.137589
v 0.046654 0.817452 0.126923
v 0.044451 0.824849 0.120068
v 0.045428 0.826865 0.118097
v 0.047649 0.831264 0.113789
v 0.048840 0.833900 0.111217
v 0.047809 0.835239 0.110017
v 0.044980 0.838813 0.106821
v 0.043164 0.841286 0.104600
v 0.045560 0.843962 0.101911
v 0.047923 0.846742 0.099125
v 0.040780 0.845862 0.100427
v 0.033679 0.844856 0.101844
v 0.034176 0.843332 0.103253
v 0.038358 0.836521 0.109423
v 0.040615 0.833609 0.112031
v 0.039888 0.831824 0.113767
v 0.038610 0.828455 0.117039
v 0.038015 0.826908 0.118542
v 0.033272 0.826236 0.119489
v 0.028522 0.825585 0.120416
v 0.023380 0.829596 0.116958
v 0.018246 0.833586 0.113519
v 0.017899 0.835197 0.112018
v 0.018605 0.839686 0.107724
v 0.018870 0.841056 0.106410
v 0.018612 0.841850 0.105677
v 0.005581 0.839895 0.108380
v 0.012080 0.840925 0.106980
v 0.008018 0.838340 0.109692
v 0.010423 0.836890 0.110906
v 0.011484 0.833634 0.113918
v 0.012547 0.830377 0.116929
v 0.013977 0.829269 0.117884
v 0.016924 0.826979 0.119858
v 0.020816 0.823970 0.122450
v 0.023160 0.822162 0.124007
v 0.022369 0.818294 0.127719
v 0.020648 0.806803 0.138704
v 0.042126 0.812203 0.132187
v 0.040725 0.818687 0.126143
v 0.039962 0.821025 0.123981
v 0.034092 0.820346 0.125008
v 0.027886 0.819511 0.126205
v 0.027367 0.818368 0.127321
v 0.026623 0.814091 0.131416
v 0.026159 0.810684 0.134670
v 0.034070 0.811390 0.133484
v 0.002299 0.775578 0.161558
v 0.079835 0.782047 0.150353
v 0.001750 0.861504 0.080385
v 0.002585 0.779694 0.165913
v 0.041353 0.782929 0.160311
v 0.002036 0.865621 0.084740
v 0.022950 0.867366 0.081718
v 0.043864 0.869111 0.078696
v 0.043578 0.864994 0.074340
v 0.080121 0.786164 0.154708
vn 0.0476 0.6865 0.7256
vn 0.1923 -0.7191 0.6678
vn 0.9790 0.1122 -0.1703
vn 0.9758 0.1232 -0.1806
vn 0.9438 -0.2688 0.1924
vn 0.9394 -0.2776 0.2011
vn 0.9503 -0.2548 0.1788
vn 0.8660 0.3336 -0.3724
vn 0.8600 0.3413 -0.3793
vn 0.8761 0.3201 -0.3604
vn 0.8441 -0.4160 0.3382
vn 0.8561 -0.4023 0.3245
vn -0.2095 0.7171 -0.6648
vn -0.2328 0.7140 -0.6603
vn -0.9714 -0.1375 0.1938
vn -0.9089 -0.2714 0.3164
vn -0.8647 -0.3353 0.3740
vn -0.9588 0.2351 -0.1596
vn -0.9637 0.2225 -0.1474
vn -0.9629 0.2247 -0.1495
vn -0.2270 0.7148 -0.6615
vn 0.7159 0.4831 -0.5040
vn 0.7145 0.4842 -0.5050
vn 0.9867 0.0808 -0.1411
vn 0.9925 -0.1145 0.0433
vn 0.9892 -0.1332 0.0612
vn 0.9715 0.1371 -0.1934
vn -0.2539 0.7108 -0.6559
vn -0.6390 -0.5374 0.5504
vn -0.6163 -0.5515 0.5622
vn -0.9714 -0.1374 0.1937
vn -0.9713 -0.1376 0.1939
vn -0.7135 -0.4850 0.5057
vn -0.7145 -0.4842 0.5050
vn -0.7126 -0.4857 0.5063
vn -0.7119 -0.4862 0.5067
vn -0.9882 0.1384 -0.0662
vn -0.9930 0.1108 -0.0397
vn 0.1647 -0.7218 0.6722
vn -0.9866 -0.0812 0.1415
vn 0.1995 -0.7183 0.6665
vn 0.2240 -0.7152 0.6621
vn 0.9500 -0.2556 0.1796
vn 0.9911 -0.1231 0.0515
vn 0.9940 -0.1038 0.0331
vn -0.1651 0.7218 -0.6721
vn -0.1806 0.7203 -0.6697
vn 0.1575 -0.7228 0.6728
vn -0.9989 0.0294 0.0378
vn 0.0477 0.6861 0.7259
vn -0.1575 0.7228 -0.6728
vn 0.0477 0.6861 0.7260
vn 0.9506 0.1920 -0.2439
vn 0.0473 0.6864 0.7257
vn 0.0475 0.6865 0.7256
vt 0.957804 0.895215
vt 0.947828 0.903113
vt 0.933650 0.903872
vt 0.919020 0.960522
vt 0.912591 0.979558
vt 0.921045 0.932425
vt 0.921294 0.896733
vt 0.958462 0.913795
vt 0.958819 0.931666
vt 0.961603 0.936020
vt 0.967833 0.945487
vt 0.971327 0.951207
vt 0.970313 0.954650
vt 0.967480 0.963864
vt 0.965758 0.970192
vt 0.971328 0.975609
vt 0.976899 0.981280
vt 0.964239 0.981583
vt 0.951580 0.981583
vt 0.951580 0.977887
vt 0.954922 0.960725
vt 0.957149 0.953233
vt 0.954919 0.949334
vt 0.950868 0.941943
vt 0.948996 0.938551
vt 0.940540 0.938551
vt 0.932084 0.938601
vt 0.925552 0.949587
vt 0.919324 0.964370
vt 0.923021 0.974545
vt 0.924235 0.977634
vt 0.924236 0.979558
vt 0.900944 0.979304
vt 0.904234 0.974899
vt 0.907527 0.970749
vt 0.907525 0.962851
vt 0.907526 0.954953
vt 0.909347 0.951915
vt 0.913096 0.945638
vt 0.918057 0.937386
vt 0.917549 0.923717
vt 0.908230 0.897644
vt 0.949044 0.918604
vt 0.949044 0.924274
vt 0.938665 0.924629
vt 0.927625 0.924729
vt 0.926106 0.922249
vt 0.922461 0.912580
vt 0.919777 0.904834
vt 0.219037 0.688178
vt 0.250000 0.687500
vt 0.283323 0.693128
vt 0.280963 0.688178
vt 0.268862 0.493734
vt 0.266464 0.499987
vt 0.250000 0.500000
vt 0.231138 0.493734
vt 0.233536 0.499987
vt 0.216677 0.693128
s 0
usemtl glyph
f 1/1/1 41/2/1 49/3/1
f 24/4/1 30/5/1 38/6/1
f 2/7/2 50/1/2 1/1/2
f 1/1/3 52/8/3 3/8/3
f 3/8/4 53/9/4 4/9/4
f 4/9/5 54/10/5 5/10/5
f 5/10/6 55/11/6 6/11/6
f 6/11/7 56/12/7 7/12/7
f 7/12/8 57/13/8 8/13/8
f 8/13/9 58/14/9 9/14/9
f 9/14/10 59/15/10 10/15/10
f 10/15/11 60/16/11 11/16/11
f 11/16/12 61/17/12 12/17/12
f 12/17/13 62/18/13 13/18/13
f 13/18/14 63/19/14 14/19/14
f 14/19/15 64/20/15 15/20/15
f 15/20/16 65/21/16 16/21/16
f 16/21/17 66/22/17 17/22/17
f 17/22/18 67/23/18 18/23/18
f 18/23/19 68/24/19 19/24/19
f 19/24/20 69/25/20 20/25/20
f 20/25/14 70/26/14 21/26/14
f 21/26/21 71/27/21 22/27/21
f 22/27/22 72/28/22 23/28/22
f 24/4/23 72/28/23 73/4/23
f 24/4/24 74/29/24 25/29/24
f 25/29/25 75/30/25 26/30/25
f 26/30/26 76/31/26 27/31/26
f 27/31/27 77/32/27 28/32/27
f 30/5/14 77/32/14 79/5/14
f 30/5/28 78/33/28 29/33/28
f 29/33/29 80/34/29 31/34/29
f 31/34/30 81/35/30 32/35/30
f 32/35/31 82/36/31 33/36/31
f 33/36/32 83/37/32 34/37/32
f 34/37/33 84/38/33 35/38/33
f 35/38/34 85/39/34 36/39/34
f 36/39/35 86/40/35 37/40/35
f 37/40/36 87/6/36 38/6/36
f 38/6/37 88/41/37 39/41/37
f 39/41/38 89/42/38 40/42/38
f 40/42/39 51/7/39 2/7/39
f 42/43/40 90/2/40 41/2/40
f 43/44/32 91/43/32 42/43/32
f 44/45/41 92/44/41 43/44/41
f 45/46/42 93/45/42 44/45/42
f 46/47/43 94/46/43 45/46/43
f 47/48/44 95/47/44 46/47/44
f 48/49/45 96/48/45 47/48/45
f 49/3/46 97/49/46 48/49/46
f 41/2/47 98/3/47 49/3/47
f 108/50/48 103/51/48 99/52/48
f 102/53/49 101/54/49 99/52/49
f 103/51/50 104/55/50 102/53/50
f 104/55/51 105/56/51 107/57/51
f 106/58/52 103/51/52 108/50/52
f 107/57/53 108/50/53 100/59/53
f 40/42/1 2/7/1 1/1/1
f 1/1/1 3/8/1 4/9/1
f 4/9/1 43/44/1 42/43/1
f 4/9/1 42/43/1 41/2/1
f 48/49/1 40/42/1 1/1/1
f 49/3/1 48/49/1 1/1/1
f 1/1/1 4/9/1 41/2/1
f 43/44/1 4/9/1 5/10/1
f 5/10/1 6/11/1 7/12/1
f 7/12/1 8/13/1 9/14/1
f 10/15/1 11/16/1 12/17/1
f 5/10/1 7/12/1 9/14/1
f 10/15/1 12/17/1 13/18/1
f 5/10/1 9/14/1 10/15/1
f 44/45/1 43/44/1 5/10/1
f 45/46/1 44/45/1 5/10/1
f 5/10/1 10/15/1 13/18/1
f 13/18/1 14/19/1 15/20/1
f 15/20/1 16/21/1 17/22/1
f 17/22/1 18/23/1 19/24/1
f 17/22/1 19/24/1 20/25/1
f 13/18/1 15/20/1 17/22/1
f 40/42/1 48/49/1 47/48/1
f 38/6/1 39/41/1 40/42/1
f 36/39/54 37/40/54 38/6/54
f 33/36/1 34/37/1 35/38/1
f 35/38/1 36/39/1 38/6/1
f 38/6/1 40/42/1 47/48/1
f 38/6/1 47/48/1 46/47/1
f 33/36/1 35/38/1 38/6/1
f 29/33/1 31/34/1 32/35/1
f 32/35/1 33/36/1 38/6/1
f 38/6/1 46/47/1 45/46/1
f 5/10/1 13/18/1 17/22/1
f 5/10/1 17/22/1 20/25/1
f 38/6/1 45/46/1 5/10/1
f 30/5/1 29/33/1 32/35/1
f 38/6/1 5/10/1 20/25/1
f 38/6/1 20/25/1 21/26/1
f 30/5/1 32/35/1 38/6/1
f 27/31/1 28/32/1 30/5/1
f 26/30/1 27/31/1 30/5/1
f 38/6/1 21/26/1 22/27/1
f 22/27/55 23/28/55 24/4/55
f 25/29/1 26/30/1 30/5/1
f 38/6/1 22/27/1 24/4/1
f 24/4/1 25/29/1 30/5/1
f 2/7/2 51/7/2 50/1/2
f 1/1/3 50/1/3 52/8/3
f 3/8/4 52/8/4 53/9/4
f 4/9/5 53/9/5 54/10/5
f 5/10/6 54/10/6 55/11/6
f 6/11/7 55/11/7 56/12/7
f 7/12/8 56/12/8 57/13/8
f 8/13/9 57/13/9 58/14/9
f 9/14/10 58/14/10 59/15/10
f 10/15/11 59/15/11 60/16/11
f 11/16/12 60/16/12 61/17/12
f 12/17/13 61/17/13 62/18/13
f 13/18/14 62/18/14 63/19/14
f 14/19/15 63/19/15 64/20/15
f 15/20/16 64/20/16 65/21/16
f 16/21/17 65/21/17 66/22/17
f 17/22/18 66/22/18 67/23/18
f 18/23/19 67/23/19 68/24/19
f 19/24/20 68/24/20 69/25/20
f 20/25/14 69/25/14 70/26/14
f 21/26/21 70/26/21 71/27/21
f 22/27/22 71/27/22 72/28/22
f 24/4/23 23/28/23 72/28/23
f 24/4/24 73/4/24 74/29/24
f 25/29/25 74/29/25 75/30/25
f 26/30/26 75/30/26 76/31/26
f 27/31/27 76/31/27 77/32/27
f 30/5/14 28/32/14 77/32/14
f 30/5/28 79/5/28 78/33/28
f 29/33/29 78/33/29 80/34/29
f 31/34/30 80/34/30 81/35/30
f 32/35/31 81/35/31 82/36/31
f 33/36/32 82/36/32 83/37/32
f 34/37/33 83/37/33 84/38/33
f 35/38/34 84/38/34 85/39/34
f 36/39/35 85/39/35 86/40/35
f 37/40/36 86/40/36 87/6/36
f 38/6/37 87/6/37 88/41/37
f 39/41/38 88/41/38 89/42/38
f 40/42/39 89/42/39 51/7/39
f 42/43/40 91/43/40 90/2/40
f 43/44/32 92/44/32 91/43/32
f 44/45/41 93/45/41 92/44/41
f 45/46/42 94/46/42 93/45/42
f 46/47/43 95/47/43 94/46/43
f 47/48/44 96/48/44 95/47/44
f 48/49/45 97/49/45 96/48/45
f 49/3/46 98/3/46 97/49/46
f 41/2/47 90/2/47 98/3/47
f 99/52/48 100/59/48 108/50/48
f 103/51/48 102/53/48 99/52/48
f 102/53/49 104/55/49 101/54/49
f 103/51/50 105/56/50 104/55/50
f 107/57/51 101/54/51 104/55/51
f 105/56/51 106/58/51 107/57/51
f 106/58/52 105/56/52 103/51/52
f 107/57/53 106/58/53 108/50/53
