mtllib glyphs.mtl
# Blender 5.0.1
# www.blender.org
o 003
v 0.043478 0.691923 0.227438
v 0.043278 0.694264 0.225554
v 0.041656 0.692304 0.227269
v 0.037213 0.694158 0.226106
v 0.031757 0.696653 0.224500
v 0.034152 0.697783 0.223399
v 0.036690 0.698714 0.222448
v 0.039292 0.701912 0.219653
v 0.043889 0.707804 0.214518
v 0.047643 0.712557 0.210371
v 0.049481 0.714758 0.208444
v 0.046948 0.724107 0.201050
v 0.039097 0.725111 0.200838
v 0.028687 0.725509 0.201315
v 0.025621 0.725086 0.201893
v 0.027339 0.733098 0.195259
v 0.029566 0.732593 0.195498
v 0.033239 0.731269 0.196290
v 0.045505 0.729631 0.196678
v 0.049285 0.729117 0.196805
v 0.052550 0.729955 0.195874
v 0.054590 0.731045 0.194832
v 0.056970 0.730972 0.194709
v 0.059422 0.730980 0.194514
v 0.059100 0.739639 0.187511
v 0.057388 0.744157 0.183975
v 0.055988 0.746696 0.182022
v 0.066599 0.746416 0.181435
v 0.068861 0.745771 0.181785
v 0.066979 0.741699 0.185234
v 0.066773 0.734778 0.190867
v 0.067914 0.723384 0.200027
v 0.069207 0.718298 0.204056
v 0.073272 0.715138 0.206309
v 0.077400 0.712146 0.208420
v 0.073760 0.706885 0.212969
v 0.068924 0.700505 0.218519
v 0.067967 0.699154 0.219689
v 0.060005 0.696891 0.222137
v 0.051954 0.694872 0.224394
v 0.056217 0.703576 0.217002
v 0.061487 0.704775 0.215624
v 0.063496 0.704687 0.215542
v 0.064147 0.705831 0.214563
v 0.064572 0.711825 0.209665
v 0.063444 0.713408 0.208468
v 0.059114 0.713091 0.209057
v 0.055730 0.712698 0.209636
v 0.051756 0.707643 0.214044
v 0.045435 0.699402 0.221218
v 0.072136 0.711159 0.209625
v 0.070323 0.708696 0.211764
v 0.068410 0.706203 0.213934
v 0.068582 0.707031 0.213248
v 0.068091 0.712466 0.208875
v 0.067058 0.714810 0.207052
v 0.069596 0.712984 0.208339
v 0.060983 0.717188 0.205588
v 0.059421 0.716925 0.205922
v 0.057719 0.716710 0.206227
v 0.056365 0.721480 0.202460
v 0.055922 0.726389 0.198510
v 0.058650 0.725935 0.198668
v 0.059925 0.721173 0.202435
v 0.043195 0.688933 0.223754
v 0.042995 0.691273 0.221869
v 0.041373 0.689314 0.223584
v 0.036930 0.691167 0.222421
v 0.031474 0.693662 0.220815
v 0.033869 0.694792 0.219714
v 0.036407 0.695724 0.218763
v 0.039009 0.698921 0.215968
v 0.043606 0.704813 0.210833
v 0.047360 0.709566 0.206687
v 0.049198 0.711767 0.204759
v 0.046665 0.721116 0.197366
v 0.038814 0.722121 0.197154
v 0.028404 0.722519 0.197630
v 0.025338 0.722096 0.198209
v 0.027056 0.730107 0.191574
v 0.029283 0.729602 0.191813
v 0.032956 0.728279 0.192605
v 0.045222 0.726640 0.192994
v 0.049002 0.726126 0.193120
v 0.052267 0.726964 0.192189
v 0.054307 0.728054 0.191148
v 0.056687 0.727982 0.191024
v 0.059139 0.727990 0.190829
v 0.058817 0.736648 0.183827
v 0.057105 0.741167 0.180291
v 0.055705 0.743705 0.178337
v 0.066316 0.743425 0.177750
v 0.068578 0.742780 0.178100
v 0.066696 0.738708 0.181549
v 0.066490 0.731787 0.187182
v 0.067631 0.720394 0.196342
v 0.068924 0.715307 0.200371
v 0.072989 0.712147 0.202624
v 0.077118 0.709155 0.204735
v 0.073477 0.703895 0.209284
v 0.068641 0.697515 0.214834
v 0.067684 0.696164 0.216004
v 0.059722 0.693901 0.218452
v 0.051671 0.691882 0.220709
v 0.055934 0.700586 0.213317
v 0.061204 0.701784 0.211940
v 0.063213 0.701696 0.211857
v 0.063864 0.702840 0.210878
v 0.064289 0.708835 0.205980
v 0.063161 0.710417 0.204783
v 0.058831 0.710100 0.205372
v 0.055447 0.709708 0.205951
v 0.051473 0.704652 0.210359
v 0.045152 0.696412 0.217533
v 0.071853 0.708168 0.205940
v 0.070040 0.705705 0.208079
v 0.068127 0.703212 0.210249
v 0.068300 0.704041 0.209563
v 0.067808 0.709475 0.205190
v 0.066775 0.711819 0.203367
v 0.069313 0.709993 0.204654
v 0.060700 0.714198 0.201903
v 0.059138 0.713934 0.202237
v 0.057436 0.713720 0.202542
v 0.056082 0.718489 0.198775
v 0.055639 0.723398 0.194825
v 0.058367 0.722945 0.194983
v 0.059642 0.718182 0.198751
v 0.002890 0.665116 0.238596
v 0.118873 0.674793 0.221835
v 0.002360 0.756959 0.165408
v 0.003255 0.668850 0.243278
v 0.061246 0.673688 0.234898
v 0.002725 0.760692 0.170091
v 0.043487 0.764093 0.164200
v 0.084248 0.767494 0.158310
v 0.083883 0.763761 0.153627
v 0.119238 0.678527 0.226517
vn 0.0595 0.6291 0.7751
vn 0.9960 0.0142 -0.0880
vn -0.2152 -0.7501 0.6253
vn -0.4377 -0.6814 0.5866
vn -0.4741 -0.6655 0.5765
vn -0.5471 0.6700 -0.5018
vn -0.4606 0.7061 -0.5378
vn -0.8506 0.4383 -0.2905
vn -0.8599 0.4267 -0.2802
vn -0.8572 0.4300 -0.2832
vn -0.8447 0.4455 -0.2967
vn -0.9763 -0.1250 0.1765
vn -0.1152 -0.7669 0.6313
vn -0.0009 -0.7764 0.6302
vn 0.2198 -0.7657 0.6046
vn -0.9848 0.1637 -0.0573
vn 0.2361 0.7455 -0.6232
vn 0.3825 0.7028 -0.5998
vn 0.1223 0.7660 -0.6311
vn 0.1252 0.7656 -0.6310
vn -0.3534 0.7394 -0.5730
vn -0.5912 0.6478 -0.4804
vn -0.0090 0.7768 -0.6297
vn -0.0523 0.7773 -0.6269
vn -0.9978 0.0150 0.0644
vn -0.9564 -0.1865 0.2248
vn -0.9144 -0.2770 0.2951
vn -0.0143 0.7769 -0.6295
vn 0.3028 0.7285 -0.6145
vn 0.9412 -0.2941 0.1664
vn 0.9980 -0.0555 -0.0316
vn 0.9952 0.0232 -0.0952
vn 0.9789 0.1152 -0.1687
vn 0.6880 0.5368 -0.4885
vn 0.6609 0.5570 -0.5029
vn 0.8839 -0.3940 0.2519
vn 0.8660 -0.4187 0.2733
vn 0.8794 -0.4004 0.2574
vn 0.3816 -0.7318 0.5646
vn 0.3470 -0.7411 0.5748
vn -0.9349 0.3072 -0.1775
vn -0.3219 0.7470 -0.5816
vn 0.0081 0.7761 -0.6305
vn -0.9160 0.3431 -0.2081
vn -0.9967 0.0801 0.0116
vn -0.8673 -0.3518 0.3521
vn 0.1407 -0.7740 0.6174
vn 0.1933 -0.7690 0.6093
vn 0.8583 -0.4287 0.2821
vn 0.8635 -0.4220 0.2762
vn 0.9503 -0.2733 0.1488
vn -0.8720 0.4107 -0.2664
vn -0.8634 0.4222 -0.2763
vn 0.9855 -0.1604 0.0545
vn 0.9957 0.0172 -0.0905
vn 0.9426 0.2202 -0.2511
vn -0.6579 -0.5592 0.5044
vn -0.6575 -0.5595 0.5046
vn -0.2561 0.7601 -0.5972
vn -0.2053 0.7676 -0.6072
vn 0.9743 0.1325 -0.1824
vn 0.9958 0.0172 -0.0904
vn -0.1627 -0.7599 0.6293
vn -0.9769 -0.1230 0.1749
vn -0.9772 -0.1218 0.1739
vn 0.1529 -0.7785 0.6088
vn -0.9981 0.0344 0.0504
vn 0.0609 0.6223 0.7804
vn -0.1529 0.7785 -0.6088
vn 0.9526 0.1972 -0.2315
vn 0.0592 0.6289 0.7753
vn -0.7542 -0.4803 0.4478
vt 0.924435 0.904028
vt 0.936140 0.917309
vt 0.912026 0.904630
vt 0.943818 0.896545
vt 0.973408 0.919946
vt 0.958801 0.911291
vt 0.918727 0.963021
vt 0.910360 0.953765
vt 0.948559 0.949651
vt 0.919071 0.891185
vt 0.919619 0.895374
vt 0.916670 0.892240
vt 0.911144 0.896449
vt 0.904435 0.902005
vt 0.908166 0.903509
vt 0.916775 0.909753
vt 0.925253 0.919233
vt 0.932155 0.926872
vt 0.935490 0.930388
vt 0.935268 0.947478
vt 0.924700 0.950892
vt 0.905944 0.953654
vt 0.911165 0.967489
vt 0.914084 0.966130
vt 0.935212 0.957564
vt 0.940290 0.955866
vt 0.945128 0.956671
vt 0.948351 0.958177
vt 0.951637 0.957553
vt 0.955050 0.957056
vt 0.957662 0.972462
vt 0.956876 0.980823
vt 0.955827 0.985613
vt 0.970490 0.982907
vt 0.973408 0.981293
vt 0.969352 0.974471
vt 0.966619 0.962254
vt 0.964182 0.941832
vt 0.964183 0.932551
vt 0.968722 0.926107
vt 0.966485 0.911386
vt 0.957503 0.901090
vt 0.955694 0.898896
vt 0.931904 0.894645
vt 0.940910 0.909177
vt 0.948665 0.910203
vt 0.951430 0.909628
vt 0.952739 0.911519
vt 0.955448 0.922050
vt 0.954438 0.925088
vt 0.948302 0.925429
vt 0.943456 0.925438
vt 0.965736 0.919294
vt 0.962343 0.915308
vt 0.959334 0.912723
vt 0.960570 0.922452
vt 0.959961 0.926819
vt 0.962848 0.923056
vt 0.952349 0.932298
vt 0.950084 0.932156
vt 0.947640 0.932131
vt 0.947442 0.940863
vt 0.952195 0.948280
vt 0.952285 0.939578
vt 0.124849 0.500602
vt 0.156250 0.500000
vt 0.189254 0.503933
vt 0.187651 0.500602
vt 0.180000 0.370651
vt 0.178376 0.374864
vt 0.134124 0.374864
vt 0.132500 0.370651
vt 0.123246 0.503933
vt 0.156250 0.375000
s 0
usemtl glyph
f 50/1/1 49/2/1 7/3/1
f 39/4/1 35/5/1 53/6/1
f 18/7/1 14/8/1 62/9/1
f 1/10/2 66/11/2 2/11/2
f 3/12/3 65/10/3 1/10/3
f 4/13/4 67/12/4 3/12/4
f 5/14/5 68/13/5 4/13/5
f 6/15/6 69/14/6 5/14/6
f 7/3/7 70/15/7 6/15/7
f 8/16/8 71/3/8 7/3/8
f 9/17/9 72/16/9 8/16/9
f 10/18/10 73/17/10 9/17/10
f 11/19/11 74/18/11 10/18/11
f 11/19/12 76/20/12 75/19/12
f 13/21/13 76/20/13 12/20/13
f 14/8/14 77/21/14 13/21/14
f 15/22/15 78/8/15 14/8/15
f 16/23/16 79/22/16 15/22/16
f 17/24/17 80/23/17 16/23/17
f 18/7/18 81/24/18 17/24/18
f 19/25/19 82/7/19 18/7/19
f 20/26/20 83/25/20 19/25/20
f 21/27/21 84/26/21 20/26/21
f 22/28/22 85/27/22 21/27/22
f 23/29/23 86/28/23 22/28/23
f 24/30/24 87/29/24 23/29/24
f 25/31/25 88/30/25 24/30/25
f 26/32/26 89/31/26 25/31/26
f 27/33/27 90/32/27 26/32/27
f 27/33/28 92/34/28 91/33/28
f 29/35/29 92/34/29 28/34/29
f 30/36/30 93/35/30 29/35/30
f 31/37/31 94/36/31 30/36/31
f 32/38/32 95/37/32 31/37/32
f 33/39/33 96/38/33 32/38/33
f 33/39/34 98/40/34 97/39/34
f 35/5/35 98/40/35 34/40/35
f 36/41/36 99/5/36 35/5/36
f 37/42/37 100/41/37 36/41/37
f 38/43/38 101/42/38 37/42/38
f 39/4/39 102/43/39 38/43/39
f 40/44/40 103/4/40 39/4/40
f 41/45/41 104/44/41 40/44/41
f 42/46/42 105/45/42 41/45/42
f 43/47/43 106/46/43 42/46/43
f 44/48/44 107/47/44 43/47/44
f 45/49/45 108/48/45 44/48/45
f 46/50/46 109/49/46 45/49/46
f 47/51/47 110/50/47 46/50/47
f 48/52/48 111/51/48 47/51/48
f 49/2/49 112/52/49 48/52/49
f 50/1/50 113/2/50 49/2/50
f 50/1/51 66/11/51 114/1/51
f 51/53/52 116/54/52 52/54/52
f 52/54/53 117/6/53 53/6/53
f 53/6/54 118/55/54 54/55/54
f 55/56/55 118/55/55 119/56/55
f 55/56/56 120/57/56 56/57/56
f 56/57/57 121/58/57 57/58/57
f 57/58/58 115/53/58 51/53/58
f 58/59/59 123/60/59 59/60/59
f 59/60/60 124/61/60 60/61/60
f 60/61/61 125/62/61 61/62/61
f 61/62/62 126/9/62 62/9/62
f 62/9/63 127/63/63 63/63/63
f 63/63/64 128/64/64 64/64/64
f 64/64/65 122/59/65 58/59/65
f 138/65/66 133/66/66 129/67/66
f 132/68/67 131/69/67 129/67/67
f 133/66/68 134/70/68 132/68/68
f 134/70/69 136/71/69 137/72/69
f 136/71/68 133/66/68 138/65/68
f 137/72/70 138/65/70 130/73/70
f 45/49/1 44/48/1 53/6/1
f 53/6/1 54/55/1 55/56/1
f 56/57/71 57/58/71 51/53/71
f 53/6/1 55/56/1 56/57/1
f 45/49/1 53/6/1 56/57/1
f 56/57/1 51/53/1 34/40/1
f 33/39/1 32/38/1 63/63/1
f 56/57/1 34/40/1 33/39/1
f 46/50/1 45/49/1 56/57/1
f 47/51/1 46/50/1 56/57/1
f 56/57/1 33/39/1 63/63/1
f 56/57/1 63/63/1 64/64/1
f 48/52/1 47/51/1 56/57/1
f 56/57/1 64/64/1 58/59/1
f 59/60/1 60/61/1 11/19/1
f 56/57/1 58/59/1 59/60/1
f 48/52/1 56/57/1 59/60/1
f 59/60/1 11/19/1 10/18/1
f 10/18/1 9/17/1 8/16/1
f 7/3/1 6/15/1 5/14/1
f 59/60/1 10/18/1 8/16/1
f 7/3/1 5/14/1 4/13/1
f 59/60/1 8/16/1 7/3/1
f 48/52/1 59/60/1 7/3/1
f 7/3/1 4/13/1 3/12/1
f 3/12/1 1/10/1 2/11/1
f 3/12/1 2/11/1 50/1/1
f 49/2/1 48/52/1 7/3/1
f 7/3/1 3/12/1 50/1/1
f 53/6/1 44/48/1 43/47/1
f 43/47/1 42/46/1 41/45/1
f 41/45/1 40/44/1 39/4/1
f 39/4/1 38/43/1 37/42/1
f 37/42/1 36/41/1 35/5/1
f 35/5/1 34/40/1 51/53/1
f 35/5/1 51/53/1 52/54/1
f 39/4/1 37/42/1 35/5/1
f 43/47/1 41/45/1 39/4/1
f 35/5/1 52/54/1 53/6/1
f 53/6/1 43/47/1 39/4/1
f 63/63/1 32/38/1 31/37/1
f 30/36/1 29/35/1 28/34/1
f 63/63/1 31/37/1 30/36/1
f 63/63/1 30/36/1 28/34/1
f 28/34/1 27/33/1 26/32/1
f 28/34/1 26/32/1 25/31/1
f 11/19/1 60/61/1 61/62/1
f 12/20/1 11/19/1 61/62/1
f 12/20/1 61/62/1 62/9/1
f 13/21/1 12/20/1 62/9/1
f 28/34/1 25/31/1 24/30/1
f 23/29/1 22/28/1 21/27/1
f 63/63/1 28/34/1 24/30/1
f 24/30/1 23/29/1 21/27/1
f 20/26/1 19/25/1 18/7/1
f 24/30/1 21/27/1 20/26/1
f 62/9/1 63/63/1 24/30/1
f 14/8/1 13/21/1 62/9/1
f 16/23/1 15/22/1 14/8/1
f 18/7/1 17/24/1 16/23/1
f 62/9/1 24/30/1 20/26/1
f 18/7/1 16/23/1 14/8/1
f 62/9/1 20/26/1 18/7/1
f 1/10/2 65/10/2 66/11/2
f 3/12/3 67/12/3 65/10/3
f 4/13/4 68/13/4 67/12/4
f 5/14/5 69/14/5 68/13/5
f 6/15/6 70/15/6 69/14/6
f 7/3/7 71/3/7 70/15/7
f 8/16/8 72/16/8 71/3/8
f 9/17/9 73/17/9 72/16/9
f 10/18/10 74/18/10 73/17/10
f 11/19/11 75/19/11 74/18/11
f 11/19/12 12/20/12 76/20/12
f 13/21/13 77/21/13 76/20/13
f 14/8/14 78/8/14 77/21/14
f 15/22/15 79/22/15 78/8/15
f 16/23/16 80/23/16 79/22/16
f 17/24/17 81/24/17 80/23/17
f 18/7/18 82/7/18 81/24/18
f 19/25/19 83/25/19 82/7/19
f 20/26/20 84/26/20 83/25/20
f 21/27/21 85/27/21 84/26/21
f 22/28/22 86/28/22 85/27/22
f 23/29/23 87/29/23 86/28/23
f 24/30/24 88/30/24 87/29/24
f 25/31/25 89/31/25 88/30/25
f 26/32/26 90/32/26 89/31/26
f 27/33/27 91/33/27 90/32/27
f 27/33/28 28/34/28 92/34/28
f 29/35/29 93/35/29 92/34/29
f 30/36/30 94/36/30 93/35/30
f 31/37/31 95/37/31 94/36/31
f 32/38/32 96/38/32 95/37/32
f 33/39/33 97/39/33 96/38/33
f 33/39/34 34/40/34 98/40/34
f 35/5/35 99/5/35 98/40/35
f 36/41/36 100/41/36 99/5/36
f 37/42/37 101/42/37 100/41/37
f 38/43/38 102/43/38 101/42/38
f 39/4/39 103/4/39 102/43/39
f 40/44/40 104/44/40 103/4/40
f 41/45/41 105/45/41 104/44/41
f 42/46/42 106/46/42 105/45/42
f 43/47/43 107/47/43 106/46/43
f 44/48/44 108/48/44 107/47/44
f 45/49/45 109/49/45 108/48/45
f 46/50/46 110/50/46 109/49/46
f 47/51/47 111/51/47 110/50/47
f 48/52/48 112/52/48 111/51/48
f 49/2/49 113/2/49 112/52/49
f 50/1/50 114/1/50 113/2/50
f 50/1/51 2/11/51 66/11/51
f 51/53/52 115/53/52 116/54/52
f 52/54/53 116/54/53 117/6/53
f 53/6/54 117/6/54 118/55/54
f 55/56/55 54/55/55 118/55/55
f 55/56/56 119/56/56 120/57/56
f 56/57/57 120/57/57 121/58/57
f 57/58/58 121/58/58 115/53/58
f 58/59/59 122/59/59 123/60/59
f 59/60/60 123/60/60 124/61/60
f 60/61/61 124/61/61 125/62/61
f 61/62/62 125/62/62 126/9/62
f 62/9/63 126/9/63 127/63/63
f 63/63/64 127/63/64 128/64/64
f 64/64/65 128/64/65 122/59/65
f 129/67/66 130/73/66 138/65/66
f 133/66/66 132/68/66 129/67/66
f 132/68/67 134/70/67 131/69/67
f 133/66/68 135/74/68 134/70/68
f 137/72/69 131/69/69 134/70/69
f 134/70/72 135/74/72 136/71/72
f 136/71/68 135/74/68 133/66/68
f 137/72/70 136/71/70 138/65/70
