mtllib glyphs.mtl
# Blender 5.0.1
# www.blender.org
o 005
v -0.325163 0.808869 0.030235
v -0.321427 0.810928 0.029768
v -0.318397 0.812553 0.029446
v -0.310496 0.814812 0.031062
v -0.301869 0.817271 0.032837
v -0.300820 0.817302 0.033385
v -0.300219 0.813096 0.038943
v -0.299876 0.809088 0.044109
v -0.302877 0.806639 0.045470
v -0.305351 0.804152 0.047173
v -0.291008 0.807142 0.051486
v -0.288540 0.807758 0.052102
v -0.288925 0.808187 0.051353
v -0.291654 0.809856 0.047756
v -0.293998 0.811096 0.044904
v -0.294001 0.813469 0.041958
v -0.294094 0.818156 0.036088
v -0.294185 0.820469 0.033166
v -0.292821 0.821383 0.032795
v -0.281571 0.827844 0.031069
v -0.276514 0.829896 0.031350
v -0.273318 0.830802 0.032014
v -0.274776 0.834003 0.027224
v -0.277386 0.836976 0.022073
v -0.277883 0.837598 0.021023
v -0.279988 0.835006 0.023064
v -0.282125 0.832398 0.025105
v -0.285507 0.830557 0.025499
v -0.293494 0.826063 0.026609
v -0.298101 0.823412 0.027322
v -0.301222 0.822406 0.026825
v -0.308663 0.819905 0.025766
v -0.319322 0.816929 0.023497
v -0.325321 0.816847 0.020244
v -0.325663 0.816217 0.020833
v -0.325860 0.808592 0.030189
v -0.286465 0.815065 0.044192
v -0.280720 0.813060 0.049895
v -0.292221 0.817089 0.038461
v -0.288215 0.820913 0.035955
v -0.282453 0.819156 0.041359
v -0.277517 0.817299 0.046426
v -0.279235 0.814706 0.048683
v -0.275390 0.809205 0.057662
v -0.274864 0.808222 0.059177
v -0.276822 0.812441 0.052845
v -0.277769 0.814696 0.049516
v -0.274454 0.816245 0.049447
v -0.266510 0.819622 0.049700
v -0.270650 0.813871 0.054522
v -0.274115 0.812147 0.054723
v -0.274682 0.813334 0.052934
v -0.275156 0.814560 0.051145
v -0.273243 0.815378 0.051201
v -0.271360 0.816184 0.051254
v -0.272674 0.814192 0.052991
v -0.323588 0.805375 0.027421
v -0.319852 0.807435 0.026954
v -0.316823 0.809060 0.026632
v -0.308922 0.811319 0.028248
v -0.300294 0.813778 0.030022
v -0.299246 0.813809 0.030571
v -0.298645 0.809602 0.036128
v -0.298301 0.805595 0.041295
v -0.301302 0.803146 0.042656
v -0.303777 0.800658 0.044359
v -0.289433 0.803649 0.048671
v -0.286966 0.804264 0.049288
v -0.287351 0.804694 0.048539
v -0.290079 0.806363 0.044941
v -0.292423 0.807603 0.042090
v -0.292426 0.809976 0.039144
v -0.292519 0.814662 0.033274
v -0.292610 0.816976 0.030352
v -0.291246 0.817890 0.029981
v -0.279996 0.824351 0.028255
v -0.274940 0.826403 0.028536
v -0.271743 0.827309 0.029199
v -0.273202 0.830510 0.024410
v -0.275812 0.833483 0.019259
v -0.276309 0.834105 0.018209
v -0.278414 0.831513 0.020249
v -0.280550 0.828905 0.022291
v -0.283933 0.827064 0.022684
v -0.291920 0.822569 0.023795
v -0.296526 0.819919 0.024508
v -0.299647 0.818912 0.024011
v -0.307089 0.816412 0.022951
v -0.317747 0.813436 0.020683
v -0.323747 0.813353 0.017429
v -0.324089 0.812724 0.018019
v -0.324285 0.805098 0.027375
v -0.284891 0.811572 0.041378
v -0.279145 0.809567 0.047081
v -0.290646 0.813595 0.035646
v -0.286640 0.817419 0.033141
v -0.280879 0.815663 0.038544
v -0.275943 0.813806 0.043611
v -0.277660 0.811213 0.045868
v -0.273816 0.805712 0.054848
v -0.273289 0.804729 0.056362
v -0.275248 0.808947 0.050031
v -0.276194 0.811203 0.046701
v -0.272880 0.812752 0.046633
v -0.264936 0.816128 0.046886
v -0.269076 0.810378 0.051708
v -0.272540 0.808654 0.051909
v -0.273107 0.809840 0.050119
v -0.273582 0.811067 0.048331
v -0.271668 0.811885 0.048386
v -0.269785 0.812691 0.048440
v -0.271100 0.810699 0.050177
v -0.362348 0.805005 -0.003699
v -0.315114 0.751164 0.089557
v -0.256519 0.855869 -0.005909
v -0.364380 0.809387 -0.000140
v -0.340763 0.782466 0.046488
v -0.258551 0.860251 -0.002350
v -0.241951 0.841329 0.030424
v -0.225351 0.822407 0.063198
v -0.223319 0.818025 0.059639
v -0.317146 0.755546 0.093116
vn -0.3312 0.7348 0.5920
vn 0.3640 -0.4793 0.7986
vn 0.3472 -0.4884 0.8005
vn 0.0179 -0.6224 0.7825
vn 0.0166 -0.6227 0.7823
vn -0.9396 -0.3140 -0.1359
vn -0.9421 -0.2924 -0.1642
vn -0.5967 0.3229 -0.7346
vn -0.6984 0.2310 -0.6774
vn -0.0916 -0.6494 0.7549
vn -0.0338 -0.6362 0.7708
vn 0.7543 0.5831 -0.3017
vn 0.7266 0.5988 -0.3368
vn 0.9436 0.2584 0.2071
vn 0.9435 0.2661 0.1975
vn 0.9433 0.2741 0.1875
vn 0.4833 -0.4067 0.7752
vn 0.3891 -0.4652 0.7951
vn 0.1846 -0.5648 0.8043
vn 0.0143 -0.6234 0.7818
vn 0.9111 0.4122 -0.0019
vn 0.8537 0.5006 -0.1437
vn 0.8649 0.4872 -0.1208
vn -0.7752 0.1458 -0.6146
vn -0.7723 0.1493 -0.6174
vn -0.3562 0.4836 -0.7995
vn -0.3766 0.4723 -0.7969
vn -0.3904 0.4645 -0.7949
vn -0.0696 0.6066 -0.7919
vn -0.0886 0.6004 -0.7948
vn -0.0084 0.6250 -0.7806
vn 0.3431 0.6782 -0.6499
vn -0.8686 0.0076 -0.4954
vn -0.9434 -0.2470 -0.2212
vn -0.6448 -0.6343 0.4266
vn -0.6462 -0.6338 0.4252
vn -0.6753 0.2536 -0.6926
vn 0.6192 0.6426 -0.4513
vn 0.6594 0.6290 -0.4118
vn 0.8310 -0.0701 0.5519
vn 0.7383 -0.1889 0.6475
vn -0.9012 -0.4323 0.0324
vn -0.9126 -0.4087 -0.0032
vn -0.9153 -0.4026 -0.0124
vn -0.2644 0.5300 -0.8057
vn -0.2100 0.5543 -0.8054
vn 0.8106 -0.0996 0.5771
vn 0.8009 -0.1128 0.5881
vn 0.8513 0.5033 -0.1485
vn -0.3250 -0.6778 0.6595
vn 0.1731 -0.5694 0.8036
vn 0.9084 0.4180 -0.0107
vn 0.9190 0.3934 0.0259
vn 0.2130 -0.5530 0.8055
vn 0.2137 -0.5526 0.8055
vn -0.8319 0.0686 -0.5506
vn -0.8161 0.0918 -0.5705
vn -0.8509 -0.5069 0.1383
vn -0.2707 0.5282 -0.8048
vn -0.3386 0.7304 0.5932
vn 0.8509 0.5069 -0.1383
vn 0.5238 -0.3774 0.7637
vn 0.8649 0.4871 -0.1208
vn -0.7892 0.2658 0.5536
vt 0.928140 0.905383
vt 0.917114 0.911329
vt 0.912638 0.902724
vt 0.939847 0.949827
vt 0.934441 0.938181
vt 0.943403 0.926680
vt 0.944813 0.950331
vt 0.941463 0.938381
vt 0.941597 0.934116
vt 0.932793 0.937975
vt 0.943054 0.928192
vt 0.937093 0.938416
vt 0.929063 0.899436
vt 0.927489 0.910183
vt 0.930088 0.921638
vt 0.932943 0.934143
vt 0.933871 0.935518
vt 0.943572 0.934045
vt 0.952596 0.932342
vt 0.955063 0.927138
vt 0.958112 0.922597
vt 0.965241 0.942799
vt 0.966247 0.946328
vt 0.964949 0.946059
vt 0.958737 0.943415
vt 0.953819 0.941040
vt 0.948667 0.942308
vt 0.938405 0.944699
vt 0.933298 0.945820
vt 0.932609 0.948079
vt 0.929268 0.966128
vt 0.929614 0.973785
vt 0.930683 0.978415
vt 0.922350 0.978240
vt 0.913418 0.976448
vt 0.911596 0.976137
vt 0.915225 0.972018
vt 0.918856 0.967851
vt 0.919641 0.962477
vt 0.921812 0.949712
vt 0.923191 0.942320
vt 0.922412 0.937733
vt 0.920774 0.926744
vt 0.911596 0.903505
vt 0.929002 0.898383
vt 0.943403 0.938420
vt 0.943379 0.950118
vt 0.934879 0.926841
vt 0.934639 0.948438
vt 0.945050 0.926467
vt 0.936960 0.933948
vt 0.936215 0.941800
vt 0.945050 0.938312
vt 0.939296 0.936215
vt 0.939159 0.940480
vt 0.941191 0.942512
vt 0.124849 0.500602
vt 0.187651 0.500602
vt 0.189254 0.503933
vt 0.180000 0.370651
vt 0.156250 0.500000
vt 0.178376 0.374864
vt 0.156250 0.375000
vt 0.132500 0.370651
vt 0.134124 0.374864
vt 0.123246 0.503933
s 0
usemtl Material.003
f 2/1/1 33/2/1 35/3/1
f 43/4/1 41/5/1 39/6/1
f 49/7/1 56/8/1 51/9/1
f 47/10/1 44/11/1 53/12/1
f 1/13/2 58/1/2 2/1/2
f 2/1/3 59/14/3 3/14/3
f 4/15/4 59/14/4 60/15/4
f 4/15/5 61/16/5 5/16/5
f 6/17/6 63/18/6 7/18/6
f 7/18/7 64/19/7 8/19/7
f 8/19/8 65/20/8 9/20/8
f 9/20/9 66/21/9 10/21/9
f 10/21/10 67/22/10 11/22/10
f 11/22/11 68/23/11 12/23/11
f 13/24/12 70/25/12 14/25/12
f 14/25/13 71/26/13 15/26/13
f 15/26/14 72/27/14 16/27/14
f 17/28/15 72/27/15 73/28/15
f 17/28/16 74/29/16 18/29/16
f 18/29/17 75/30/17 19/30/17
f 19/30/18 76/31/18 20/31/18
f 20/31/19 77/32/19 21/32/19
f 21/32/20 78/33/20 22/33/20
f 22/33/21 79/34/21 23/34/21
f 24/35/22 79/34/22 80/35/22
f 24/35/23 81/36/23 25/36/23
f 25/36/24 82/37/24 26/37/24
f 26/37/25 83/38/25 27/38/25
f 27/38/26 84/39/26 28/39/26
f 28/39/27 85/40/27 29/40/27
f 29/40/28 86/41/28 30/41/28
f 30/41/29 87/42/29 31/42/29
f 31/42/30 88/43/30 32/43/30
f 33/2/31 88/43/31 89/2/31
f 33/2/32 90/44/32 34/44/32
f 34/44/33 91/3/33 35/3/33
f 35/3/34 92/45/34 36/45/34
f 37/46/35 94/47/35 38/47/35
f 39/6/36 93/46/36 37/46/36
f 40/48/37 95/6/37 39/6/37
f 41/5/38 96/48/38 40/48/38
f 42/49/39 97/5/39 41/5/39
f 43/4/40 98/49/40 42/49/40
f 38/47/41 99/4/41 43/4/41
f 44/11/42 101/50/42 45/50/42
f 46/51/43 100/11/43 44/11/43
f 47/10/44 102/51/44 46/51/44
f 48/52/45 103/10/45 47/10/45
f 49/7/46 104/52/46 48/52/46
f 50/53/47 105/7/47 49/7/47
f 45/50/48 106/53/48 50/53/48
f 12/23/49 69/24/49 13/24/49
f 5/16/50 62/17/50 6/17/50
f 36/45/51 57/13/51 1/13/51
f 51/9/52 108/54/52 52/54/52
f 52/54/53 109/12/53 53/12/53
f 53/12/54 110/55/54 54/55/54
f 54/55/55 111/56/55 55/56/55
f 55/56/56 112/8/56 56/8/56
f 56/8/57 107/9/57 51/9/57
f 122/57/58 116/58/58 113/59/58
f 116/58/59 115/60/59 113/59/59
f 117/61/60 118/62/60 116/58/60
f 118/62/61 119/63/61 121/64/61
f 120/65/60 117/61/60 122/57/60
f 121/64/62 122/57/62 114/66/62
f 8/19/1 9/20/1 10/21/1
f 10/21/1 11/22/1 12/23/1
f 12/23/1 13/24/1 14/25/1
f 15/26/1 16/27/1 17/28/1
f 12/23/1 14/25/1 15/26/1
f 8/19/1 10/21/1 12/23/1
f 7/18/1 8/19/1 12/23/1
f 15/26/1 17/28/1 18/29/1
f 7/18/1 12/23/1 15/26/1
f 6/17/1 7/18/1 15/26/1
f 6/17/1 15/26/1 18/29/1
f 5/16/1 6/17/1 18/29/1
f 5/16/1 18/29/1 19/30/1
f 4/15/1 5/16/1 19/30/1
f 4/15/1 19/30/1 20/31/1
f 3/14/1 4/15/1 20/31/1
f 21/32/1 22/33/1 23/34/1
f 20/31/1 21/32/1 23/34/1
f 24/35/1 25/36/1 26/37/1
f 20/31/1 23/34/1 24/35/1
f 20/31/1 24/35/1 26/37/1
f 27/38/1 28/39/1 29/40/1
f 20/31/1 26/37/1 27/38/1
f 20/31/1 27/38/1 29/40/1
f 30/41/1 31/42/1 32/43/1
f 20/31/1 29/40/1 30/41/1
f 3/14/1 20/31/1 30/41/1
f 3/14/1 30/41/1 32/43/1
f 36/45/1 1/13/1 2/1/1
f 2/1/1 3/14/1 32/43/1
f 33/2/1 34/44/1 35/3/1
f 2/1/1 32/43/1 33/2/1
f 35/3/1 36/45/1 2/1/1
f 37/46/1 38/47/1 43/4/1
f 43/4/1 42/49/1 41/5/1
f 41/5/1 40/48/1 39/6/1
f 39/6/1 37/46/1 43/4/1
f 51/9/1 45/50/1 50/53/1
f 49/7/1 48/52/1 54/55/1
f 49/7/1 54/55/1 55/56/1
f 51/9/1 50/53/1 49/7/1
f 49/7/1 55/56/1 56/8/1
f 54/55/1 48/52/1 47/10/1
f 47/10/1 46/51/1 44/11/1
f 44/11/1 45/50/1 51/9/1
f 44/11/1 51/9/1 52/54/1
f 53/12/1 54/55/1 47/10/1
f 44/11/1 52/54/1 53/12/1
f 1/13/2 57/13/2 58/1/2
f 2/1/3 58/1/3 59/14/3
f 4/15/4 3/14/4 59/14/4
f 4/15/5 60/15/5 61/16/5
f 6/17/6 62/17/6 63/18/6
f 7/18/7 63/18/7 64/19/7
f 8/19/8 64/19/8 65/20/8
f 9/20/9 65/20/9 66/21/9
f 10/21/10 66/21/10 67/22/10
f 11/22/11 67/22/11 68/23/11
f 13/24/12 69/24/12 70/25/12
f 14/25/13 70/25/13 71/26/13
f 15/26/14 71/26/14 72/27/14
f 17/28/15 16/27/15 72/27/15
f 17/28/16 73/28/16 74/29/16
f 18/29/17 74/29/17 75/30/17
f 19/30/18 75/30/18 76/31/18
f 20/31/19 76/31/19 77/32/19
f 21/32/20 77/32/20 78/33/20
f 22/33/21 78/33/21 79/34/21
f 24/35/22 23/34/22 79/34/22
f 24/35/63 80/35/63 81/36/63
f 25/36/24 81/36/24 82/37/24
f 26/37/25 82/37/25 83/38/25
f 27/38/26 83/38/26 84/39/26
f 28/39/27 84/39/27 85/40/27
f 29/40/28 85/40/28 86/41/28
f 30/41/29 86/41/29 87/42/29
f 31/42/30 87/42/30 88/43/30
f 33/2/31 32/43/31 88/43/31
f 33/2/32 89/2/32 90/44/32
f 34/44/33 90/44/33 91/3/33
f 35/3/34 91/3/34 92/45/34
f 37/46/35 93/46/35 94/47/35
f 39/6/36 95/6/36 93/46/36
f 40/48/37 96/48/37 95/6/37
f 41/5/38 97/5/38 96/48/38
f 42/49/39 98/49/39 97/5/39
f 43/4/40 99/4/40 98/49/40
f 38/47/41 94/47/41 99/4/41
f 44/11/42 100/11/42 101/50/42
f 46/51/43 102/51/43 100/11/43
f 47/10/44 103/10/44 102/51/44
f 48/52/45 104/52/45 103/10/45
f 49/7/46 105/7/46 104/52/46
f 50/53/47 106/53/47 105/7/47
f 45/50/48 101/50/48 106/53/48
f 12/23/49 68/23/49 69/24/49
f 5/16/50 61/16/50 62/17/50
f 36/45/51 92/45/51 57/13/51
f 51/9/52 107/9/52 108/54/52
f 52/54/53 108/54/53 109/12/53
f 53/12/54 109/12/54 110/55/54
f 54/55/55 110/55/55 111/56/55
f 55/56/56 111/56/56 112/8/56
f 56/8/57 112/8/57 107/9/57
f 113/59/58 114/66/58 122/57/58
f 122/57/64 117/61/64 116/58/64
f 116/58/59 118/62/59 115/60/59
f 117/61/60 119/63/60 118/62/60
f 121/64/61 115/60/61 118/62/61
f 119/63/61 120/65/61 121/64/61
f 120/65/60 119/63/60 117/61/60
f 121/64/62 120/65/62 122/57/62
