mtllib glyphs.mtl
# Blender 5.0.1
# www.blender.org
o 006
v 0.087208 1.027346 -0.303833
v 0.084527 1.027320 -0.301831
v 0.089480 1.027515 -0.306375
v 0.112619 1.024167 -0.303086
v 0.116049 1.024352 -0.306525
v 0.124301 1.025195 -0.317077
v 0.129945 1.025786 -0.324376
v 0.123108 1.031782 -0.354176
v 0.112481 1.032320 -0.349929
v 0.103170 1.032648 -0.345383
v 0.098457 1.032857 -0.343331
v 0.088962 1.034489 -0.346165
v 0.079545 1.036145 -0.349194
v 0.080159 1.035449 -0.345610
v 0.080809 1.034778 -0.342198
v 0.079207 1.034554 -0.339802
v 0.077507 1.034266 -0.336967
v 0.081934 1.033542 -0.335861
v 0.099847 1.030998 -0.333589
v 0.106343 1.030831 -0.337115
v 0.113828 1.030652 -0.341256
v 0.115508 1.030600 -0.342117
v 0.112047 1.028340 -0.326715
v 0.108586 1.026080 -0.311313
v 0.107299 1.026280 -0.311575
v 0.087697 1.029006 -0.313727
v 0.083122 1.029524 -0.313547
v 0.079120 1.029594 -0.311185
v 0.074332 1.029398 -0.306749
v 0.079382 1.028369 -0.304318
v 0.115370 1.025991 -0.315488
v 0.116573 1.026859 -0.321318
v 0.119162 1.028549 -0.332835
v 0.120554 1.029376 -0.338557
v 0.121835 1.028104 -0.332119
v 0.123150 1.026827 -0.325674
v 0.089536 1.033357 -0.340047
v 0.084110 1.033867 -0.339235
v 0.084265 1.034297 -0.341816
v 0.084835 1.034669 -0.344350
v 0.087159 1.034051 -0.342398
v 0.086650 1.022694 -0.304641
v 0.083968 1.022669 -0.302639
v 0.088922 1.022863 -0.307183
v 0.112061 1.019515 -0.303894
v 0.115491 1.019701 -0.307333
v 0.123743 1.020544 -0.317885
v 0.129386 1.021134 -0.325183
v 0.122550 1.027131 -0.354984
v 0.111923 1.027668 -0.350737
v 0.102612 1.027996 -0.346191
v 0.097899 1.028205 -0.344139
v 0.088404 1.029837 -0.346973
v 0.078987 1.031493 -0.350002
v 0.079600 1.030797 -0.346418
v 0.080250 1.030126 -0.343006
v 0.078649 1.029902 -0.340610
v 0.076949 1.029614 -0.337775
v 0.081376 1.028891 -0.336669
v 0.099288 1.026346 -0.334397
v 0.105785 1.026179 -0.337923
v 0.113269 1.026000 -0.342064
v 0.114950 1.025948 -0.342925
v 0.111489 1.023688 -0.327523
v 0.108028 1.021428 -0.312121
v 0.106741 1.021628 -0.312383
v 0.087139 1.024354 -0.314535
v 0.082563 1.024872 -0.314355
v 0.078561 1.024942 -0.311993
v 0.073773 1.024746 -0.307557
v 0.078824 1.023718 -0.305126
v 0.114812 1.021339 -0.316296
v 0.116015 1.022208 -0.322126
v 0.118604 1.023897 -0.333643
v 0.119996 1.024724 -0.339365
v 0.121277 1.023452 -0.332927
v 0.122592 1.022175 -0.326482
v 0.088978 1.028705 -0.340854
v 0.083552 1.029216 -0.340043
v 0.083707 1.029645 -0.342624
v 0.084277 1.030017 -0.345158
v 0.086601 1.029399 -0.343206
v 0.175709 1.017752 -0.372187
v 0.064494 1.036842 -0.405253
v 0.124152 1.006752 -0.267246
v 0.176430 1.023629 -0.371217
v 0.120822 1.033174 -0.387750
v 0.124873 1.012629 -0.266276
v 0.085787 1.019338 -0.277897
v 0.046701 1.026047 -0.289517
v 0.045981 1.020170 -0.290487
v 0.065214 1.042719 -0.404283
vn 0.1174 0.9784 0.1700
vn 0.5866 -0.2064 0.7832
vn 0.7370 -0.2006 0.6455
vn -0.1604 -0.1502 0.9756
vn 0.6987 -0.2030 0.6860
vn 0.7799 -0.1968 0.5941
vn 0.7833 -0.1965 0.5898
vn 0.9685 -0.0750 -0.2373
vn -0.3547 0.2012 -0.9131
vn -0.4237 0.2041 -0.8825
vn -0.3832 0.2025 -0.9012
vn 0.3037 0.1276 -0.9442
vn 0.3236 0.1241 -0.9380
vn -0.9792 0.0855 0.1842
vn -0.9760 0.0820 0.2020
vn -0.8241 0.1915 -0.5331
vn -0.8507 0.1874 -0.4911
vn -0.2607 -0.1348 0.9560
vn -0.1456 -0.1523 0.9775
vn 0.4628 -0.2053 0.8624
vn 0.4700 -0.2055 0.8584
vn 0.4412 -0.2047 0.8738
vn -0.9691 0.1503 -0.1957
vn 0.2181 0.1416 -0.9656
vn 0.1291 0.1546 -0.9795
vn -0.0192 0.1733 -0.9847
vn -0.4947 0.2060 -0.8443
vn -0.6698 0.2044 -0.7139
vn -0.4480 -0.1005 0.8884
vn -0.4495 -0.1002 0.8876
vn 0.9727 -0.1478 0.1788
vn 0.9691 -0.1503 0.1958
vn 0.9651 -0.1528 0.2127
vn -0.9744 0.0805 0.2098
vn -0.9735 0.0796 0.2145
vn -0.7870 0.1961 -0.5850
vn -0.1283 0.1847 -0.9744
vn 0.9913 -0.1257 0.0386
vn 0.9690 -0.1503 0.1960
vn -0.6507 -0.0535 0.7574
vn -0.7082 -0.0375 0.7050
vn 0.3017 0.1191 -0.9459
vn 0.8904 -0.1783 0.4188
vn 0.1201 0.9795 0.1617
vn -0.3017 -0.1191 0.9459
vn -0.9802 0.1428 -0.1374
vt 0.911980 0.957397
vt 0.907886 0.920092
vt 0.915882 0.929921
vt 0.974275 0.903780
vt 0.965044 0.932941
vt 0.957468 0.918540
vt 0.961019 0.967320
vt 0.954992 0.964022
vt 0.959421 0.960515
vt 0.906344 0.964960
vt 0.908746 0.960928
vt 0.903569 0.925369
vt 0.921504 0.907094
vt 0.930933 0.898193
vt 0.969978 0.919263
vt 0.962901 0.939831
vt 0.968456 0.952775
vt 0.974275 0.965582
vt 0.969096 0.965203
vt 0.964154 0.964750
vt 0.957276 0.970087
vt 0.948868 0.939191
vt 0.952813 0.929600
vt 0.958416 0.916066
vt 0.937149 0.922993
vt 0.916461 0.931692
vt 0.922689 0.958911
vt 0.923175 0.965356
vt 0.920476 0.971290
vt 0.914966 0.978605
vt 0.910702 0.971844
vt 0.920700 0.919841
vt 0.928767 0.917368
vt 0.944670 0.912186
vt 0.952552 0.909464
vt 0.943221 0.908532
vt 0.933875 0.907552
vt 0.959691 0.952792
vt 0.963053 0.959950
vt 0.966552 0.958809
vt 0.963409 0.955812
vt 0.124849 0.500602
vt 0.156250 0.500000
vt 0.189254 0.503933
vt 0.187651 0.500602
vt 0.180000 0.370651
vt 0.178376 0.374864
vt 0.156250 0.375000
vt 0.132500 0.370651
vt 0.134124 0.374864
vt 0.123246 0.503933
s 0
usemtl Material.003
f 3/1/1 5/2/1 24/3/1
f 8/4/1 10/5/1 21/6/1
f 16/7/1 18/8/1 38/9/1
f 2/10/2 42/11/2 1/11/2
f 1/11/3 44/1/3 3/1/3
f 3/1/4 45/12/4 4/12/4
f 4/12/5 46/2/5 5/2/5
f 5/2/6 47/13/6 6/13/6
f 6/13/7 48/14/7 7/14/7
f 7/14/8 49/4/8 8/4/8
f 8/4/9 50/15/9 9/15/9
f 9/15/10 51/5/10 10/5/10
f 10/5/11 52/16/11 11/16/11
f 11/16/12 53/17/12 12/17/12
f 12/17/13 54/18/13 13/18/13
f 13/18/14 55/19/14 14/19/14
f 15/20/15 55/19/15 56/20/15
f 15/20/16 57/7/16 16/7/16
f 16/7/17 58/21/17 17/21/17
f 17/21/18 59/8/18 18/8/18
f 18/8/19 60/22/19 19/22/19
f 19/22/20 61/23/20 20/23/20
f 20/23/21 62/6/21 21/6/21
f 21/6/22 63/24/22 22/24/22
f 22/24/23 64/25/23 23/25/23
f 23/25/23 65/3/23 24/3/23
f 24/3/24 66/26/24 25/26/24
f 25/26/25 67/27/25 26/27/25
f 26/27/26 68/28/26 27/28/26
f 27/28/27 69/29/27 28/29/27
f 28/29/28 70/30/28 29/30/28
f 29/30/29 71/31/29 30/31/29
f 30/31/30 43/10/30 2/10/30
f 31/32/31 73/33/31 32/33/31
f 32/33/32 74/34/32 33/34/32
f 33/34/33 75/35/33 34/35/33
f 34/35/34 76/36/34 35/36/34
f 35/36/35 77/37/35 36/37/35
f 36/37/36 72/32/36 31/32/36
f 37/38/37 79/9/37 38/9/37
f 38/9/38 80/39/38 39/39/38
f 39/39/39 81/40/39 40/40/39
f 40/40/40 82/41/40 41/41/40
f 41/41/41 78/38/41 37/38/41
f 92/42/42 87/43/42 83/44/42
f 86/45/43 85/46/43 83/44/43
f 87/43/44 88/47/44 86/45/44
f 88/47/45 89/48/45 91/49/45
f 90/50/44 87/43/44 92/42/44
f 91/49/46 92/42/46 84/51/46
f 30/31/1 2/10/1 1/11/1
f 3/1/1 4/12/1 5/2/1
f 30/31/1 1/11/1 3/1/1
f 28/29/1 29/30/1 30/31/1
f 26/27/1 27/28/1 28/29/1
f 24/3/1 25/26/1 26/27/1
f 32/33/1 23/25/1 24/3/1
f 7/14/1 36/37/1 31/32/1
f 31/32/1 32/33/1 24/3/1
f 24/3/1 26/27/1 28/29/1
f 28/29/1 30/31/1 3/1/1
f 5/2/1 6/13/1 7/14/1
f 7/14/1 31/32/1 24/3/1
f 24/3/1 28/29/1 3/1/1
f 5/2/1 7/14/1 24/3/1
f 36/37/1 7/14/1 8/4/1
f 8/4/1 9/15/1 10/5/1
f 35/36/1 36/37/1 8/4/1
f 34/35/1 35/36/1 8/4/1
f 33/34/1 34/35/1 8/4/1
f 23/25/1 32/33/1 33/34/1
f 22/24/1 23/25/1 33/34/1
f 12/17/1 13/18/1 14/19/1
f 14/19/1 15/20/1 39/39/1
f 14/19/1 39/39/1 40/40/1
f 11/16/1 12/17/1 14/19/1
f 11/16/1 14/19/1 40/40/1
f 41/41/1 37/38/1 19/22/1
f 11/16/1 40/40/1 41/41/1
f 11/16/1 41/41/1 19/22/1
f 19/22/1 20/23/1 21/6/1
f 22/24/1 33/34/1 8/4/1
f 11/16/1 19/22/1 21/6/1
f 21/6/1 22/24/1 8/4/1
f 10/5/1 11/16/1 21/6/1
f 39/39/1 15/20/1 16/7/1
f 16/7/1 17/21/1 18/8/1
f 18/8/1 19/22/1 37/38/1
f 38/9/1 39/39/1 16/7/1
f 18/8/1 37/38/1 38/9/1
f 2/10/2 43/10/2 42/11/2
f 1/11/3 42/11/3 44/1/3
f 3/1/4 44/1/4 45/12/4
f 4/12/5 45/12/5 46/2/5
f 5/2/6 46/2/6 47/13/6
f 6/13/7 47/13/7 48/14/7
f 7/14/8 48/14/8 49/4/8
f 8/4/9 49/4/9 50/15/9
f 9/15/10 50/15/10 51/5/10
f 10/5/11 51/5/11 52/16/11
f 11/16/12 52/16/12 53/17/12
f 12/17/13 53/17/13 54/18/13
f 13/18/14 54/18/14 55/19/14
f 15/20/15 14/19/15 55/19/15
f 15/20/16 56/20/16 57/7/16
f 16/7/17 57/7/17 58/21/17
f 17/21/18 58/21/18 59/8/18
f 18/8/19 59/8/19 60/22/19
f 19/22/20 60/22/20 61/23/20
f 20/23/21 61/23/21 62/6/21
f 21/6/22 62/6/22 63/24/22
f 22/24/23 63/24/23 64/25/23
f 23/25/23 64/25/23 65/3/23
f 24/3/24 65/3/24 66/26/24
f 25/26/25 66/26/25 67/27/25
f 26/27/26 67/27/26 68/28/26
f 27/28/27 68/28/27 69/29/27
f 28/29/28 69/29/28 70/30/28
f 29/30/29 70/30/29 71/31/29
f 30/31/30 71/31/30 43/10/30
f 31/32/31 72/32/31 73/33/31
f 32/33/32 73/33/32 74/34/32
f 33/34/33 74/34/33 75/35/33
f 34/35/34 75/35/34 76/36/34
f 35/36/35 76/36/35 77/37/35
f 36/37/36 77/37/36 72/32/36
f 37/38/37 78/38/37 79/9/37
f 38/9/38 79/9/38 80/39/38
f 39/39/39 80/39/39 81/40/39
f 40/40/40 81/40/40 82/41/40
f 41/41/41 82/41/41 78/38/41
f 83/44/42 84/51/42 92/42/42
f 87/43/42 86/45/42 83/44/42
f 86/45/43 88/47/43 85/46/43
f 87/43/44 89/48/44 88/47/44
f 91/49/45 85/46/45 88/47/45
f 89/48/45 90/50/45 91/49/45
f 90/50/44 89/48/44 87/43/44
f 91/49/46 90/50/46 92/42/46
