mtllib glyphs.mtl
# Blender 5.0.1
# www.blender.org
o 008
v -0.127941 0.874184 0.058104
v -0.137998 0.872006 0.057262
v -0.128415 0.872063 0.060342
v -0.134894 0.859733 0.072125
v -0.136899 0.858710 0.072621
v -0.142592 0.863567 0.065274
v -0.147879 0.868999 0.057413
v -0.147558 0.869579 0.056864
v -0.147727 0.847245 0.082002
v -0.157909 0.845521 0.080606
v -0.147375 0.846881 0.082528
v -0.151354 0.840586 0.088324
v -0.156173 0.834221 0.093922
v -0.162615 0.838187 0.087335
v -0.167936 0.843366 0.079748
v -0.133175 0.870036 0.061067
v -0.134994 0.866534 0.064420
v -0.136863 0.863272 0.067486
v -0.140602 0.867190 0.061841
v -0.141494 0.868214 0.060393
v -0.137654 0.869209 0.060530
v -0.153001 0.843641 0.084337
v -0.154944 0.840728 0.086986
v -0.156884 0.837892 0.089548
v -0.159254 0.839947 0.086453
v -0.161424 0.842126 0.083283
v -0.127122 0.871369 0.055608
v -0.137179 0.869191 0.054766
v -0.127596 0.869247 0.057846
v -0.134076 0.856918 0.069628
v -0.136080 0.855894 0.070125
v -0.141773 0.860752 0.062778
v -0.147060 0.866183 0.054917
v -0.146739 0.866763 0.054368
v -0.146908 0.844429 0.079506
v -0.157091 0.842706 0.078110
v -0.146556 0.844065 0.080032
v -0.150536 0.837770 0.085828
v -0.155355 0.831405 0.091426
v -0.161796 0.835371 0.084839
v -0.167117 0.840550 0.077252
v -0.132356 0.867220 0.058571
v -0.134176 0.863718 0.061924
v -0.136044 0.860457 0.064990
v -0.139783 0.864374 0.059344
v -0.140675 0.865398 0.057897
v -0.136835 0.866394 0.058034
v -0.152182 0.840825 0.081841
v -0.154125 0.837912 0.084489
v -0.156066 0.835076 0.087052
v -0.158435 0.837131 0.083957
v -0.160605 0.839310 0.080787
v -0.210186 0.831829 0.064128
v -0.156946 0.802912 0.114213
v -0.115667 0.892329 0.026995
v -0.211464 0.836214 0.068018
v -0.184844 0.821756 0.093061
v -0.116946 0.896714 0.030886
v -0.102585 0.888914 0.044396
v -0.088225 0.881114 0.057905
v -0.086946 0.876729 0.054015
v -0.158224 0.807297 0.118104
vn -0.2126 0.7312 0.6482
vn -0.0771 0.6487 -0.7571
vn 0.9653 0.0541 0.2556
vn 0.9103 -0.0929 0.4034
vn 0.4454 -0.5179 0.7303
vn -0.8125 -0.5008 0.2984
vn -0.8487 -0.4669 0.2482
vn -0.9031 0.1062 -0.4161
vn -0.1299 0.6363 -0.7604
vn -0.0092 0.6618 -0.7496
vn 0.8502 0.4654 -0.2461
vn 0.8815 -0.1427 0.4502
vn 0.8429 -0.1983 0.5002
vn -0.7365 -0.5559 0.3855
vn -0.8388 -0.4769 0.2628
vn -0.0748 0.6492 -0.7569
vn -0.9118 0.0900 -0.4007
vn -0.8980 0.1152 -0.4246
vn 0.8523 0.4633 -0.2430
vn 0.8676 0.4465 -0.2190
vn 0.1375 -0.6344 0.7607
vn 0.0312 -0.6579 0.7524
vn -0.8712 0.1585 -0.4646
vn -0.8659 0.1663 -0.4717
vn 0.8159 0.4979 -0.2940
vn 0.8446 0.4711 -0.2543
vn 0.0246 -0.6591 0.7516
vn -0.7042 -0.5749 0.4166
vn -0.5615 0.4516 -0.6934
vn -0.2131 0.7308 0.6484
vn 0.7042 0.5749 -0.4166
vn 0.7771 -0.2755 0.5658
vt 0.956483 0.955497
vt 0.948967 0.945664
vt 0.949021 0.938790
vt 0.955214 0.940937
vt 0.922629 0.955299
vt 0.942220 0.940281
vt 0.940352 0.935198
vt 0.922692 0.937388
vt 0.950333 0.922095
vt 0.929076 0.939995
vt 0.924002 0.922132
vt 0.955511 0.920554
vt 0.956483 0.938404
vt 0.921361 0.941150
vt 0.937668 0.949141
vt 0.955193 0.956245
vt 0.925096 0.921499
vt 0.940576 0.930773
vt 0.922629 0.938415
vt 0.939098 0.949780
vt 0.948217 0.930890
vt 0.933141 0.939505
vt 0.945733 0.944502
vt 0.929535 0.932407
vt 0.928716 0.947410
vt 0.935560 0.944038
vt 0.219037 0.688178
vt 0.250000 0.687500
vt 0.283323 0.693128
vt 0.280963 0.688178
vt 0.268862 0.493734
vt 0.266464 0.499987
vt 0.250000 0.500000
vt 0.231138 0.493734
vt 0.233536 0.499987
vt 0.216677 0.693128
s 0
usemtl Material.003
f 8/1/1 20/2/1 21/3/1
f 15/4/1 13/5/1 26/6/1
f 17/7/1 4/8/1 3/9/1
f 23/10/1 13/5/1 11/11/1
f 1/12/2 28/13/2 2/13/2
f 3/9/3 27/12/3 1/12/3
f 3/9/4 30/8/4 29/9/4
f 5/14/5 30/8/5 4/8/5
f 6/15/6 31/14/6 5/14/6
f 7/16/7 32/15/7 6/15/7
f 8/1/8 33/16/8 7/16/8
f 8/1/9 28/13/9 34/1/9
f 9/17/10 36/18/10 10/18/10
f 11/11/11 35/17/11 9/17/11
f 12/19/12 37/11/12 11/11/12
f 12/19/13 39/5/13 38/19/13
f 14/20/14 39/5/14 13/5/14
f 15/4/15 40/20/15 14/20/15
f 10/18/16 41/4/16 15/4/16
f 16/21/17 43/7/17 17/7/17
f 17/7/18 44/22/18 18/22/18
f 18/22/19 45/23/19 19/23/19
f 19/23/20 46/2/20 20/2/20
f 20/2/21 47/3/21 21/3/21
f 21/3/22 42/21/22 16/21/22
f 22/24/23 49/10/23 23/10/23
f 23/10/24 50/25/24 24/25/24
f 24/25/25 51/26/25 25/26/25
f 25/26/26 52/6/26 26/6/26
f 22/24/27 52/6/27 48/24/27
f 62/27/28 57/28/28 53/29/28
f 56/30/29 55/31/29 53/29/29
f 57/28/30 58/32/30 56/30/30
f 58/32/31 59/33/31 61/34/31
f 60/35/30 57/28/30 62/27/30
f 61/34/32 62/27/32 54/36/32
f 1/12/1 2/13/1 8/1/1
f 8/1/1 7/16/1 6/15/1
f 6/15/1 5/14/1 4/8/1
f 4/8/1 18/22/1 19/23/1
f 4/8/1 19/23/1 20/2/1
f 8/1/1 6/15/1 4/8/1
f 16/21/1 1/12/1 8/1/1
f 21/3/1 16/21/1 8/1/1
f 8/1/1 4/8/1 20/2/1
f 9/17/1 10/18/1 15/4/1
f 15/4/1 14/20/1 13/5/1
f 13/5/1 24/25/1 25/26/1
f 26/6/1 22/24/1 9/17/1
f 13/5/1 25/26/1 26/6/1
f 26/6/1 9/17/1 15/4/1
f 3/9/1 1/12/1 16/21/1
f 17/7/1 18/22/1 4/8/1
f 3/9/1 16/21/1 17/7/1
f 11/11/1 9/17/1 22/24/1
f 23/10/1 24/25/1 13/5/1
f 11/11/1 22/24/1 23/10/1
f 13/5/1 12/19/1 11/11/1
f 1/12/2 27/12/2 28/13/2
f 3/9/3 29/9/3 27/12/3
f 3/9/4 4/8/4 30/8/4
f 5/14/5 31/14/5 30/8/5
f 6/15/6 32/15/6 31/14/6
f 7/16/7 33/16/7 32/15/7
f 8/1/8 34/1/8 33/16/8
f 8/1/9 2/13/9 28/13/9
f 9/17/10 35/17/10 36/18/10
f 11/11/11 37/11/11 35/17/11
f 12/19/12 38/19/12 37/11/12
f 12/19/13 13/5/13 39/5/13
f 14/20/14 40/20/14 39/5/14
f 15/4/15 41/4/15 40/20/15
f 10/18/16 36/18/16 41/4/16
f 16/21/17 42/21/17 43/7/17
f 17/7/18 43/7/18 44/22/18
f 18/22/19 44/22/19 45/23/19
f 19/23/20 45/23/20 46/2/20
f 20/2/21 46/2/21 47/3/21
f 21/3/22 47/3/22 42/21/22
f 22/24/23 48/24/23 49/10/23
f 23/10/24 49/10/24 50/25/24
f 24/25/25 50/25/25 51/26/25
f 25/26/26 51/26/26 52/6/26
f 22/24/27 26/6/27 52/6/27
f 53/29/28 54/36/28 62/27/28
f 57/28/28 56/30/28 53/29/28
f 56/30/29 58/32/29 55/31/29
f 57/28/30 59/33/30 58/32/30
f 61/34/31 55/31/31 58/32/31
f 59/33/31 60/35/31 61/34/31
f 60/35/30 59/33/30 57/28/30
f 61/34/32 60/35/32 62/27/32
