mtllib glyphs.mtl
# Blender 5.0.1
# www.blender.org
o 009
v -0.215226 0.779512 0.116268
v -0.217789 0.777923 0.116868
v -0.213099 0.777885 0.118745
v -0.207062 0.772451 0.126601
v -0.202055 0.768233 0.132824
v -0.204436 0.765804 0.134344
v -0.213475 0.757630 0.139053
v -0.216982 0.757720 0.137586
v -0.220091 0.757704 0.136383
v -0.223564 0.756173 0.136566
v -0.227590 0.754994 0.136178
v -0.225990 0.759222 0.132536
v -0.223680 0.763305 0.129319
v -0.219927 0.763185 0.130912
v -0.215810 0.762818 0.132898
v -0.212072 0.766190 0.130959
v -0.211278 0.767082 0.130369
v -0.214435 0.769559 0.126630
v -0.217593 0.772037 0.122889
v -0.220340 0.770221 0.123645
v -0.231305 0.764094 0.125531
v -0.241295 0.760427 0.125316
v -0.243271 0.759849 0.125124
v -0.244008 0.759731 0.124954
v -0.247192 0.759448 0.123991
v -0.249962 0.759166 0.123189
v -0.254323 0.759353 0.121290
v -0.254563 0.759419 0.121129
v -0.255960 0.759819 0.120177
v -0.263017 0.762246 0.114958
v -0.264771 0.763050 0.113458
v -0.267716 0.760205 0.115176
v -0.271624 0.756434 0.117451
v -0.272679 0.755501 0.117979
v -0.276774 0.758717 0.113126
v -0.280583 0.762114 0.108201
v -0.275171 0.764744 0.107668
v -0.269129 0.767658 0.107095
v -0.259846 0.773514 0.104823
v -0.256280 0.776118 0.103592
v -0.254946 0.779084 0.101120
v -0.253020 0.781788 0.099145
v -0.247968 0.777208 0.105752
v -0.243435 0.772915 0.111865
v -0.247911 0.772743 0.110283
v -0.252407 0.772587 0.108677
v -0.255576 0.770244 0.109800
v -0.258361 0.767798 0.111178
v -0.255389 0.766454 0.113701
v -0.248119 0.765016 0.118004
v -0.241467 0.765476 0.120150
v -0.232081 0.769490 0.119777
v -0.229633 0.770842 0.119372
v -0.213961 0.776256 0.113044
v -0.216524 0.774667 0.113643
v -0.211834 0.774629 0.115521
v -0.205797 0.769195 0.123377
v -0.200790 0.764977 0.129600
v -0.203171 0.762548 0.131119
v -0.212210 0.754374 0.135828
v -0.215717 0.754463 0.134362
v -0.218826 0.754448 0.133158
v -0.222299 0.752917 0.133342
v -0.226325 0.751738 0.132953
v -0.224725 0.755966 0.129312
v -0.222415 0.760049 0.126094
v -0.218662 0.759929 0.127687
v -0.214545 0.759561 0.129674
v -0.210807 0.762934 0.127734
v -0.210013 0.763826 0.127145
v -0.213170 0.766303 0.123405
v -0.216328 0.768781 0.119664
v -0.219075 0.766965 0.120420
v -0.230040 0.760838 0.122306
v -0.240030 0.757170 0.122091
v -0.242006 0.756593 0.121900
v -0.242743 0.756475 0.121730
v -0.245927 0.756192 0.120767
v -0.248697 0.755910 0.119965
v -0.253059 0.756097 0.118065
v -0.253298 0.756163 0.117904
v -0.254696 0.756563 0.116952
v -0.261752 0.758990 0.111733
v -0.263507 0.759794 0.110233
v -0.266452 0.756949 0.111951
v -0.270359 0.753177 0.114227
v -0.271414 0.752245 0.114755
v -0.275509 0.755461 0.109901
v -0.279318 0.758858 0.104976
v -0.273906 0.761487 0.104444
v -0.267865 0.764401 0.103871
v -0.258581 0.770257 0.101599
v -0.255015 0.772862 0.100367
v -0.253681 0.775827 0.097896
v -0.251755 0.778531 0.095921
v -0.246703 0.773951 0.102528
v -0.242170 0.769658 0.108641
v -0.246647 0.769486 0.107059
v -0.251142 0.769330 0.105453
v -0.254311 0.766988 0.106575
v -0.257096 0.764542 0.107953
v -0.254124 0.763197 0.110476
v -0.246854 0.761760 0.114780
v -0.240202 0.762219 0.116925
v -0.230816 0.766234 0.116553
v -0.228368 0.767586 0.116148
v -0.311953 0.748744 0.093747
v -0.232314 0.705489 0.168668
v -0.220738 0.816049 0.063062
v -0.313586 0.752821 0.097836
v -0.273766 0.731193 0.135296
v -0.222370 0.820125 0.067150
v -0.194381 0.804923 0.093481
v -0.166393 0.789721 0.119811
v -0.164760 0.785645 0.115722
v -0.233946 0.709565 0.172757
vn -0.2661 0.6850 0.6783
vn -0.4841 0.5135 -0.7085
vn 0.7676 0.5761 -0.2807
vn 0.8024 0.5473 -0.2380
vn 0.7886 0.5593 -0.2555
vn 0.7217 -0.3250 0.6112
vn 0.6713 -0.3733 0.6403
vn -0.2802 -0.7282 0.6255
vn -0.2440 -0.7286 0.6400
vn 0.3063 -0.6071 0.7332
vn 0.1266 -0.6727 0.7290
vn -0.9237 0.0200 -0.3826
vn -0.8742 0.1250 -0.4691
vn 0.2876 0.7280 -0.6224
vn 0.3510 0.7242 -0.5936
vn -0.6702 0.3743 -0.6409
vn -0.7575 0.2866 -0.5866
vn -0.7733 -0.5718 0.2741
vn -0.7733 -0.5717 0.2740
vn 0.5179 -0.4919 0.6999
vn 0.4289 -0.5461 0.7197
vn 0.2199 -0.6420 0.7345
vn 0.1260 -0.6729 0.7289
vn -0.0474 -0.7121 0.7005
vn -0.1401 -0.7236 0.6758
vn -0.1235 -0.7221 0.6807
vn -0.2999 -0.7275 0.6170
vn -0.5314 -0.6913 0.4896
vn -0.5734 -0.6781 0.4599
vn -0.6435 -0.6501 0.4041
vn 0.6996 -0.3468 0.6247
vn 0.6991 -0.3473 0.6250
vn 0.6610 -0.3825 0.6456
vn -0.7735 -0.5716 0.2739
vn -0.8005 -0.5490 0.2404
vn -0.3557 0.5842 -0.7295
vn -0.3519 0.5861 -0.7299
vn -0.4932 0.5078 -0.7063
vn -0.5693 0.4561 -0.6840
vn -0.9069 0.0606 -0.4170
vn -0.8251 0.2021 -0.5277
vn 0.8038 0.5460 -0.2361
vn 0.8125 0.5380 -0.2246
vn -0.2035 -0.7277 0.6550
vn -0.2082 -0.7279 0.6534
vn 0.5754 -0.4517 0.6819
vn 0.6584 -0.3849 0.6469
vn 0.6402 0.6516 -0.4069
vn 0.4577 0.7090 -0.5365
vn 0.1653 0.7256 -0.6679
vn -0.2916 0.6135 -0.7339
vn -0.4227 0.5495 -0.7207
vn -0.4648 0.5253 -0.7128
vn -0.5233 -0.6935 0.4951
vn -0.6836 -0.6349 0.3601
vn -0.5681 0.4582 -0.6836
vn -0.2721 0.6794 0.6815
vn 0.6836 0.6349 -0.3601
vn 0.7714 -0.2693 0.5765
vn -0.2662 0.6849 0.6783
vn -0.2688 0.6835 0.6787
vt 0.943852 0.923882
vt 0.941207 0.926833
vt 0.946402 0.906395
vt 0.960787 0.906900
vt 0.957684 0.909896
vt 0.957714 0.902811
vt 0.947423 0.890756
vt 0.939444 0.880915
vt 0.934735 0.883179
vt 0.918866 0.892343
vt 0.918963 0.897675
vt 0.918865 0.902351
vt 0.915855 0.906748
vt 0.913508 0.912171
vt 0.921649 0.912064
vt 0.929528 0.910808
vt 0.929379 0.905089
vt 0.928763 0.898687
vt 0.935310 0.894893
vt 0.937038 0.894182
vt 0.941719 0.900287
vt 0.942861 0.909543
vt 0.930877 0.922725
vt 0.923629 0.935777
vt 0.922479 0.938440
vt 0.922237 0.939485
vt 0.921625 0.944127
vt 0.921025 0.948147
vt 0.921289 0.954819
vt 0.922148 0.957539
vt 0.921411 0.955216
vt 0.926650 0.969491
vt 0.928154 0.972573
vt 0.922634 0.975460
vt 0.915319 0.979292
vt 0.913508 0.980374
vt 0.919585 0.988294
vt 0.926017 0.995883
vt 0.931176 0.989162
vt 0.936894 0.981648
vt 0.948323 0.970853
vt 0.953394 0.966899
vt 0.959109 0.966504
vt 0.964335 0.965076
vt 0.955662 0.954970
vt 0.947528 0.945803
vt 0.947102 0.952453
vt 0.946706 0.959141
vt 0.942146 0.962639
vt 0.937395 0.965501
vt 0.934882 0.960292
vt 0.932282 0.948557
vt 0.933307 0.938786
vt 0.124849 0.500602
vt 0.156250 0.500000
vt 0.189254 0.503933
vt 0.187651 0.500602
vt 0.180000 0.370651
vt 0.178376 0.374864
vt 0.156250 0.375000
vt 0.132500 0.370651
vt 0.134124 0.374864
vt 0.123246 0.503933
s 0
usemtl Material.003
f 53/1/1 52/2/1 19/3/1
f 1/4/2 55/5/2 2/5/2
f 3/6/3 54/4/3 1/4/3
f 3/6/4 57/7/4 56/6/4
f 5/8/5 57/7/5 4/7/5
f 6/9/6 58/8/6 5/8/6
f 6/9/7 60/10/7 59/9/7
f 8/11/8 60/10/8 7/10/8
f 9/12/9 61/11/9 8/11/9
f 10/13/10 62/12/10 9/12/10
f 11/14/11 63/13/11 10/13/11
f 12/15/12 64/14/12 11/14/12
f 13/16/13 65/15/13 12/15/13
f 14/17/14 66/16/14 13/16/14
f 15/18/15 67/17/15 14/17/15
f 16/19/16 68/18/16 15/18/16
f 17/20/17 69/19/17 16/19/17
f 18/21/18 70/20/18 17/20/18
f 19/3/19 71/21/19 18/21/19
f 20/22/20 72/3/20 19/3/20
f 21/23/21 73/22/21 20/22/21
f 22/24/22 74/23/22 21/23/22
f 23/25/23 75/24/23 22/24/23
f 24/26/24 76/25/24 23/25/24
f 25/27/25 77/26/25 24/26/25
f 26/28/26 78/27/26 25/27/26
f 27/29/27 79/28/27 26/28/27
f 29/30/28 81/31/28 28/31/28
f 30/32/29 82/30/29 29/30/29
f 31/33/30 83/32/30 30/32/30
f 32/34/31 84/33/31 31/33/31
f 33/35/32 85/34/32 32/34/32
f 34/36/33 86/35/33 33/35/33
f 35/37/34 87/36/34 34/36/34
f 36/38/35 88/37/35 35/37/35
f 37/39/36 89/38/36 36/38/36
f 38/40/37 90/39/37 37/39/37
f 39/41/38 91/40/38 38/40/38
f 40/42/39 92/41/39 39/41/39
f 41/43/40 93/42/40 40/42/40
f 42/44/41 94/43/41 41/43/41
f 42/44/42 96/45/42 95/44/42
f 44/46/43 96/45/43 43/45/43
f 45/47/44 97/46/44 44/46/44
f 46/48/45 98/47/45 45/47/45
f 47/49/46 99/48/46 46/48/46
f 48/50/47 100/49/47 47/49/47
f 49/51/48 101/50/48 48/50/48
f 49/51/49 103/52/49 102/51/49
f 51/53/50 103/52/50 50/52/50
f 52/2/51 104/53/51 51/53/51
f 53/1/52 105/2/52 52/2/52
f 2/5/53 106/1/53 53/1/53
f 28/31/54 80/29/54 27/29/54
f 116/54/55 111/55/55 107/56/55
f 110/57/56 109/58/56 107/56/56
f 111/55/57 112/59/57 110/57/57
f 112/59/58 113/60/58 115/61/58
f 114/62/57 111/55/57 116/54/57
f 115/61/59 116/54/59 108/63/59
f 46/48/1 45/47/1 44/46/1
f 44/46/1 43/45/1 42/44/1
f 42/44/1 41/43/1 40/42/1
f 44/46/1 42/44/1 40/42/1
f 46/48/1 44/46/1 40/42/1
f 46/48/1 40/42/1 39/41/1
f 47/49/1 46/48/1 39/41/1
f 38/40/1 37/39/1 36/38/1
f 47/49/1 39/41/1 38/40/1
f 48/50/1 47/49/1 38/40/1
f 38/40/1 36/38/1 35/37/1
f 35/37/1 34/36/1 33/35/1
f 33/35/1 32/34/1 31/33/1
f 31/33/1 30/32/1 29/30/1
f 29/30/60 28/31/60 27/29/60
f 27/29/1 26/28/1 25/27/1
f 25/27/1 24/26/1 23/25/1
f 23/25/1 22/24/1 21/23/1
f 21/23/1 20/22/1 19/3/1
f 19/3/61 18/21/61 17/20/61
f 23/25/1 21/23/1 19/3/1
f 27/29/1 25/27/1 23/25/1
f 31/33/1 29/30/1 27/29/1
f 35/37/1 33/35/1 31/33/1
f 48/50/1 38/40/1 35/37/1
f 49/51/1 48/50/1 35/37/1
f 31/33/1 27/29/1 23/25/1
f 49/51/1 35/37/1 31/33/1
f 50/52/1 49/51/1 31/33/1
f 15/18/1 14/17/1 13/16/1
f 13/16/1 12/15/1 11/14/1
f 11/14/1 10/13/1 9/12/1
f 8/11/1 7/10/1 6/9/1
f 13/16/1 11/14/1 9/12/1
f 9/12/1 8/11/1 6/9/1
f 6/9/1 5/8/1 4/7/1
f 4/7/1 3/6/1 1/4/1
f 4/7/1 1/4/1 2/5/1
f 15/18/1 13/16/1 9/12/1
f 16/19/1 15/18/1 9/12/1
f 6/9/1 4/7/1 2/5/1
f 16/19/1 9/12/1 6/9/1
f 17/20/1 16/19/1 6/9/1
f 51/53/1 50/52/1 31/33/1
f 19/3/1 17/20/1 6/9/1
f 51/53/1 31/33/1 23/25/1
f 19/3/1 6/9/1 2/5/1
f 51/53/1 23/25/1 19/3/1
f 52/2/1 51/53/1 19/3/1
f 19/3/1 2/5/1 53/1/1
f 1/4/2 54/4/2 55/5/2
f 3/6/3 56/6/3 54/4/3
f 3/6/4 4/7/4 57/7/4
f 5/8/5 58/8/5 57/7/5
f 6/9/6 59/9/6 58/8/6
f 6/9/7 7/10/7 60/10/7
f 8/11/8 61/11/8 60/10/8
f 9/12/9 62/12/9 61/11/9
f 10/13/10 63/13/10 62/12/10
f 11/14/11 64/14/11 63/13/11
f 12/15/12 65/15/12 64/14/12
f 13/16/13 66/16/13 65/15/13
f 14/17/14 67/17/14 66/16/14
f 15/18/15 68/18/15 67/17/15
f 16/19/16 69/19/16 68/18/16
f 17/20/17 70/20/17 69/19/17
f 18/21/18 71/21/18 70/20/18
f 19/3/19 72/3/19 71/21/19
f 20/22/20 73/22/20 72/3/20
f 21/23/21 74/23/21 73/22/21
f 22/24/22 75/24/22 74/23/22
f 23/25/23 76/25/23 75/24/23
f 24/26/24 77/26/24 76/25/24
f 25/27/25 78/27/25 77/26/25
f 26/28/26 79/28/26 78/27/26
f 27/29/27 80/29/27 79/28/27
f 29/30/28 82/30/28 81/31/28
f 30/32/29 83/32/29 82/30/29
f 31/33/30 84/33/30 83/32/30
f 32/34/31 85/34/31 84/33/31
f 33/35/32 86/35/32 85/34/32
f 34/36/33 87/36/33 86/35/33
f 35/37/34 88/37/34 87/36/34
f 36/38/35 89/38/35 88/37/35
f 37/39/36 90/39/36 89/38/36
f 38/40/37 91/40/37 90/39/37
f 39/41/38 92/41/38 91/40/38
f 40/42/39 93/42/39 92/41/39
f 41/43/40 94/43/40 93/42/40
f 42/44/41 95/44/41 94/43/41
f 42/44/42 43/45/42 96/45/42
f 44/46/43 97/46/43 96/45/43
f 45/47/44 98/47/44 97/46/44
f 46/48/45 99/48/45 98/47/45
f 47/49/46 100/49/46 99/48/46
f 48/50/47 101/50/47 100/49/47
f 49/51/48 102/51/48 101/50/48
f 49/51/49 50/52/49 103/52/49
f 51/53/50 104/53/50 103/52/50
f 52/2/51 105/2/51 104/53/51
f 53/1/52 106/1/52 105/2/52
f 2/5/53 55/5/53 106/1/53
f 28/31/54 81/31/54 80/29/54
f 107/56/55 108/63/55 116/54/55
f 111/55/55 110/57/55 107/56/55
f 110/57/56 112/59/56 109/58/56
f 111/55/57 113/60/57 112/59/57
f 115/61/58 109/58/58 112/59/58
f 113/60/58 114/62/58 115/61/58
f 114/62/57 113/60/57 111/55/57
f 115/61/59 114/62/59 116/54/59
