mtllib glyphs.mtl
# Blender 5.0.1
# www.blender.org
o 010
v 0.057698 1.025302 -0.234676
v 0.054438 1.023645 -0.226794
v 0.061304 1.026877 -0.242361
v 0.064798 1.025406 -0.237845
v 0.068013 1.023944 -0.233257
v 0.070344 1.023583 -0.232717
v 0.076515 1.022338 -0.230142
v 0.081028 1.020832 -0.225882
v 0.083014 1.019601 -0.221736
v 0.084193 1.017986 -0.215745
v 0.083526 1.016574 -0.209850
v 0.081113 1.015450 -0.204427
v 0.077056 1.014699 -0.199857
v 0.069246 1.014585 -0.196373
v 0.062769 1.014626 -0.194020
v 0.061542 1.015594 -0.197411
v 0.060307 1.016570 -0.200830
v 0.065816 1.016514 -0.202741
v 0.072680 1.016634 -0.205883
v 0.076981 1.017701 -0.211812
v 0.076536 1.019471 -0.218704
v 0.074485 1.020563 -0.222268
v 0.067396 1.022090 -0.225614
v 0.059069 1.022610 -0.224461
v 0.056804 1.022580 -0.223462
v 0.055660 1.023082 -0.225023
v 0.046116 1.018411 -0.202671
v 0.044511 1.016144 -0.192998
v 0.047951 1.019671 -0.208413
v 0.053722 1.017861 -0.203426
v 0.058381 1.015851 -0.197209
v 0.058835 1.023684 -0.228656
v 0.060359 1.024406 -0.232131
v 0.062220 1.025030 -0.235345
v 0.063555 1.024356 -0.233172
v 0.064560 1.023752 -0.231148
v 0.061677 1.023703 -0.229835
v 0.049403 1.018183 -0.203038
v 0.051639 1.017474 -0.201075
v 0.053688 1.016722 -0.198868
v 0.048275 1.016852 -0.197286
v 0.057337 1.021583 -0.235608
v 0.054077 1.019926 -0.227725
v 0.060943 1.023158 -0.243293
v 0.064436 1.021687 -0.238777
v 0.067652 1.020226 -0.234189
v 0.069982 1.019864 -0.233649
v 0.076153 1.018619 -0.231074
v 0.080666 1.017114 -0.226814
v 0.082653 1.015882 -0.222667
v 0.083832 1.014267 -0.216677
v 0.083164 1.012855 -0.210781
v 0.080752 1.011731 -0.205359
v 0.076695 1.010980 -0.200789
v 0.068885 1.010867 -0.197305
v 0.062407 1.010907 -0.194952
v 0.061181 1.011875 -0.198342
v 0.059946 1.012852 -0.201761
v 0.065455 1.012795 -0.203673
v 0.072318 1.012915 -0.206815
v 0.076620 1.013982 -0.212744
v 0.076175 1.015752 -0.219636
v 0.074124 1.016844 -0.223199
v 0.067034 1.018371 -0.226546
v 0.058707 1.018891 -0.225393
v 0.056442 1.018861 -0.224394
v 0.055298 1.019363 -0.225954
v 0.045755 1.014692 -0.203603
v 0.044150 1.012425 -0.193930
v 0.047590 1.015952 -0.209344
v 0.053360 1.014142 -0.204357
v 0.058019 1.012132 -0.198140
v 0.058474 1.019965 -0.229587
v 0.059997 1.020687 -0.233063
v 0.061859 1.021311 -0.236276
v 0.063193 1.020638 -0.234104
v 0.064199 1.020033 -0.232079
v 0.061316 1.019984 -0.230767
v 0.049041 1.014464 -0.203970
v 0.051278 1.013755 -0.202007
v 0.053326 1.013003 -0.199800
v 0.047914 1.013133 -0.198218
v 0.118188 1.013474 -0.250491
v 0.043839 1.026236 -0.272595
v 0.064764 0.992835 -0.147086
v 0.118752 1.019269 -0.249043
v 0.081578 1.025650 -0.260095
v 0.065328 0.998630 -0.145637
v 0.045274 1.002072 -0.151600
v 0.025220 1.005514 -0.157562
v 0.024656 0.999719 -0.159010
v 0.044403 1.032031 -0.271147
vn 0.0938 0.9657 0.2419
vn -0.9222 0.1759 -0.3444
vn -0.9037 0.1846 -0.3862
vn 0.8000 0.0715 -0.5957
vn 0.8263 0.0600 -0.5600
vn 0.2516 0.2121 -0.9443
vn 0.4099 0.1840 -0.8934
vn 0.7013 0.1084 -0.7046
vn 0.9039 0.0192 -0.4273
vn 0.9779 -0.0439 -0.2043
vn 0.9896 -0.1172 0.0840
vn 0.9120 -0.1809 0.3683
vn 0.7464 -0.2291 0.6249
vn 0.3966 -0.2591 0.8807
vn 0.3283 -0.2594 0.9083
vn -0.9398 0.0058 0.3416
vn -0.9400 0.0059 0.3412
vn -0.3142 0.2593 -0.9133
vn -0.4058 0.2590 -0.8765
vn -0.8084 0.2158 -0.5477
vn -0.9936 0.0756 0.0836
vn -0.8711 -0.0380 0.4897
vn -0.4509 -0.1754 0.8752
vn 0.1172 -0.2520 0.9606
vn 0.3927 -0.2592 0.8824
vn -0.8147 -0.0652 0.5762
vn -0.8304 -0.0581 0.5541
vn -0.9827 0.1288 -0.1328
vn -0.9500 0.1596 -0.2686
vn 0.6703 0.1184 -0.7326
vn 0.8088 0.0677 -0.5842
vn 0.2756 -0.2587 0.9258
vn 0.9141 -0.1799 0.3634
vn 0.8641 -0.1997 0.4619
vn -0.8574 -0.0451 0.5126
vn -0.8981 -0.0228 0.4393
vn -0.4038 0.2590 -0.8774
vn -0.3716 0.2594 -0.8914
vn -0.6759 -0.1166 0.7277
vn -0.7453 -0.0929 0.6602
vn -0.2653 0.2585 -0.9289
vn 0.9778 -0.1352 0.1604
vn 0.3108 0.2019 -0.9288
vn 0.8871 -0.1913 0.4201
vn 0.0940 0.9659 0.2414
vn -0.3108 -0.2019 0.9288
vn -0.9823 0.1295 -0.1357
vn 0.0939 0.9657 0.2419
vn 0.3108 0.2018 -0.9288
vn -0.3108 -0.2018 0.9288
vt 0.932159 0.968234
vt 0.941151 0.962208
vt 0.933290 0.980847
vt 0.951247 0.950951
vt 0.945851 0.934214
vt 0.951247 0.925848
vt 0.949998 0.933318
vt 0.948117 0.921116
vt 0.958429 0.914997
vt 0.938156 0.946289
vt 0.926597 0.939174
vt 0.936572 0.938928
vt 0.924259 0.968933
vt 0.915738 0.956532
vt 0.937470 0.971533
vt 0.944885 0.960305
vt 0.954331 0.953271
vt 0.960331 0.943983
vt 0.962105 0.935933
vt 0.961809 0.925002
vt 0.952279 0.906536
vt 0.943676 0.900239
vt 0.929144 0.897383
vt 0.917297 0.895951
vt 0.916519 0.902368
vt 0.915738 0.908839
vt 0.925780 0.909901
vt 0.938581 0.912551
vt 0.947893 0.940377
vt 0.937188 0.949134
vt 0.922673 0.950556
vt 0.918463 0.949748
vt 0.917126 0.952941
vt 0.935490 0.933291
vt 0.923881 0.957967
vt 0.927784 0.963399
vt 0.933584 0.963897
vt 0.934510 0.959952
vt 0.929135 0.958852
vt 0.941104 0.941670
vt 0.945956 0.943981
vt 0.219037 0.688178
vt 0.250000 0.687500
vt 0.283323 0.693128
vt 0.280963 0.688178
vt 0.268862 0.493734
vt 0.266464 0.499987
vt 0.250000 0.500000
vt 0.231138 0.493734
vt 0.233536 0.499987
vt 0.216677 0.693128
s 0
usemtl glyph
f 34/1/1 5/2/1 3/3/1
f 31/4/1 41/5/1 28/6/1
f 21/7/1 20/8/1 11/9/1
f 30/10/1 29/11/1 38/12/1
f 1/13/2 43/14/2 2/14/2
f 3/3/3 42/13/3 1/13/3
f 4/15/4 44/3/4 3/3/4
f 5/2/5 45/15/5 4/15/5
f 6/16/6 46/2/6 5/2/6
f 7/17/7 47/16/7 6/16/7
f 8/18/8 48/17/8 7/17/8
f 9/19/9 49/18/9 8/18/9
f 10/20/10 50/19/10 9/19/10
f 11/9/11 51/20/11 10/20/11
f 12/21/12 52/9/12 11/9/12
f 13/22/13 53/21/13 12/21/13
f 14/23/14 54/22/14 13/22/14
f 15/24/15 55/23/15 14/23/15
f 16/25/16 56/24/16 15/24/16
f 17/26/17 57/25/17 16/25/17
f 18/27/18 58/26/18 17/26/18
f 19/28/19 59/27/19 18/27/19
f 19/28/20 61/8/20 60/28/20
f 21/7/21 61/8/21 20/8/21
f 22/29/22 62/7/22 21/7/22
f 22/29/23 64/30/23 63/29/23
f 24/31/24 64/30/24 23/30/24
f 25/32/25 65/31/25 24/31/25
f 26/33/26 66/32/26 25/32/26
f 2/14/27 67/33/27 26/33/27
f 28/6/28 68/34/28 69/6/28
f 29/11/29 68/34/29 27/34/29
f 30/10/30 70/11/30 29/11/30
f 31/4/31 71/10/31 30/10/31
f 28/6/32 72/4/32 31/4/32
f 32/35/33 74/36/33 33/36/33
f 33/36/34 75/1/34 34/1/34
f 34/1/35 76/37/35 35/37/35
f 35/37/36 77/38/36 36/38/36
f 36/38/37 78/39/37 37/39/37
f 37/39/38 73/35/38 32/35/38
f 38/12/39 80/40/39 39/40/39
f 39/40/40 81/41/40 40/41/40
f 40/41/41 82/5/41 41/5/41
f 41/5/42 79/12/42 38/12/42
f 92/42/43 87/43/43 83/44/43
f 86/45/44 85/46/44 83/44/44
f 87/43/45 88/47/45 86/45/45
f 88/47/46 89/48/46 91/49/46
f 90/50/45 87/43/45 92/42/45
f 91/49/47 92/42/47 84/51/47
f 1/13/1 2/14/1 26/33/1
f 26/33/1 32/35/1 33/36/1
f 26/33/1 33/36/1 34/1/1
f 3/3/1 1/13/1 26/33/1
f 5/2/1 4/15/1 3/3/1
f 36/38/1 6/16/1 5/2/1
f 35/37/1 36/38/1 5/2/1
f 3/3/1 26/33/1 34/1/1
f 34/1/1 35/37/1 5/2/1
f 31/4/1 40/41/1 41/5/1
f 32/35/1 26/33/1 25/32/1
f 32/35/1 25/32/1 24/31/1
f 6/16/1 36/38/1 37/39/1
f 37/39/1 32/35/1 24/31/1
f 37/39/1 24/31/1 23/30/1
f 7/17/1 6/16/1 37/39/1
f 9/19/1 8/18/1 7/17/1
f 11/9/1 10/20/1 9/19/1
f 13/22/1 12/21/1 11/9/1
f 15/24/1 14/23/1 13/22/1
f 17/26/48 16/25/48 15/24/48
f 18/27/1 17/26/1 15/24/1
f 15/24/1 13/22/1 11/9/1
f 11/9/1 9/19/1 7/17/1
f 7/17/1 37/39/1 23/30/1
f 7/17/1 23/30/1 22/29/1
f 18/27/1 15/24/1 11/9/1
f 19/28/1 18/27/1 11/9/1
f 11/9/1 7/17/1 22/29/1
f 11/9/1 22/29/1 21/7/1
f 20/8/1 19/28/1 11/9/1
f 40/41/1 31/4/1 30/10/1
f 29/11/1 27/34/1 28/6/1
f 28/6/1 41/5/1 38/12/1
f 39/40/1 40/41/1 30/10/1
f 29/11/1 28/6/1 38/12/1
f 38/12/1 39/40/1 30/10/1
f 1/13/2 42/13/2 43/14/2
f 3/3/3 44/3/3 42/13/3
f 4/15/4 45/15/4 44/3/4
f 5/2/5 46/2/5 45/15/5
f 6/16/6 47/16/6 46/2/6
f 7/17/7 48/17/7 47/16/7
f 8/18/8 49/18/8 48/17/8
f 9/19/9 50/19/9 49/18/9
f 10/20/10 51/20/10 50/19/10
f 11/9/11 52/9/11 51/20/11
f 12/21/12 53/21/12 52/9/12
f 13/22/13 54/22/13 53/21/13
f 14/23/14 55/23/14 54/22/14
f 15/24/15 56/24/15 55/23/15
f 16/25/16 57/25/16 56/24/16
f 17/26/17 58/26/17 57/25/17
f 18/27/18 59/27/18 58/26/18
f 19/28/19 60/28/19 59/27/19
f 19/28/20 20/8/20 61/8/20
f 21/7/21 62/7/21 61/8/21
f 22/29/22 63/29/22 62/7/22
f 22/29/23 23/30/23 64/30/23
f 24/31/24 65/31/24 64/30/24
f 25/32/25 66/32/25 65/31/25
f 26/33/26 67/33/26 66/32/26
f 2/14/27 43/14/27 67/33/27
f 28/6/28 27/34/28 68/34/28
f 29/11/29 70/11/29 68/34/29
f 30/10/30 71/10/30 70/11/30
f 31/4/31 72/4/31 71/10/31
f 28/6/32 69/6/32 72/4/32
f 32/35/33 73/35/33 74/36/33
f 33/36/34 74/36/34 75/1/34
f 34/1/35 75/1/35 76/37/35
f 35/37/36 76/37/36 77/38/36
f 36/38/37 77/38/37 78/39/37
f 37/39/38 78/39/38 73/35/38
f 38/12/39 79/12/39 80/40/39
f 39/40/40 80/40/40 81/41/40
f 40/41/41 81/41/41 82/5/41
f 41/5/42 82/5/42 79/12/42
f 83/44/49 84/51/49 92/42/49
f 87/43/43 86/45/43 83/44/43
f 86/45/44 88/47/44 85/46/44
f 87/43/45 89/48/45 88/47/45
f 91/49/50 85/46/50 88/47/50
f 89/48/50 90/50/50 91/49/50
f 90/50/45 89/48/45 87/43/45
f 91/49/47 90/50/47 92/42/47
