mtllib glyphs.mtl
# Blender 5.0.1
# www.blender.org
o 016
v -0.078628 1.017016 -0.209707
v -0.073959 1.015602 -0.202250
v -0.083335 1.018425 -0.217161
v -0.084491 1.019798 -0.223090
v -0.084992 1.021403 -0.229691
v -0.074942 1.024710 -0.238994
v -0.059495 1.024731 -0.233085
v -0.055234 1.024724 -0.231403
v -0.052290 1.023018 -0.223453
v -0.049319 1.021326 -0.215544
v -0.049234 1.020216 -0.211080
v -0.048920 1.016080 -0.194447
v -0.048952 1.014007 -0.186185
v -0.049043 1.013425 -0.183897
v -0.052212 1.012278 -0.180547
v -0.056999 1.010618 -0.175777
v -0.059202 1.010156 -0.174787
v -0.064601 1.011242 -0.181216
v -0.069423 1.012284 -0.187249
v -0.071673 1.013946 -0.194753
v -0.081218 1.021101 -0.227019
v -0.064010 1.023529 -0.230039
v -0.072652 1.023598 -0.233666
v -0.074004 1.023595 -0.234179
v -0.077541 1.022379 -0.230697
v -0.075911 1.020905 -0.224178
v -0.078758 1.020336 -0.223013
v -0.071060 1.017807 -0.209930
v -0.068152 1.016420 -0.203267
v -0.066122 1.014423 -0.194505
v -0.064807 1.013229 -0.189228
v -0.062345 1.012649 -0.185957
v -0.058811 1.012217 -0.182862
v -0.055997 1.013008 -0.184929
v -0.054386 1.014536 -0.190405
v -0.054785 1.017811 -0.203633
v -0.055098 1.020659 -0.215125
v -0.057571 1.021851 -0.220843
v -0.060079 1.023038 -0.226553
v -0.066485 1.022197 -0.225682
v -0.078266 1.013297 -0.210639
v -0.073597 1.011882 -0.203182
v -0.082973 1.014706 -0.218092
v -0.084130 1.016079 -0.224022
v -0.084631 1.017684 -0.230622
v -0.074581 1.020991 -0.239925
v -0.059133 1.021012 -0.234017
v -0.054872 1.021005 -0.232334
v -0.051928 1.019299 -0.224385
v -0.048957 1.017607 -0.216476
v -0.048872 1.016497 -0.212012
v -0.048559 1.012361 -0.195378
v -0.048590 1.010288 -0.187117
v -0.048682 1.009706 -0.184829
v -0.051850 1.008559 -0.181478
v -0.056638 1.006899 -0.176708
v -0.058841 1.006437 -0.175719
v -0.064240 1.007523 -0.182148
v -0.069062 1.008565 -0.188180
v -0.071312 1.010227 -0.195685
v -0.080857 1.017381 -0.227951
v -0.063649 1.019810 -0.230970
v -0.072291 1.019879 -0.234598
v -0.073642 1.019876 -0.235111
v -0.077179 1.018660 -0.231629
v -0.075550 1.017185 -0.225110
v -0.078397 1.016617 -0.223944
v -0.070698 1.014088 -0.210861
v -0.067790 1.012701 -0.204198
v -0.065760 1.010704 -0.195437
v -0.064446 1.009510 -0.190160
v -0.061984 1.008930 -0.186889
v -0.058450 1.008498 -0.183794
v -0.055636 1.009289 -0.185861
v -0.054024 1.010817 -0.191336
v -0.054423 1.014092 -0.204564
v -0.054737 1.016940 -0.216057
v -0.057209 1.018132 -0.221774
v -0.059717 1.019319 -0.227485
v -0.066123 1.018478 -0.226614
v -0.043839 1.026236 -0.272595
v -0.118188 1.013474 -0.250491
v -0.024656 0.999719 -0.159010
v -0.044403 1.032031 -0.271147
v -0.081578 1.025650 -0.260095
v -0.025220 1.005514 -0.157562
v -0.045274 1.002072 -0.151600
v -0.065329 0.998630 -0.145637
v -0.064764 0.992835 -0.147086
v -0.118752 1.019269 -0.249043
vn -0.0938 0.9657 0.2419
vn -0.8466 -0.2053 0.4911
vn -0.8445 -0.2059 0.4944
vn -0.9779 -0.1350 0.1595
vn -0.9929 -0.1087 0.0489
vn -0.6945 0.1106 -0.7109
vn 0.3447 0.2595 -0.9021
vn 0.3551 0.2595 -0.8981
vn 0.9356 0.1686 -0.3103
vn 0.9340 0.1696 -0.3146
vn 0.9954 0.0955 0.0048
vn 0.9954 0.0955 0.0050
vn 0.9956 0.0901 0.0264
vn 0.9948 0.0815 0.0604
vn 0.7393 -0.0951 0.6666
vn 0.7196 -0.1021 0.6868
vn 0.4343 -0.1789 0.8828
vn -0.7645 -0.2256 0.6039
vn -0.7800 -0.2223 0.5850
vn -0.9551 -0.1559 0.2518
vn -0.9538 -0.1568 0.2561
vn -0.1986 0.2199 -0.9551
vn -0.3756 -0.2594 0.8898
vn -0.3425 -0.2595 0.9030
vn 0.7156 -0.1035 0.6908
vn 0.7209 -0.1017 0.6855
vn 0.4037 -0.1852 0.8959
vn 0.8608 0.2008 -0.4677
vn 0.9148 0.1795 -0.3619
vn 0.9709 0.1426 -0.1925
vn 0.9672 0.1461 -0.2079
vn 0.7980 0.2183 -0.5618
vn 0.6558 0.2428 -0.7149
vn -0.6111 0.1359 -0.7798
vn -0.9575 -0.0210 -0.2877
vn -0.9952 -0.0981 0.0057
vn -0.9952 -0.0975 0.0030
vn -0.9161 -0.1789 0.3589
vn -0.9139 -0.1800 0.3640
vn 0.1601 -0.2252 0.9611
vn 0.1833 -0.2221 0.9576
vn -0.3108 0.2019 -0.9288
vn 0.9823 0.1295 -0.1357
vn -0.0940 0.9659 0.2414
vn 0.3108 -0.2018 0.9288
vn -0.8871 -0.1913 0.4201
vn -0.0939 0.9657 0.2419
vn -0.3108 0.2018 -0.9288
vt 0.925451 0.922030
vt 0.926235 0.965369
vt 0.925482 0.971831
vt 0.922291 0.977296
vt 0.932275 0.974546
vt 0.956458 0.934095
vt 0.951858 0.959778
vt 0.951672 0.951110
vt 0.918598 0.948267
vt 0.920112 0.936191
vt 0.917034 0.960358
vt 0.919052 0.968576
vt 0.940414 0.983758
vt 0.956424 0.967824
vt 0.960809 0.963361
vt 0.959860 0.951590
vt 0.958968 0.939855
vt 0.947101 0.912633
vt 0.942218 0.902075
vt 0.940762 0.899196
vt 0.934802 0.896624
vt 0.925970 0.893113
vt 0.922613 0.893040
vt 0.919576 0.904195
vt 0.917034 0.914531
vt 0.918598 0.925356
vt 0.948945 0.966371
vt 0.940178 0.975697
vt 0.938775 0.977087
vt 0.930507 0.965318
vt 0.928268 0.944450
vt 0.928028 0.934346
vt 0.924014 0.914563
vt 0.925200 0.909042
vt 0.927840 0.903164
vt 0.932600 0.904286
vt 0.937841 0.910421
vt 0.945094 0.927570
vt 0.951437 0.942451
vt 0.943272 0.962135
vt 0.219037 0.688178
vt 0.250000 0.687500
vt 0.283323 0.693128
vt 0.280963 0.688178
vt 0.268862 0.493734
vt 0.266464 0.499987
vt 0.250000 0.500000
vt 0.231138 0.493734
vt 0.233536 0.499987
vt 0.216677 0.693128
s 0
usemtl Material.003
f 30/1/1 27/2/1 21/3/1
f 5/4/1 21/3/1 25/5/1
f 11/6/1 39/7/1 38/8/1
f 1/9/2 42/10/2 2/10/2
f 3/11/3 41/9/3 1/9/3
f 4/12/4 43/11/4 3/11/4
f 5/4/5 44/12/5 4/12/5
f 6/13/6 45/4/6 5/4/6
f 6/13/7 47/14/7 46/13/7
f 8/15/8 47/14/8 7/14/8
f 9/16/9 48/15/9 8/15/9
f 10/17/10 49/16/10 9/16/10
f 11/6/11 50/17/11 10/17/11
f 12/18/12 51/6/12 11/6/12
f 13/19/13 52/18/13 12/18/13
f 14/20/14 53/19/14 13/19/14
f 15/21/15 54/20/15 14/20/15
f 16/22/16 55/21/16 15/21/16
f 17/23/17 56/22/17 16/22/17
f 18/24/18 57/23/18 17/23/18
f 19/25/19 58/24/19 18/24/19
f 20/26/20 59/25/20 19/25/20
f 2/10/21 60/26/21 20/26/21
f 22/27/22 61/3/22 21/3/22
f 23/28/23 62/27/23 22/27/23
f 24/29/24 63/28/24 23/28/24
f 25/5/25 64/29/25 24/29/25
f 21/3/26 65/5/26 25/5/26
f 27/2/27 66/30/27 26/30/27
f 27/2/28 68/31/28 67/2/28
f 29/32/29 68/31/29 28/31/29
f 30/1/30 69/32/30 29/32/30
f 31/33/31 70/1/31 30/1/31
f 32/34/32 71/33/32 31/33/32
f 33/35/33 72/34/33 32/34/33
f 34/36/34 73/35/34 33/35/34
f 35/37/35 74/36/35 34/36/35
f 36/38/36 75/37/36 35/37/36
f 37/39/37 76/38/37 36/38/37
f 38/8/38 77/39/38 37/39/38
f 39/7/39 78/8/39 38/8/39
f 40/40/40 79/7/40 39/7/40
f 26/30/41 80/40/41 40/40/41
f 90/41/42 85/42/42 81/43/42
f 84/44/43 83/45/43 81/43/43
f 85/42/44 86/46/44 84/44/44
f 86/46/45 87/47/45 89/48/45
f 88/49/44 85/42/44 90/41/44
f 89/48/46 90/41/46 82/50/46
f 20/26/1 19/25/1 18/24/1
f 18/24/1 17/23/1 16/22/1
f 16/22/1 33/35/1 32/34/1
f 16/22/1 32/34/1 31/33/1
f 20/26/1 18/24/1 16/22/1
f 2/10/1 20/26/1 16/22/1
f 2/10/1 16/22/1 31/33/1
f 21/3/1 3/11/1 1/9/1
f 1/9/1 2/10/1 31/33/1
f 30/1/1 29/32/1 28/31/1
f 1/9/1 31/33/1 30/1/1
f 40/40/1 22/27/1 21/3/1
f 26/30/1 40/40/1 21/3/1
f 21/3/1 1/9/1 30/1/1
f 30/1/1 28/31/1 27/2/1
f 27/2/1 26/30/1 21/3/1
f 24/29/1 6/13/1 5/4/1
f 5/4/1 4/12/1 3/11/1
f 5/4/1 3/11/1 21/3/1
f 25/5/1 24/29/1 5/4/1
f 33/35/1 16/22/1 15/21/1
f 15/21/1 14/20/1 13/19/1
f 13/19/1 12/18/1 11/6/1
f 11/6/1 10/17/1 9/16/1
f 9/16/1 8/15/1 7/14/1
f 7/14/1 6/13/1 24/29/1
f 7/14/1 24/29/1 23/28/1
f 11/6/1 9/16/1 7/14/1
f 15/21/1 13/19/1 11/6/1
f 34/36/1 33/35/1 15/21/1
f 37/39/47 36/38/47 35/37/47
f 35/37/1 34/36/1 15/21/1
f 7/14/1 23/28/1 22/27/1
f 22/27/1 40/40/1 39/7/1
f 7/14/1 22/27/1 39/7/1
f 35/37/1 15/21/1 11/6/1
f 37/39/1 35/37/1 11/6/1
f 11/6/1 7/14/1 39/7/1
f 38/8/1 37/39/1 11/6/1
f 1/9/2 41/9/2 42/10/2
f 3/11/3 43/11/3 41/9/3
f 4/12/4 44/12/4 43/11/4
f 5/4/5 45/4/5 44/12/5
f 6/13/6 46/13/6 45/4/6
f 6/13/7 7/14/7 47/14/7
f 8/15/8 48/15/8 47/14/8
f 9/16/9 49/16/9 48/15/9
f 10/17/10 50/17/10 49/16/10
f 11/6/11 51/6/11 50/17/11
f 12/18/12 52/18/12 51/6/12
f 13/19/13 53/19/13 52/18/13
f 14/20/14 54/20/14 53/19/14
f 15/21/15 55/21/15 54/20/15
f 16/22/16 56/22/16 55/21/16
f 17/23/17 57/23/17 56/22/17
f 18/24/18 58/24/18 57/23/18
f 19/25/19 59/25/19 58/24/19
f 20/26/20 60/26/20 59/25/20
f 2/10/21 42/10/21 60/26/21
f 22/27/22 62/27/22 61/3/22
f 23/28/23 63/28/23 62/27/23
f 24/29/24 64/29/24 63/28/24
f 25/5/25 65/5/25 64/29/25
f 21/3/26 61/3/26 65/5/26
f 27/2/27 67/2/27 66/30/27
f 27/2/28 28/31/28 68/31/28
f 29/32/29 69/32/29 68/31/29
f 30/1/30 70/1/30 69/32/30
f 31/33/31 71/33/31 70/1/31
f 32/34/32 72/34/32 71/33/32
f 33/35/33 73/35/33 72/34/33
f 34/36/34 74/36/34 73/35/34
f 35/37/35 75/37/35 74/36/35
f 36/38/36 76/38/36 75/37/36
f 37/39/37 77/39/37 76/38/37
f 38/8/38 78/8/38 77/39/38
f 39/7/39 79/7/39 78/8/39
f 40/40/40 80/40/40 79/7/40
f 26/30/41 66/30/41 80/40/41
f 81/43/48 82/50/48 90/41/48
f 85/42/48 84/44/48 81/43/48
f 84/44/43 86/46/43 83/45/43
f 85/42/44 87/47/44 86/46/44
f 89/48/45 83/45/45 86/46/45
f 87/47/45 88/49/45 89/48/45
f 88/49/44 87/47/44 85/42/44
f 89/48/46 88/49/46 90/41/46
