mtllib glyphs.mtl
# Blender 5.0.1
# www.blender.org
o 020
v -0.127929 0.748508 0.170057
v -0.128970 0.745649 0.172315
v -0.127592 0.749075 0.169640
v -0.126428 0.748233 0.170646
v -0.118019 0.741914 0.178122
v -0.121998 0.740296 0.178613
v -0.126007 0.738856 0.178942
v -0.137387 0.728997 0.184922
v -0.150118 0.717326 0.192171
v -0.151920 0.715264 0.193555
v -0.153495 0.715553 0.192937
v -0.167328 0.714913 0.190286
v -0.180029 0.713783 0.188326
v -0.179300 0.731905 0.172651
v -0.167285 0.726930 0.179789
v -0.155179 0.721930 0.186971
v -0.150953 0.725304 0.185001
v -0.138359 0.735987 0.178584
v -0.129689 0.743332 0.174174
v -0.174185 0.725411 0.179516
v -0.167019 0.722424 0.183791
v -0.160122 0.719451 0.187991
v -0.170587 0.717943 0.186880
v -0.174698 0.717498 0.186316
v -0.174720 0.721597 0.182726
v -0.127111 0.745425 0.166532
v -0.128152 0.742566 0.168790
v -0.126773 0.745992 0.166114
v -0.125610 0.745151 0.167120
v -0.117201 0.738832 0.174597
v -0.121180 0.737214 0.175087
v -0.125189 0.735774 0.175416
v -0.136568 0.725914 0.181396
v -0.149300 0.714243 0.188645
v -0.151102 0.712182 0.190029
v -0.152677 0.712470 0.189412
v -0.166509 0.711830 0.186761
v -0.179211 0.710701 0.184801
v -0.178482 0.728823 0.169125
v -0.166467 0.723848 0.176264
v -0.154360 0.718847 0.183445
v -0.150135 0.722222 0.181475
v -0.137541 0.732904 0.175058
v -0.128871 0.740249 0.170649
v -0.173367 0.722329 0.175990
v -0.166201 0.719342 0.180265
v -0.159303 0.716368 0.184466
v -0.169769 0.714861 0.183355
v -0.173880 0.714415 0.182790
v -0.173902 0.718515 0.179201
v -0.227753 0.703714 0.171743
v -0.124339 0.675731 0.220210
v -0.161035 0.784195 0.118233
v -0.228809 0.707566 0.176220
v -0.177102 0.693575 0.200453
v -0.162091 0.788047 0.122710
v -0.125747 0.778213 0.139744
v -0.089403 0.768379 0.156777
v -0.088347 0.764527 0.152300
v -0.125395 0.679584 0.224687
vn -0.1721 0.6484 0.7416
vn -0.9460 0.1012 -0.3081
vn 0.7281 0.5908 -0.3476
vn 0.7388 0.5829 -0.3382
vn 0.3511 -0.6630 0.6612
vn 0.2998 -0.6826 0.6664
vn 0.6907 -0.4574 0.5602
vn 0.7130 -0.4374 0.5479
vn 0.7907 -0.3580 0.4966
vn -0.3581 -0.7425 0.5661
vn -0.0883 -0.7599 0.6440
vn -0.0336 -0.7562 0.6534
vn -0.9846 -0.0900 -0.1498
vn 0.5607 0.6835 -0.4674
vn 0.5600 0.6838 -0.4679
vn -0.6568 0.4855 -0.5769
vn -0.6820 0.4648 -0.5647
vn -0.6815 0.4652 -0.5649
vn -0.9565 0.0699 -0.2831
vn -0.8855 0.2281 -0.4049
vn -0.5627 -0.6826 0.4663
vn -0.5727 -0.6784 0.4602
vn -0.0374 0.7480 -0.6627
vn 0.0086 0.7538 -0.6571
vn 0.9851 0.1164 0.1268
vn 0.9793 0.0310 0.2001
vn -0.4422 -0.7288 0.5228
vn -0.8039 0.3437 -0.4854
vn -0.1760 0.6420 0.7462
vn 0.4422 0.7288 -0.5228
vn 0.9355 -0.1269 0.3298
vn -0.4670 -0.2648 0.8436
vn 0.2147 0.9713 0.1022
vt 0.948096 0.927318
vt 0.949597 0.919575
vt 0.946019 0.954242
vt 0.960527 0.926279
vt 0.959359 0.931609
vt 0.946071 0.905086
vt 0.916679 0.976573
vt 0.921183 0.973753
vt 0.918064 0.978401
vt 0.915863 0.977304
vt 0.934393 0.986210
vt 0.934924 0.980170
vt 0.935119 0.974180
vt 0.961981 0.928197
vt 0.953442 0.907817
vt 0.947908 0.890588
vt 0.915862 0.900768
vt 0.931930 0.913990
vt 0.944562 0.934575
vt 0.932911 0.956525
vt 0.924907 0.971631
vt 0.930545 0.904170
vt 0.940163 0.912045
vt 0.944423 0.899469
vt 0.937063 0.901527
vt 0.124849 0.500602
vt 0.187651 0.500602
vt 0.189254 0.503933
vt 0.180000 0.370651
vt 0.156250 0.500000
vt 0.178376 0.374864
vt 0.134124 0.374864
vt 0.132500 0.370651
vt 0.123246 0.503933
vt 0.156250 0.375000
s 0
usemtl glyph
f 16/1/1 22/2/1 8/3/1
f 11/4/1 9/5/1 23/6/1
f 1/7/2 27/8/2 2/8/2
f 4/9/3 28/10/3 3/10/3
f 5/11/4 29/9/4 4/9/4
f 6/12/5 30/11/5 5/11/5
f 7/13/6 31/12/6 6/12/6
f 8/3/7 32/13/7 7/13/7
f 9/5/8 33/3/8 8/3/8
f 10/14/9 34/5/9 9/5/9
f 11/4/10 35/14/10 10/14/10
f 12/15/11 36/4/11 11/4/11
f 13/16/12 37/15/12 12/15/12
f 13/16/13 39/17/13 38/16/13
f 15/18/14 39/17/14 14/17/14
f 16/1/15 40/18/15 15/18/15
f 16/1/16 42/19/16 41/1/16
f 18/20/17 42/19/17 17/19/17
f 19/21/18 43/20/18 18/20/18
f 2/8/19 44/21/19 19/21/19
f 3/10/20 26/7/20 1/7/20
f 20/22/21 46/23/21 21/23/21
f 21/23/22 47/2/22 22/2/22
f 22/2/23 48/6/23 23/6/23
f 23/6/24 49/24/24 24/24/24
f 24/24/25 50/25/25 25/25/25
f 25/25/26 45/22/26 20/22/26
f 60/26/27 54/27/27 51/28/27
f 54/27/28 53/29/28 51/28/28
f 55/30/29 56/31/29 54/27/29
f 56/31/30 58/32/30 59/33/30
f 58/32/29 55/30/29 60/26/29
f 59/33/31 60/26/31 52/34/31
f 1/7/1 2/8/1 19/21/1
f 19/21/1 18/20/1 17/19/1
f 3/10/1 1/7/1 19/21/1
f 5/11/1 4/9/1 3/10/1
f 7/13/1 6/12/1 5/11/1
f 22/2/1 9/5/1 8/3/1
f 7/13/1 5/11/1 3/10/1
f 14/17/1 20/22/1 21/23/1
f 15/18/1 14/17/1 21/23/1
f 7/13/1 3/10/1 19/21/1
f 7/13/1 19/21/1 17/19/1
f 15/18/1 21/23/1 22/2/1
f 7/13/1 17/19/1 16/1/1
f 16/1/1 15/18/1 22/2/1
f 8/3/1 7/13/1 16/1/1
f 20/22/1 14/17/1 13/16/1
f 25/25/1 20/22/1 13/16/1
f 24/24/1 25/25/1 13/16/1
f 24/24/1 13/16/1 12/15/1
f 9/5/1 22/2/1 23/6/1
f 23/6/1 24/24/1 12/15/1
f 11/4/1 10/14/1 9/5/1
f 23/6/1 12/15/1 11/4/1
f 1/7/2 26/7/2 27/8/2
f 4/9/3 29/9/3 28/10/3
f 5/11/4 30/11/4 29/9/4
f 6/12/5 31/12/5 30/11/5
f 7/13/6 32/13/6 31/12/6
f 8/3/7 33/3/7 32/13/7
f 9/5/8 34/5/8 33/3/8
f 10/14/9 35/14/9 34/5/9
f 11/4/10 36/4/10 35/14/10
f 12/15/11 37/15/11 36/4/11
f 13/16/12 38/16/12 37/15/12
f 13/16/13 14/17/13 39/17/13
f 15/18/14 40/18/14 39/17/14
f 16/1/15 41/1/15 40/18/15
f 16/1/16 17/19/16 42/19/16
f 18/20/17 43/20/17 42/19/17
f 19/21/18 44/21/18 43/20/18
f 2/8/19 27/8/19 44/21/19
f 3/10/20 28/10/20 26/7/20
f 20/22/21 45/22/21 46/23/21
f 21/23/22 46/23/22 47/2/22
f 22/2/23 47/2/23 48/6/23
f 23/6/24 48/6/24 49/24/24
f 24/24/25 49/24/25 50/25/25
f 25/25/26 50/25/26 45/22/26
f 51/28/27 52/34/27 60/26/27
f 60/26/32 55/30/32 54/27/32
f 54/27/28 56/31/28 53/29/28
f 55/30/29 57/35/29 56/31/29
f 59/33/30 53/29/30 56/31/30
f 56/31/33 57/35/33 58/32/33
f 58/32/29 57/35/29 55/30/29
f 59/33/31 58/32/31 60/26/31
