mtllib glyphs.mtl
# Blender 5.0.1
# www.blender.org
o 021
v 0.174880 0.743206 0.163884
v 0.177684 0.741833 0.164435
v 0.169681 0.742865 0.165390
v 0.155806 0.742960 0.168526
v 0.151949 0.743433 0.169008
v 0.144202 0.746513 0.168113
v 0.133098 0.751350 0.166461
v 0.129694 0.753230 0.165607
v 0.130347 0.755258 0.163683
v 0.131060 0.757180 0.161837
v 0.130098 0.757560 0.161728
v 0.118288 0.761223 0.161266
v 0.114640 0.756881 0.165909
v 0.117408 0.752349 0.169229
v 0.120358 0.748174 0.172195
v 0.122847 0.748753 0.171111
v 0.125306 0.749342 0.170026
v 0.130356 0.746597 0.171253
v 0.142690 0.740955 0.173324
v 0.149971 0.738056 0.174169
v 0.156633 0.737606 0.173016
v 0.163331 0.737089 0.171914
v 0.158365 0.731467 0.177981
v 0.152814 0.725430 0.184548
v 0.152353 0.724886 0.185131
v 0.151482 0.725740 0.184586
v 0.150001 0.726593 0.184184
v 0.148834 0.725144 0.185722
v 0.144173 0.712548 0.197817
v 0.144667 0.711761 0.198390
v 0.156041 0.714372 0.193467
v 0.155359 0.716630 0.191651
v 0.154553 0.718643 0.190079
v 0.156217 0.720459 0.188105
v 0.172980 0.737101 0.169663
v 0.120286 0.756564 0.164876
v 0.124599 0.755373 0.164916
v 0.123636 0.754060 0.166288
v 0.122669 0.752962 0.167472
v 0.121330 0.754727 0.166240
v 0.174062 0.740124 0.160359
v 0.176865 0.738750 0.160909
v 0.168863 0.739782 0.161864
v 0.154988 0.739878 0.165001
v 0.151130 0.740350 0.165483
v 0.143383 0.743431 0.164587
v 0.132280 0.748268 0.162936
v 0.128875 0.750148 0.162082
v 0.129529 0.752175 0.160157
v 0.130242 0.754098 0.158311
v 0.129279 0.754478 0.158202
v 0.117470 0.758141 0.157741
v 0.113822 0.753799 0.162384
v 0.116590 0.749266 0.165704
v 0.119540 0.745092 0.168669
v 0.122029 0.745670 0.167585
v 0.124488 0.746259 0.166500
v 0.129538 0.743515 0.167727
v 0.141872 0.737872 0.169798
v 0.149153 0.734973 0.170643
v 0.155815 0.734524 0.169490
v 0.162513 0.734006 0.168388
v 0.157547 0.728384 0.174456
v 0.151996 0.722347 0.181023
v 0.151535 0.721803 0.181605
v 0.150664 0.722657 0.181061
v 0.149182 0.723511 0.180658
v 0.148016 0.722061 0.182196
v 0.143354 0.709465 0.194291
v 0.143849 0.708678 0.194865
v 0.155222 0.711290 0.189942
v 0.154541 0.713548 0.188126
v 0.153735 0.715560 0.186553
v 0.155399 0.717376 0.184579
v 0.172162 0.734019 0.166138
v 0.119468 0.753482 0.161350
v 0.123780 0.752291 0.161391
v 0.122818 0.750977 0.162763
v 0.121851 0.749880 0.163947
v 0.120512 0.751644 0.162715
v 0.124339 0.675731 0.220209
v 0.227753 0.703714 0.171742
v 0.088347 0.764527 0.152300
v 0.125395 0.679584 0.224687
v 0.177102 0.693575 0.200453
v 0.089403 0.768379 0.156777
v 0.125747 0.778213 0.139744
v 0.162092 0.788047 0.122710
v 0.161036 0.784195 0.118233
v 0.228809 0.707566 0.176220
vn 0.1721 0.6484 0.7416
vn 0.4339 0.6260 -0.6480
vn -0.2267 0.7587 -0.6107
vn -0.1380 0.7613 -0.6336
vn 0.0097 0.7517 -0.6595
vn 0.3417 0.6668 -0.6623
vn 0.3811 0.6504 -0.6571
vn 0.4892 0.5971 -0.6357
vn 0.9584 -0.2843 0.0261
vn 0.9506 -0.3067 0.0476
vn 0.3386 0.6680 -0.6626
vn 0.2437 0.7014 -0.6698
vn -0.8501 0.4781 -0.2207
vn -0.8804 -0.2365 0.4111
vn -0.8492 -0.2839 0.4453
vn 0.4078 -0.7322 0.5455
vn 0.4144 -0.7306 0.5426
vn -0.4817 -0.6013 0.6375
vn -0.4028 -0.6407 0.6537
vn -0.3422 -0.6666 0.6622
vn 0.0611 -0.7584 0.6489
vn 0.0486 -0.7575 0.6510
vn -0.8399 0.4900 -0.2335
vn -0.8314 0.4994 -0.2437
vn -0.8483 0.4802 -0.2230
vn 0.7385 0.4133 -0.5327
vn 0.5088 0.5861 -0.6305
vn -0.8584 0.4681 -0.2100
vn -0.9507 0.3064 -0.0473
vn -0.8749 -0.2453 0.4175
vn 0.4050 -0.7328 0.5468
vn 0.9581 0.0648 -0.2790
vn 0.9380 0.1220 -0.3244
vn 0.8322 -0.4986 0.2428
vn 0.8109 -0.5207 0.2671
vn 0.8139 -0.5177 0.2637
vn -0.2033 -0.7132 0.6708
vn -0.8752 0.4462 -0.1870
vn -0.8405 0.4892 -0.2327
vn 0.8314 0.3082 -0.4624
vn 0.8934 0.2145 -0.3949
vn 0.4422 -0.7288 0.5228
vn -0.9355 -0.1269 0.3298
vn 0.1760 0.6420 0.7462
vn -0.4422 0.7288 -0.5228
vn 0.8039 0.3437 -0.4854
vn 0.0258 -0.8887 -0.4578
vt 0.972577 0.905674
vt 0.957595 0.907728
vt 0.900791 0.907518
vt 0.949572 0.971613
vt 0.947226 0.981199
vt 0.944272 0.962219
vt 0.977904 0.895599
vt 0.977688 0.900040
vt 0.960580 0.921616
vt 0.957972 0.926450
vt 0.956210 0.938078
vt 0.954373 0.955124
vt 0.954457 0.960708
vt 0.958336 0.961787
vt 0.962096 0.962704
vt 0.961873 0.964146
vt 0.957502 0.980942
vt 0.942259 0.973954
vt 0.938034 0.966822
vt 0.941158 0.964499
vt 0.944220 0.953977
vt 0.945821 0.934799
vt 0.947471 0.923866
vt 0.952572 0.915849
vt 0.944077 0.908339
vt 0.929369 0.909246
vt 0.928077 0.909283
vt 0.928708 0.911047
vt 0.928802 0.913509
vt 0.925416 0.913536
vt 0.899940 0.906244
vt 0.914161 0.895599
vt 0.917247 0.898411
vt 0.919823 0.901145
vt 0.924242 0.900879
vt 0.966067 0.896712
vt 0.951654 0.974462
vt 0.953489 0.968460
vt 0.950504 0.968377
vt 0.947867 0.968493
vt 0.124849 0.500602
vt 0.187651 0.500602
vt 0.189254 0.503933
vt 0.180000 0.370651
vt 0.156250 0.500000
vt 0.178376 0.374864
vt 0.156250 0.375000
vt 0.132500 0.370651
vt 0.134124 0.374864
vt 0.123246 0.503933
s 0
usemtl Material.003
f 3/1/1 22/2/1 29/3/1
f 40/4/1 13/5/1 17/6/1
f 2/7/2 41/8/2 1/8/2
f 1/8/3 43/1/3 3/1/3
f 3/1/4 44/9/4 4/9/4
f 4/9/5 45/10/5 5/10/5
f 5/10/6 46/11/6 6/11/6
f 6/11/7 47/12/7 7/12/7
f 7/12/8 48/13/8 8/13/8
f 8/13/9 49/14/9 9/14/9
f 9/14/10 50/15/10 10/15/10
f 10/15/11 51/16/11 11/16/11
f 11/16/12 52/17/12 12/17/12
f 12/17/13 53/5/13 13/5/13
f 13/5/14 54/18/14 14/18/14
f 14/18/15 55/19/15 15/19/15
f 15/19/16 56/20/16 16/20/16
f 16/20/17 57/6/17 17/6/17
f 17/6/18 58/21/18 18/21/18
f 18/21/19 59/22/19 19/22/19
f 19/22/20 60/23/20 20/23/20
f 20/23/21 61/24/21 21/24/21
f 21/24/22 62/2/22 22/2/22
f 22/2/23 63/25/23 23/25/23
f 23/25/24 64/26/24 24/26/24
f 24/26/25 65/27/25 25/27/25
f 25/27/26 66/28/26 26/28/26
f 26/28/27 67/29/27 27/29/27
f 27/29/28 68/30/28 28/30/28
f 28/30/29 69/3/29 29/3/29
f 29/3/30 70/31/30 30/31/30
f 30/31/31 71/32/31 31/32/31
f 31/32/32 72/33/32 32/33/32
f 32/33/33 73/34/33 33/34/33
f 33/34/34 74/35/34 34/35/34
f 34/35/35 75/36/35 35/36/35
f 35/36/36 42/7/36 2/7/36
f 36/37/37 77/38/37 37/38/37
f 37/38/38 78/39/38 38/39/38
f 38/39/39 79/40/39 39/40/39
f 39/40/40 80/4/40 40/4/40
f 40/4/41 76/37/41 36/37/41
f 90/41/42 84/42/42 81/43/42
f 84/42/43 83/44/43 81/43/43
f 85/45/44 86/46/44 84/42/44
f 86/46/45 87/47/45 89/48/45
f 88/49/44 85/45/44 90/41/44
f 89/48/46 90/41/46 82/50/46
f 35/36/1 2/7/1 1/8/1
f 35/36/1 1/8/1 3/1/1
f 34/35/1 35/36/1 3/1/1
f 33/34/1 34/35/1 3/1/1
f 31/32/1 32/33/1 33/34/1
f 29/3/1 30/31/1 31/32/1
f 27/29/1 28/30/1 29/3/1
f 25/27/1 26/28/1 27/29/1
f 23/25/1 24/26/1 25/27/1
f 25/27/1 27/29/1 29/3/1
f 29/3/1 31/32/1 33/34/1
f 9/14/1 10/15/1 11/16/1
f 11/16/1 12/17/1 13/5/1
f 11/16/1 13/5/1 36/37/1
f 8/13/1 9/14/1 11/16/1
f 11/16/1 36/37/1 37/38/1
f 37/38/1 38/39/1 18/21/1
f 18/21/1 19/22/1 20/23/1
f 18/21/1 20/23/1 21/24/1
f 8/13/1 11/16/1 37/38/1
f 7/12/1 8/13/1 37/38/1
f 37/38/1 18/21/1 21/24/1
f 7/12/1 37/38/1 21/24/1
f 6/11/1 7/12/1 21/24/1
f 6/11/1 21/24/1 22/2/1
f 5/10/1 6/11/1 22/2/1
f 23/25/1 25/27/1 29/3/1
f 4/9/1 5/10/1 22/2/1
f 22/2/1 23/25/1 29/3/1
f 29/3/1 33/34/1 3/1/1
f 3/1/1 4/9/1 22/2/1
f 17/6/1 18/21/1 38/39/1
f 17/6/1 38/39/1 39/40/1
f 15/19/1 16/20/1 17/6/1
f 13/5/1 14/18/1 15/19/1
f 40/4/1 36/37/1 13/5/1
f 17/6/1 39/40/1 40/4/1
f 13/5/1 15/19/1 17/6/1
f 2/7/2 42/7/2 41/8/2
f 1/8/3 41/8/3 43/1/3
f 3/1/4 43/1/4 44/9/4
f 4/9/5 44/9/5 45/10/5
f 5/10/6 45/10/6 46/11/6
f 6/11/7 46/11/7 47/12/7
f 7/12/8 47/12/8 48/13/8
f 8/13/9 48/13/9 49/14/9
f 9/14/10 49/14/10 50/15/10
f 10/15/11 50/15/11 51/16/11
f 11/16/12 51/16/12 52/17/12
f 12/17/13 52/17/13 53/5/13
f 13/5/14 53/5/14 54/18/14
f 14/18/15 54/18/15 55/19/15
f 15/19/16 55/19/16 56/20/16
f 16/20/17 56/20/17 57/6/17
f 17/6/18 57/6/18 58/21/18
f 18/21/19 58/21/19 59/22/19
f 19/22/20 59/22/20 60/23/20
f 20/23/21 60/23/21 61/24/21
f 21/24/22 61/24/22 62/2/22
f 22/2/23 62/2/23 63/25/23
f 23/25/24 63/25/24 64/26/24
f 24/26/25 64/26/25 65/27/25
f 25/27/26 65/27/26 66/28/26
f 26/28/27 66/28/27 67/29/27
f 27/29/28 67/29/28 68/30/28
f 28/30/29 68/30/29 69/3/29
f 29/3/30 69/3/30 70/31/30
f 30/31/31 70/31/31 71/32/31
f 31/32/32 71/32/32 72/33/32
f 32/33/33 72/33/33 73/34/33
f 33/34/34 73/34/34 74/35/34
f 34/35/35 74/35/35 75/36/35
f 35/36/36 75/36/36 42/7/36
f 36/37/37 76/37/37 77/38/37
f 37/38/38 77/38/38 78/39/38
f 38/39/39 78/39/39 79/40/39
f 39/40/40 79/40/40 80/4/40
f 40/4/41 80/4/41 76/37/41
f 81/43/42 82/50/42 90/41/42
f 90/41/47 85/45/47 84/42/47
f 84/42/43 86/46/43 83/44/43
f 85/45/44 87/47/44 86/46/44
f 89/48/45 83/44/45 86/46/45
f 87/47/45 88/49/45 89/48/45
f 88/49/44 87/47/44 85/45/44
f 89/48/46 88/49/46 90/41/46
