# Blender 5.0.1
# www.blender.org
mtllib glyphs.mtl
o 022.001
v -0.201166 1.001263 -0.276488
v -0.202906 1.000754 -0.276045
v -0.199589 1.001746 -0.276986
v -0.192351 1.002890 -0.274608
v -0.185090 1.004029 -0.272186
v -0.181961 1.004943 -0.272979
v -0.163954 1.010291 -0.277913
v -0.163840 1.010813 -0.280064
v -0.188952 1.007540 -0.291331
v -0.191733 1.007160 -0.292504
v -0.192852 1.007497 -0.295100
v -0.193962 1.007843 -0.297729
v -0.194981 1.007765 -0.298422
v -0.196011 1.007677 -0.299084
v -0.199640 1.005927 -0.295176
v -0.203198 1.004165 -0.291141
v -0.194634 1.005159 -0.286767
v -0.186153 1.006181 -0.282598
v -0.186483 1.005926 -0.281827
v -0.186928 1.005636 -0.281022
v -0.191619 1.004860 -0.282410
v -0.196225 1.004113 -0.283840
v -0.197294 1.004213 -0.285360
v -0.199230 1.004142 -0.287015
v -0.205363 1.002955 -0.288087
v -0.212542 1.001585 -0.289421
v -0.216275 1.000909 -0.290277
v -0.218015 1.000889 -0.291953
v -0.219725 1.000872 -0.293615
v -0.221508 1.000406 -0.293399
v -0.227566 0.999333 -0.294889
v -0.232380 0.998602 -0.296600
v -0.233961 0.997190 -0.292081
v -0.234669 0.995851 -0.286988
v -0.230313 0.996714 -0.286313
v -0.226252 0.997644 -0.286229
v -0.223964 0.997799 -0.284583
v -0.221634 0.997970 -0.282961
v -0.219344 0.998589 -0.283326
v -0.217010 0.999224 -0.283712
v -0.211562 0.999981 -0.281472
v -0.204590 1.000734 -0.277666
v -0.200110 0.996746 -0.277529
v -0.201850 0.996237 -0.277086
v -0.198533 0.997229 -0.278027
v -0.191295 0.998373 -0.275650
v -0.184034 0.999512 -0.273227
v -0.180905 1.000427 -0.274020
v -0.162898 1.005774 -0.278954
v -0.162784 1.006296 -0.281105
v -0.187896 1.003023 -0.292372
v -0.190677 1.002643 -0.293545
v -0.191796 1.002980 -0.296142
v -0.192906 1.003327 -0.298770
v -0.193925 1.003248 -0.299464
v -0.194955 1.003160 -0.300125
v -0.198584 1.001411 -0.296217
v -0.202143 0.999649 -0.292182
v -0.193578 1.000642 -0.287808
v -0.185097 1.001664 -0.283640
v -0.185427 1.001409 -0.282868
v -0.185872 1.001119 -0.282063
v -0.190563 1.000343 -0.283451
v -0.195169 0.999596 -0.284881
v -0.196238 0.999696 -0.286401
v -0.198174 0.999625 -0.288056
v -0.204307 0.998438 -0.289128
v -0.211486 0.997068 -0.290463
v -0.215219 0.996392 -0.291319
v -0.216959 0.996372 -0.292994
v -0.218669 0.996355 -0.294656
v -0.220452 0.995889 -0.294441
v -0.226510 0.994816 -0.295930
v -0.231324 0.994085 -0.297641
v -0.232905 0.992673 -0.293122
v -0.233613 0.991334 -0.288029
v -0.229257 0.992197 -0.287354
v -0.225196 0.993127 -0.287270
v -0.222908 0.993282 -0.285624
v -0.220578 0.993453 -0.284002
v -0.218288 0.994072 -0.284367
v -0.215954 0.994707 -0.284754
v -0.210506 0.995464 -0.282514
v -0.203534 0.996217 -0.278707
vn -0.2221 0.9501 0.2190
vn 0.2854 -0.1514 0.9464
vn 0.3359 -0.1363 0.9320
vn -0.2607 -0.2743 0.9256
vn -0.2651 -0.2750 0.9242
vn 0.2841 -0.1518 0.9467
vn 0.3017 -0.1466 0.9421
vn 0.9737 0.2043 0.1011
vn 0.3603 0.2887 -0.8870
vn 0.3391 0.2859 -0.8963
vn 0.8923 0.2886 -0.3471
vn 0.8953 0.2877 -0.3401
vn 0.5196 0.3054 -0.7979
vn 0.4962 0.3035 -0.8134
vn -0.7298 -0.0131 -0.6835
vn -0.7453 -0.0206 -0.6664
vn -0.4073 -0.2945 0.8645
vn -0.3931 -0.2928 0.8716
vn -0.8592 -0.0845 -0.5046
vn 0.2319 0.2697 -0.9346
vn 0.2449 0.2718 -0.9307
vn 0.7879 0.3072 -0.5337
vn 0.6110 0.3107 -0.7281
vn 0.1196 0.2495 -0.9610
vn 0.1303 0.2515 -0.9590
vn 0.1711 0.2591 -0.9506
vn 0.6570 0.3118 -0.6863
vn 0.6608 0.3119 -0.6827
vn -0.1655 0.1846 -0.9688
vn 0.1865 0.2619 -0.9469
vn 0.2839 0.2779 -0.9177
vn -0.9221 -0.1317 -0.3638
vn -0.9659 -0.1837 -0.1826
vn -0.1008 -0.2458 0.9641
vn 0.0297 -0.2179 0.9755
vn -0.5418 -0.3070 0.7824
vn -0.5288 -0.3061 0.7916
vn 0.2011 -0.1752 0.9638
vn 0.2067 -0.1737 0.9629
vn -0.3304 -0.2847 0.8999
vn -0.4326 -0.2973 0.8512
vn -0.6570 -0.3118 0.6864
vn -0.8994 -0.1129 -0.4224
vt 0.942527 0.942582
vt 0.941010 0.928437
vt 0.953516 0.900791
vt 0.956472 0.936660
vt 0.955032 0.938845
vt 0.953594 0.940787
vt 0.953433 0.951592
vt 0.953324 0.962446
vt 0.950740 0.966378
vt 0.935357 0.988860
vt 0.932332 0.988142
vt 0.928720 0.949433
vt 0.928424 0.945177
vt 0.925370 0.942603
vt 0.922268 0.940029
vt 0.921795 0.938363
vt 0.921372 0.936694
vt 0.928496 0.933345
vt 0.935762 0.930142
vt 0.937727 0.943559
vt 0.939449 0.956779
vt 0.940672 0.956643
vt 0.941995 0.956365
vt 0.942310 0.949424
vt 0.940936 0.940513
vt 0.939572 0.937209
vt 0.942583 0.918136
vt 0.943177 0.912714
vt 0.941691 0.909669
vt 0.940208 0.906671
vt 0.941355 0.904334
vt 0.942180 0.895495
vt 0.942108 0.888256
vt 0.949102 0.887938
vt 0.956472 0.889040
vt 0.955332 0.895236
vt 0.954700 0.904569
vt 0.955832 0.908394
vt 0.954238 0.911359
vt 0.952593 0.914376
vt 0.953095 0.922691
vt 0.955034 0.933712
s 0
usemtl glyph
f 22/1/1 25/2/1 36/3/1
f 2/4/2 43/5/2 1/5/2
f 1/5/3 45/6/3 3/6/3
f 3/6/4 46/7/4 4/7/4
f 4/7/5 47/8/5 5/8/5
f 5/8/6 48/9/6 6/9/6
f 6/9/7 49/10/7 7/10/7
f 7/10/8 50/11/8 8/11/8
f 8/11/9 51/12/9 9/12/9
f 9/12/10 52/13/10 10/13/10
f 10/13/11 53/14/11 11/14/11
f 11/14/12 54/15/12 12/15/12
f 12/15/13 55/16/13 13/16/13
f 13/16/14 56/17/14 14/17/14
f 14/17/15 57/18/15 15/18/15
f 15/18/16 58/19/16 16/19/16
f 16/19/17 59/20/17 17/20/17
f 17/20/18 60/21/18 18/21/18
f 19/22/19 62/23/19 20/23/19
f 20/23/20 63/24/20 21/24/20
f 21/24/21 64/1/21 22/1/21
f 22/1/22 65/25/22 23/25/22
f 23/25/23 66/26/23 24/26/23
f 24/26/24 67/2/24 25/2/24
f 25/2/25 68/27/25 26/27/25
f 26/27/26 69/28/26 27/28/26
f 27/28/27 70/29/27 28/29/27
f 28/29/28 71/30/28 29/30/28
f 29/30/29 72/31/29 30/31/29
f 30/31/30 73/32/30 31/32/30
f 32/33/31 73/32/31 74/33/31
f 32/33/32 75/34/32 33/34/32
f 33/34/33 76/35/33 34/35/33
f 34/35/34 77/36/34 35/36/34
f 35/36/35 78/3/35 36/3/35
f 36/3/36 79/37/36 37/37/36
f 37/37/37 80/38/37 38/38/37
f 38/38/38 81/39/38 39/39/38
f 39/39/39 82/40/39 40/40/39
f 40/40/40 83/41/40 41/41/40
f 41/41/41 84/42/41 42/42/41
f 42/42/42 44/4/42 2/4/42
f 18/21/43 61/22/43 19/22/43
f 42/42/1 2/4/1 1/5/1
f 42/42/1 1/5/1 3/6/1
f 41/41/1 42/42/1 3/6/1
f 4/7/1 5/8/1 6/9/1
f 41/41/1 3/6/1 4/7/1
f 38/38/1 39/39/1 40/40/1
f 40/40/1 41/41/1 4/7/1
f 4/7/1 6/9/1 7/10/1
f 7/10/1 8/11/1 9/12/1
f 7/10/1 9/12/1 10/13/1
f 40/40/1 4/7/1 7/10/1
f 37/37/1 38/38/1 40/40/1
f 34/35/1 35/36/1 36/3/1
f 36/3/1 37/37/1 40/40/1
f 11/14/1 12/15/1 13/16/1
f 13/16/1 14/17/1 15/18/1
f 15/18/1 16/19/1 17/20/1
f 15/18/1 17/20/1 18/21/1
f 11/14/1 13/16/1 15/18/1
f 10/13/1 11/14/1 15/18/1
f 10/13/1 15/18/1 18/21/1
f 36/3/1 40/40/1 7/10/1
f 33/34/1 34/35/1 36/3/1
f 31/32/1 32/33/1 33/34/1
f 28/29/1 29/30/1 30/31/1
f 30/31/1 31/32/1 33/34/1
f 7/10/1 10/13/1 18/21/1
f 7/10/1 18/21/1 19/22/1
f 30/31/1 33/34/1 36/3/1
f 27/28/1 28/29/1 30/31/1
f 27/28/1 30/31/1 36/3/1
f 7/10/1 19/22/1 20/23/1
f 36/3/1 7/10/1 20/23/1
f 26/27/1 27/28/1 36/3/1
f 23/25/1 24/26/1 25/2/1
f 25/2/1 26/27/1 36/3/1
f 36/3/1 20/23/1 21/24/1
f 22/1/1 23/25/1 25/2/1
f 36/3/1 21/24/1 22/1/1
f 2/4/2 44/4/2 43/5/2
f 1/5/3 43/5/3 45/6/3
f 3/6/4 45/6/4 46/7/4
f 4/7/5 46/7/5 47/8/5
f 5/8/6 47/8/6 48/9/6
f 6/9/7 48/9/7 49/10/7
f 7/10/8 49/10/8 50/11/8
f 8/11/9 50/11/9 51/12/9
f 9/12/10 51/12/10 52/13/10
f 10/13/11 52/13/11 53/14/11
f 11/14/12 53/14/12 54/15/12
f 12/15/13 54/15/13 55/16/13
f 13/16/14 55/16/14 56/17/14
f 14/17/15 56/17/15 57/18/15
f 15/18/16 57/18/16 58/19/16
f 16/19/17 58/19/17 59/20/17
f 17/20/18 59/20/18 60/21/18
f 19/22/19 61/22/19 62/23/19
f 20/23/20 62/23/20 63/24/20
f 21/24/21 63/24/21 64/1/21
f 22/1/22 64/1/22 65/25/22
f 23/25/23 65/25/23 66/26/23
f 24/26/24 66/26/24 67/2/24
f 25/2/25 67/2/25 68/27/25
f 26/27/26 68/27/26 69/28/26
f 27/28/27 69/28/27 70/29/27
f 28/29/28 70/29/28 71/30/28
f 29/30/29 71/30/29 72/31/29
f 30/31/30 72/31/30 73/32/30
f 32/33/31 31/32/31 73/32/31
f 32/33/32 74/33/32 75/34/32
f 33/34/33 75/34/33 76/35/33
f 34/35/34 76/35/34 77/36/34
f 35/36/35 77/36/35 78/3/35
f 36/3/36 78/3/36 79/37/36
f 37/37/37 79/37/37 80/38/37
f 38/38/38 80/38/38 81/39/38
f 39/39/39 81/39/39 82/40/39
f 40/40/40 82/40/40 83/41/40
f 41/41/41 83/41/41 84/42/41
f 42/42/42 84/42/42 44/4/42
f 18/21/43 60/21/43 61/22/43
