mtllib glyphs.mtl
# Blender 5.0.1
# www.blender.org
o 023
v 0.171367 0.929088 -0.036973
v 0.171981 0.929289 -0.037657
v 0.170966 0.928708 -0.036120
v 0.190444 0.914469 -0.024055
v 0.208587 0.901841 -0.013857
v 0.216147 0.907673 -0.027760
v 0.223271 0.913878 -0.042024
v 0.223274 0.914650 -0.043289
v 0.218411 0.916433 -0.043403
v 0.208139 0.919230 -0.042053
v 0.196911 0.922337 -0.040661
v 0.183259 0.926083 -0.038917
v 0.173598 0.928796 -0.037782
v 0.184179 0.922951 -0.034321
v 0.199572 0.918646 -0.036157
v 0.214697 0.914334 -0.037825
v 0.206880 0.906935 -0.021207
v 0.170258 0.925941 -0.038896
v 0.170872 0.926143 -0.039580
v 0.169857 0.925561 -0.038043
v 0.189335 0.911322 -0.025978
v 0.207478 0.898695 -0.015780
v 0.215038 0.904526 -0.029683
v 0.222162 0.910731 -0.043947
v 0.222165 0.911503 -0.045212
v 0.217302 0.913287 -0.045326
v 0.207030 0.916083 -0.043976
v 0.195802 0.919190 -0.042584
v 0.182150 0.922937 -0.040840
v 0.172489 0.925649 -0.039705
v 0.183070 0.919804 -0.036244
v 0.198463 0.915500 -0.038080
v 0.213588 0.911187 -0.039748
v 0.205770 0.903788 -0.023130
v 0.245406 0.871976 -0.005409
v 0.251897 0.911146 -0.073253
v 0.135476 0.914908 -0.012113
v 0.247137 0.876878 -0.002413
v 0.250383 0.896463 -0.036335
v 0.137207 0.919810 -0.009117
v 0.138958 0.930375 -0.027417
v 0.140709 0.940940 -0.045717
v 0.138977 0.936039 -0.048712
v 0.253629 0.916048 -0.070257
vn 0.2880 0.8171 0.4993
vn -0.8725 0.4389 -0.2149
vn -0.6290 -0.2317 0.7420
vn -0.6013 -0.2515 0.7584
vn 0.8462 -0.4613 0.2667
vn 0.8624 -0.4481 0.2358
vn 0.9576 -0.2468 -0.1485
vn 0.1899 0.4623 -0.8661
vn 0.0273 0.5142 -0.8572
vn 0.0353 0.5120 -0.8582
vn 0.0312 0.5131 -0.8577
vn 0.0423 0.5101 -0.8591
vn 0.0851 0.4975 -0.8633
vn -0.7010 0.5352 -0.4714
vn -0.0404 -0.5106 0.8589
vn -0.0500 -0.5079 0.8600
vn -0.8724 0.4389 -0.2150
vn 0.6091 0.2460 -0.7540
vn 0.9539 -0.2903 -0.0763
vn -0.2277 -0.4480 0.8646
vn 0.2886 0.8170 0.4993
vn -0.9539 0.2903 0.0763
vn -0.0645 0.5369 -0.8412
vn -0.5887 -0.6745 -0.4455
vt 0.916416 0.936292
vt 0.908382 0.894911
vt 0.920598 0.904875
vt 0.967191 0.896015
vt 0.939007 0.962959
vt 0.928801 0.981887
vt 0.927044 0.981778
vt 0.937587 0.894911
vt 0.969462 0.897212
vt 0.966918 0.905815
vt 0.958692 0.922476
vt 0.949850 0.940768
vt 0.931512 0.978759
vt 0.930374 0.981465
vt 0.931285 0.956986
vt 0.943277 0.931841
vt 0.954816 0.907004
vt 0.219037 0.688178
vt 0.250000 0.687500
vt 0.283323 0.693128
vt 0.280963 0.688178
vt 0.268862 0.493734
vt 0.266464 0.499987
vt 0.233536 0.499987
vt 0.231138 0.493734
vt 0.216677 0.693128
vt 0.250000 0.500000
s 0
usemtl glyph
f 4/1/1 5/2/1 17/3/1
f 7/4/1 12/5/1 1/6/1
f 1/6/2 20/7/2 3/7/2
f 3/7/3 21/1/3 4/1/3
f 4/1/4 22/2/4 5/2/4
f 5/2/5 23/8/5 6/8/5
f 6/8/6 24/4/6 7/4/6
f 7/4/7 25/9/7 8/9/7
f 8/9/8 26/10/8 9/10/8
f 10/11/9 26/10/9 27/11/9
f 11/12/10 27/11/10 28/12/10
f 12/5/11 28/12/11 29/5/11
f 12/5/12 30/13/12 13/13/12
f 13/13/13 19/14/13 2/14/13
f 2/14/14 18/6/14 1/6/14
f 14/15/15 32/16/15 15/16/15
f 15/16/16 33/17/16 16/17/16
f 17/3/17 33/17/17 34/3/17
f 17/3/18 31/15/18 14/15/18
f 44/18/19 39/19/19 35/20/19
f 38/21/20 37/22/20 35/20/20
f 39/19/21 40/23/21 38/21/21
f 40/23/22 42/24/22 43/25/22
f 42/24/21 39/19/21 44/18/21
f 43/25/23 44/18/23 36/26/23
f 14/15/1 3/7/1 4/1/1
f 5/2/1 6/8/1 7/4/1
f 7/4/1 16/17/1 17/3/1
f 17/3/1 14/15/1 4/1/1
f 5/2/1 7/4/1 17/3/1
f 15/16/1 16/17/1 7/4/1
f 7/4/1 8/9/1 9/10/1
f 10/11/1 11/12/1 12/5/1
f 7/4/1 9/10/1 10/11/1
f 14/15/1 15/16/1 7/4/1
f 1/6/1 3/7/1 14/15/1
f 13/13/1 2/14/1 1/6/1
f 7/4/1 10/11/1 12/5/1
f 12/5/1 13/13/1 1/6/1
f 1/6/1 14/15/1 7/4/1
f 1/6/2 18/6/2 20/7/2
f 3/7/3 20/7/3 21/1/3
f 4/1/4 21/1/4 22/2/4
f 5/2/5 22/2/5 23/8/5
f 6/8/6 23/8/6 24/4/6
f 7/4/7 24/4/7 25/9/7
f 8/9/8 25/9/8 26/10/8
f 10/11/9 9/10/9 26/10/9
f 11/12/10 10/11/10 27/11/10
f 12/5/11 11/12/11 28/12/11
f 12/5/12 29/5/12 30/13/12
f 13/13/13 30/13/13 19/14/13
f 2/14/14 19/14/14 18/6/14
f 14/15/15 31/15/15 32/16/15
f 15/16/16 32/16/16 33/17/16
f 17/3/17 16/17/17 33/17/17
f 17/3/18 34/3/18 31/15/18
f 35/20/19 36/26/19 44/18/19
f 39/19/19 38/21/19 35/20/19
f 38/21/20 40/23/20 37/22/20
f 39/19/21 41/27/21 40/23/21
f 43/25/22 37/22/22 40/23/22
f 40/23/24 41/27/24 42/24/24
f 42/24/21 41/27/21 39/19/21
f 43/25/23 42/24/23 44/18/23
