mtllib glyphs.mtl
# Blender 5.0.1
# www.blender.org
o 024
v 0.029869 1.034727 -0.319870
v 0.033713 1.035658 -0.325886
v 0.025073 1.034011 -0.315245
v 0.023298 1.034449 -0.318079
v 0.007651 1.037195 -0.335816
v 0.004854 1.037658 -0.338803
v -0.000856 1.038120 -0.341791
v -0.016086 1.039317 -0.349522
v -0.025605 1.040052 -0.354268
v -0.029582 1.040011 -0.354005
v -0.034316 1.040146 -0.354877
v -0.035017 1.040323 -0.356022
v -0.031475 1.041181 -0.361562
v -0.027286 1.042040 -0.367110
v -0.024333 1.041629 -0.364459
v -0.022510 1.041213 -0.361771
v -0.011559 1.040457 -0.356884
v 0.003775 1.039394 -0.350017
v 0.008156 1.039087 -0.348037
v 0.012942 1.038302 -0.342968
v 0.022710 1.036673 -0.332444
v 0.027640 1.035826 -0.326974
v 0.030319 1.035835 -0.327030
v 0.029869 1.030028 -0.320597
v 0.033713 1.030960 -0.326614
v 0.025073 1.029312 -0.315972
v 0.023298 1.029751 -0.318806
v 0.007651 1.032497 -0.336543
v 0.004854 1.032959 -0.339530
v -0.000856 1.033422 -0.342518
v -0.016086 1.034619 -0.350250
v -0.025605 1.035354 -0.354996
v -0.029582 1.035313 -0.354732
v -0.034316 1.035448 -0.355605
v -0.035017 1.035625 -0.356749
v -0.031475 1.036483 -0.362290
v -0.027286 1.037342 -0.367837
v -0.024333 1.036931 -0.365186
v -0.022510 1.036515 -0.362498
v -0.011559 1.035759 -0.357611
v 0.003775 1.034696 -0.350744
v 0.008156 1.034389 -0.348764
v 0.012942 1.033604 -0.343695
v 0.022710 1.031975 -0.333171
v 0.027640 1.031128 -0.327702
v 0.030319 1.031137 -0.327757
v 0.058793 1.037318 -0.406076
v -0.058793 1.037318 -0.406076
v 0.041325 1.020559 -0.291160
v -0.041325 1.020559 -0.291160
v -0.058793 1.043255 -0.405210
v 0.058793 1.043255 -0.405211
v -0.041325 1.026496 -0.290294
v 0.041325 1.026496 -0.290294
v -0.000000 1.043255 -0.405210
v -0.000000 1.026496 -0.290294
vn -0.0000 0.9882 0.1530
vn 0.8456 -0.0817 0.5276
vn 0.6984 -0.1095 0.7072
vn -0.8503 -0.0805 0.5200
vn -0.7538 -0.1005 0.6494
vn -0.7340 -0.1039 0.6712
vn -0.4679 -0.1352 0.8734
vn -0.4570 -0.1361 0.8790
vn -0.4504 -0.1366 0.8823
vn 0.0670 -0.1526 0.9860
vn -0.1835 -0.1504 0.9715
vn -0.8553 -0.0793 0.5120
vn -0.8454 0.0817 -0.5278
vn -0.8014 0.0915 -0.5911
vn 0.6724 0.1132 -0.7315
vn 0.8307 0.0852 -0.5502
vn 0.4115 0.1394 -0.9007
vn 0.4128 0.1393 -0.9001
vn 0.4160 0.1391 -0.8987
vn 0.7312 0.1044 -0.6742
vn 0.7369 0.1034 -0.6680
vn 0.7468 0.1018 -0.6573
vn -0.0209 0.1530 -0.9880
vn 0.3226 0.1448 -0.9354
vn -0.9889 -0.0215 0.1472
vn -0.0000 -0.1443 0.9895
vn 0.9889 -0.0215 0.1472
vn -0.0000 0.1443 -0.9895
vn -0.0000 0.9895 0.1443
vn -0.0005 0.1530 -0.9882
vt 0.934193 0.896444
vt 0.940697 0.937484
vt 0.939729 0.946495
vt 0.942363 0.990610
vt 0.932269 0.990299
vt 0.951567 0.988709
vt 0.949627 0.984395
vt 0.941047 0.952119
vt 0.943557 0.913640
vt 0.945446 0.898806
vt 0.948879 0.894392
vt 0.951567 0.888197
vt 0.950772 0.886473
vt 0.941475 0.886188
vt 0.931662 0.886652
vt 0.932462 0.892189
vt 0.931345 0.913055
vt 0.927385 0.936333
vt 0.926276 0.942998
vt 0.928481 0.952588
vt 0.933192 0.972301
vt 0.935756 0.982375
vt 0.933588 0.985446
vt 0.132500 0.370651
vt 0.124849 0.500602
vt 0.123246 0.503933
vt 0.178376 0.374864
vt 0.156250 0.375000
vt 0.187651 0.500602
vt 0.180000 0.370651
vt 0.189254 0.503933
vt 0.156250 0.500000
vt 0.134124 0.374864
s 0
usemtl glyph
f 16/1/1 7/2/1 6/3/1
f 1/4/2 25/5/2 2/5/2
f 3/6/3 24/4/3 1/4/3
f 4/7/4 26/6/4 3/6/4
f 5/8/5 27/7/5 4/7/5
f 6/3/6 28/8/6 5/8/6
f 7/2/7 29/3/7 6/3/7
f 8/9/8 30/2/8 7/2/8
f 9/10/9 31/9/9 8/9/9
f 10/11/10 32/10/10 9/10/10
f 11/12/11 33/11/11 10/11/11
f 12/13/12 34/12/12 11/12/12
f 13/14/13 35/13/13 12/13/13
f 14/15/14 36/14/14 13/14/14
f 15/16/15 37/15/15 14/15/15
f 16/1/16 38/16/16 15/16/16
f 17/17/17 39/1/17 16/1/17
f 17/17/18 41/18/18 40/17/18
f 19/19/19 41/18/19 18/18/19
f 20/20/20 42/19/20 19/19/20
f 21/21/21 43/20/21 20/20/21
f 22/22/22 44/21/22 21/21/22
f 23/23/23 45/22/23 22/22/23
f 2/5/24 46/23/24 23/23/24
f 50/24/25 51/25/25 48/26/25
f 54/27/26 56/28/26 50/24/26
f 52/29/27 49/30/27 47/31/27
f 51/25/28 52/29/28 47/31/28
f 55/32/29 54/27/29 52/29/29
f 53/33/29 55/32/29 51/25/29
f 1/4/1 2/5/1 23/23/1
f 22/22/1 21/21/1 20/20/1
f 1/4/1 23/23/1 22/22/1
f 4/7/1 3/6/1 1/4/1
f 5/8/1 4/7/1 1/4/1
f 1/4/1 22/22/1 20/20/1
f 20/20/1 19/19/1 18/18/1
f 18/18/1 17/17/1 16/1/1
f 16/1/1 15/16/1 14/15/1
f 14/15/1 13/14/1 12/13/1
f 12/13/1 11/12/1 10/11/1
f 12/13/1 10/11/1 9/10/1
f 16/1/1 14/15/1 12/13/1
f 20/20/1 18/18/1 16/1/1
f 5/8/1 1/4/1 20/20/1
f 6/3/1 5/8/1 20/20/1
f 16/1/1 12/13/1 9/10/1
f 16/1/1 9/10/1 8/9/1
f 6/3/1 20/20/1 16/1/1
f 16/1/1 8/9/1 7/2/1
f 1/4/2 24/4/2 25/5/2
f 3/6/3 26/6/3 24/4/3
f 4/7/4 27/7/4 26/6/4
f 5/8/5 28/8/5 27/7/5
f 6/3/6 29/3/6 28/8/6
f 7/2/7 30/2/7 29/3/7
f 8/9/8 31/9/8 30/2/8
f 9/10/9 32/10/9 31/9/9
f 10/11/10 33/11/10 32/10/10
f 11/12/11 34/12/11 33/11/11
f 12/13/12 35/13/12 34/12/12
f 13/14/13 36/14/13 35/13/13
f 14/15/14 37/15/14 36/14/14
f 15/16/15 38/16/15 37/15/15
f 16/1/16 39/1/16 38/16/16
f 17/17/17 40/17/17 39/1/17
f 17/17/18 18/18/18 41/18/18
f 19/19/19 42/19/19 41/18/19
f 20/20/20 43/20/20 42/19/20
f 21/21/21 44/21/21 43/20/21
f 22/22/22 45/22/22 44/21/22
f 23/23/23 46/23/23 45/22/23
f 2/5/24 25/5/24 46/23/24
f 50/24/25 53/33/25 51/25/25
f 50/24/26 49/30/26 54/27/26
f 56/28/26 53/33/26 50/24/26
f 52/29/27 54/27/27 49/30/27
f 47/31/28 48/26/28 51/25/28
f 51/25/30 55/32/30 52/29/30
f 55/32/29 56/28/29 54/27/29
f 53/33/29 56/28/29 55/32/29
