mtllib glyphs.mtl
# Blender 5.0.1
# www.blender.org
o 025
v -0.046049 0.804780 0.144257
v -0.049081 0.806125 0.142786
v -0.042924 0.803527 0.145647
v -0.037057 0.808819 0.141025
v -0.038501 0.809465 0.140319
v -0.039951 0.810036 0.139683
v -0.040200 0.811064 0.138694
v -0.040270 0.820912 0.129373
v -0.036537 0.831007 0.120065
v -0.035230 0.833321 0.117961
v -0.032041 0.834787 0.116783
v -0.028853 0.836253 0.115605
v -0.028517 0.835645 0.116202
v -0.025253 0.827533 0.124092
v -0.024999 0.821195 0.130106
v -0.025188 0.820084 0.131144
v -0.026892 0.819301 0.131773
v -0.028458 0.818391 0.132532
v -0.025642 0.817472 0.133586
v -0.020000 0.816710 0.134677
v -0.016980 0.816717 0.134869
v -0.016991 0.817259 0.134355
v -0.017918 0.825394 0.126597
v -0.020376 0.833128 0.119118
v -0.027648 0.844972 0.107434
v -0.028480 0.844638 0.107696
v -0.045633 0.835442 0.115272
v -0.044883 0.833121 0.117518
v -0.043924 0.830872 0.119709
v -0.044744 0.829185 0.121251
v -0.047681 0.818337 0.131322
v -0.046970 0.810309 0.138965
v -0.047969 0.807945 0.141136
v -0.036630 0.835535 0.115775
v -0.033587 0.836933 0.114651
v -0.030544 0.838332 0.113527
v -0.031188 0.839108 0.112751
v -0.031832 0.839883 0.111975
v -0.034875 0.838485 0.113099
v -0.037917 0.837086 0.114223
v -0.037273 0.836310 0.114999
v -0.045866 0.802137 0.141463
v -0.048897 0.803481 0.139992
v -0.042741 0.800884 0.142853
v -0.036874 0.806175 0.138231
v -0.038318 0.806821 0.137525
v -0.039768 0.807393 0.136889
v -0.040017 0.808421 0.135901
v -0.040087 0.818268 0.126579
v -0.036354 0.828363 0.117271
v -0.035047 0.830677 0.115167
v -0.031858 0.832144 0.113989
v -0.028670 0.833609 0.112811
v -0.028334 0.833002 0.113408
v -0.025069 0.824889 0.121298
v -0.024816 0.818551 0.127312
v -0.025004 0.817441 0.128350
v -0.026708 0.816657 0.128980
v -0.028274 0.815747 0.129738
v -0.025459 0.814828 0.130792
v -0.019817 0.814066 0.131884
v -0.016797 0.814073 0.132075
v -0.016808 0.814615 0.131561
v -0.017735 0.822750 0.123803
v -0.020193 0.830485 0.116324
v -0.027465 0.842328 0.104640
v -0.028297 0.841994 0.104902
v -0.045450 0.832798 0.112478
v -0.044700 0.830477 0.114724
v -0.043741 0.828228 0.116915
v -0.044561 0.826541 0.118457
v -0.047497 0.815694 0.128528
v -0.046787 0.807665 0.136171
v -0.047786 0.805302 0.138342
v -0.036446 0.832891 0.112981
v -0.033404 0.834290 0.111857
v -0.030361 0.835688 0.110733
v -0.031005 0.836464 0.109957
v -0.031649 0.837240 0.109181
v -0.034691 0.835841 0.110305
v -0.037734 0.834442 0.111429
v -0.037090 0.833666 0.112205
v -0.079835 0.782047 0.150353
v -0.002299 0.775578 0.161558
v -0.043578 0.864994 0.074340
v -0.080121 0.786164 0.154708
v -0.041353 0.782929 0.160311
v -0.043864 0.869111 0.078696
v -0.022950 0.867366 0.081718
v -0.002036 0.865621 0.084740
v -0.001750 0.861504 0.080385
v -0.002585 0.779694 0.165913
vn -0.0476 0.6865 0.7256
vn -0.5472 -0.6256 0.5560
vn -0.5117 -0.6406 0.5726
vn 0.7661 -0.4410 0.4675
vn 0.5503 0.6242 -0.5545
vn 0.5058 0.6429 -0.5752
vn 0.9840 0.1572 -0.0842
vn 0.9989 0.0365 0.0310
vn 0.9638 -0.1592 0.2139
vn 0.9215 -0.2502 0.2972
vn 0.5059 -0.6098 0.6101
vn 0.5057 -0.6099 0.6102
vn -0.9291 -0.2971 0.2202
vn -0.9596 -0.2330 0.1575
vn -0.9984 -0.0538 -0.0146
vn -0.9913 0.0569 -0.1189
vn -0.5057 0.6098 -0.6102
vn -0.6015 0.5602 -0.5695
vn -0.4424 -0.6657 0.6009
vn -0.2246 -0.7151 0.6619
vn -0.0416 -0.7271 0.6853
vn 0.9988 0.0436 0.0242
vn 0.9955 0.0923 -0.0221
vn 0.9737 0.1938 -0.1195
vn 0.9150 0.3212 -0.2439
vn -0.4516 0.6331 -0.6287
vn -0.5685 0.5786 -0.5848
vn -0.9729 -0.1964 0.1221
vn -0.9552 -0.2436 0.1678
vn -0.9401 0.2148 -0.2649
vn -0.9797 0.1094 -0.1678
vn -0.9968 -0.0792 0.0095
vn -0.9536 0.1849 -0.2375
vn -0.9098 0.2701 -0.3152
vn -0.5058 0.6098 -0.6102
vn -0.8612 -0.3962 0.3184
vn -0.8611 -0.3963 0.3185
vn 0.5057 -0.6098 0.6102
vn 0.5058 -0.6098 0.6102
vn 0.8611 0.3963 -0.3185
vn -0.1575 -0.7228 0.6728
vn -0.9506 0.1920 -0.2439
vn -0.0477 0.6861 0.7260
vn 0.1575 0.7228 -0.6728
vn 0.9989 0.0294 0.0378
vn 0.1576 0.7224 -0.6732
vt 0.936614 0.909455
vt 0.935911 0.910875
vt 0.915494 0.934521
vt 0.936258 0.888662
vt 0.942501 0.901029
vt 0.941230 0.902829
vt 0.965700 0.982376
vt 0.960176 0.985368
vt 0.954508 0.988136
vt 0.945387 0.975174
vt 0.948019 0.973736
vt 0.950647 0.972475
vt 0.951283 0.970050
vt 0.953362 0.946662
vt 0.948895 0.922430
vt 0.947089 0.916846
vt 0.941851 0.913149
vt 0.928638 0.929928
vt 0.926938 0.944968
vt 0.927044 0.947619
vt 0.929843 0.949594
vt 0.932378 0.951861
vt 0.927312 0.953856
vt 0.917378 0.955290
vt 0.912143 0.955071
vt 0.912270 0.953783
vt 0.921293 0.916311
vt 0.937634 0.889511
vt 0.965550 0.912502
vt 0.963788 0.917966
vt 0.961679 0.923245
vt 0.962765 0.927307
vt 0.965700 0.953272
vt 0.962872 0.972296
vt 0.964134 0.977978
vt 0.944958 0.908154
vt 0.949956 0.911680
vt 0.939960 0.904628
vt 0.947499 0.904555
vt 0.952497 0.908082
vt 0.951227 0.909881
vt 0.219037 0.688178
vt 0.250000 0.687500
vt 0.283323 0.693128
vt 0.280963 0.688178
vt 0.268862 0.493734
vt 0.266464 0.499987
vt 0.233536 0.499987
vt 0.231138 0.493734
vt 0.216677 0.693128
vt 0.250000 0.500000
s 0
usemtl glyph
f 12/1/1 13/2/1 23/3/1
f 25/4/1 38/5/1 37/6/1
f 2/7/2 42/8/2 1/8/2
f 1/8/3 44/9/3 3/9/3
f 4/10/4 44/9/4 45/10/4
f 4/10/5 46/11/5 5/11/5
f 5/11/6 47/12/6 6/12/6
f 6/12/7 48/13/7 7/13/7
f 8/14/8 48/13/8 49/14/8
f 8/14/9 50/15/9 9/15/9
f 9/15/10 51/16/10 10/16/10
f 10/16/11 52/17/11 11/17/11
f 11/17/12 53/1/12 12/1/12
f 12/1/13 54/2/13 13/2/13
f 13/2/14 55/18/14 14/18/14
f 14/18/15 56/19/15 15/19/15
f 15/19/16 57/20/16 16/20/16
f 16/20/17 58/21/17 17/21/17
f 17/21/18 59/22/18 18/22/18
f 18/22/19 60/23/19 19/23/19
f 19/23/20 61/24/20 20/24/20
f 20/24/21 62/25/21 21/25/21
f 21/25/22 63/26/22 22/26/22
f 23/3/23 63/26/23 64/3/23
f 24/27/24 64/3/24 65/27/24
f 25/4/25 65/27/25 66/4/25
f 25/4/26 67/28/26 26/28/26
f 26/28/27 68/29/27 27/29/27
f 27/29/28 69/30/28 28/30/28
f 28/30/29 70/31/29 29/31/29
f 29/31/30 71/32/30 30/32/30
f 30/32/31 72/33/31 31/33/31
f 31/33/32 73/34/32 32/34/32
f 32/34/33 74/35/33 33/35/33
f 33/35/34 43/7/34 2/7/34
f 35/36/35 75/37/35 34/37/35
f 36/38/17 76/36/17 35/36/17
f 37/6/36 77/38/36 36/38/36
f 38/5/37 78/6/37 37/6/37
f 39/39/38 79/5/38 38/5/38
f 40/40/39 80/39/39 39/39/39
f 41/41/40 81/40/40 40/40/40
f 34/37/40 82/41/40 41/41/40
f 92/42/41 87/43/41 83/44/41
f 86/45/42 85/46/42 83/44/42
f 87/43/43 88/47/43 86/45/43
f 88/47/44 90/48/44 91/49/44
f 90/48/43 87/43/43 92/42/43
f 91/49/45 92/42/45 84/50/45
f 33/35/1 2/7/1 1/8/1
f 1/8/1 3/9/1 4/10/1
f 4/10/1 5/11/1 6/12/1
f 1/8/1 4/10/1 6/12/1
f 32/34/1 33/35/1 1/8/1
f 30/32/1 31/33/1 32/34/1
f 27/29/1 28/30/1 29/31/1
f 29/31/1 30/32/1 32/34/1
f 32/34/1 1/8/1 6/12/1
f 32/34/1 6/12/1 7/13/1
f 29/31/1 32/34/1 7/13/1
f 29/31/1 7/13/1 8/14/1
f 38/5/1 26/28/1 27/29/1
f 39/39/1 38/5/1 27/29/1
f 29/31/1 8/14/1 9/15/1
f 40/40/1 39/39/1 27/29/1
f 41/41/1 40/40/1 27/29/1
f 27/29/1 29/31/1 9/15/1
f 27/29/1 9/15/1 10/16/1
f 34/37/1 41/41/1 27/29/1
f 36/38/1 35/36/1 34/37/1
f 23/3/1 24/27/1 36/38/1
f 21/25/1 22/26/1 23/3/1
f 19/23/1 20/24/1 21/25/1
f 17/21/1 18/22/1 19/23/1
f 16/20/1 17/21/1 19/23/1
f 19/23/1 21/25/1 23/3/1
f 34/37/1 27/29/1 10/16/1
f 34/37/1 10/16/1 11/17/1
f 16/20/1 19/23/1 23/3/1
f 15/19/1 16/20/1 23/3/1
f 36/38/1 34/37/1 11/17/1
f 36/38/1 11/17/1 12/1/1
f 14/18/1 15/19/1 23/3/1
f 13/2/1 14/18/1 23/3/1
f 23/3/1 36/38/1 12/1/1
f 36/38/1 24/27/1 25/4/1
f 25/4/1 26/28/1 38/5/1
f 37/6/1 36/38/1 25/4/1
f 2/7/2 43/7/2 42/8/2
f 1/8/3 42/8/3 44/9/3
f 4/10/4 3/9/4 44/9/4
f 4/10/5 45/10/5 46/11/5
f 5/11/6 46/11/6 47/12/6
f 6/12/7 47/12/7 48/13/7
f 8/14/8 7/13/8 48/13/8
f 8/14/9 49/14/9 50/15/9
f 9/15/10 50/15/10 51/16/10
f 10/16/11 51/16/11 52/17/11
f 11/17/12 52/17/12 53/1/12
f 12/1/13 53/1/13 54/2/13
f 13/2/14 54/2/14 55/18/14
f 14/18/15 55/18/15 56/19/15
f 15/19/16 56/19/16 57/20/16
f 16/20/17 57/20/17 58/21/17
f 17/21/18 58/21/18 59/22/18
f 18/22/19 59/22/19 60/23/19
f 19/23/20 60/23/20 61/24/20
f 20/24/21 61/24/21 62/25/21
f 21/25/22 62/25/22 63/26/22
f 23/3/23 22/26/23 63/26/23
f 24/27/24 23/3/24 64/3/24
f 25/4/25 24/27/25 65/27/25
f 25/4/26 66/4/26 67/28/26
f 26/28/27 67/28/27 68/29/27
f 27/29/28 68/29/28 69/30/28
f 28/30/29 69/30/29 70/31/29
f 29/31/30 70/31/30 71/32/30
f 30/32/31 71/32/31 72/33/31
f 31/33/32 72/33/32 73/34/32
f 32/34/33 73/34/33 74/35/33
f 33/35/34 74/35/34 43/7/34
f 35/36/35 76/36/35 75/37/35
f 36/38/17 77/38/17 76/36/17
f 37/6/36 78/6/36 77/38/36
f 38/5/37 79/5/37 78/6/37
f 39/39/38 80/39/38 79/5/38
f 40/40/39 81/40/39 80/39/39
f 41/41/40 82/41/40 81/40/40
f 34/37/40 75/37/40 82/41/40
f 83/44/41 84/50/41 92/42/41
f 87/43/41 86/45/41 83/44/41
f 86/45/42 88/47/42 85/46/42
f 87/43/43 89/51/43 88/47/43
f 91/49/44 85/46/44 88/47/44
f 88/47/46 89/51/46 90/48/46
f 90/48/43 89/51/43 87/43/43
f 91/49/45 90/48/45 92/42/45
