# Blender 5.0.1
# www.blender.org
mtllib glyphs.mtl
o 029.001
v 0.178397 1.013679 -0.307200
v 0.177643 1.014104 -0.308278
v 0.181131 1.011775 -0.301712
v 0.181250 1.011380 -0.300119
v 0.183134 1.011048 -0.300590
v 0.185374 1.010674 -0.301239
v 0.186392 1.010102 -0.299792
v 0.186334 1.009774 -0.298311
v 0.184808 1.010077 -0.298074
v 0.184136 1.009491 -0.294851
v 0.183483 1.008651 -0.290548
v 0.185014 1.008036 -0.289433
v 0.186946 1.007440 -0.288804
v 0.186108 1.006692 -0.284711
v 0.185273 1.005936 -0.280585
v 0.190174 1.004315 -0.278521
v 0.194789 1.002813 -0.276688
v 0.199035 1.000669 -0.271692
v 0.203211 0.998446 -0.266285
v 0.196568 0.997652 -0.256101
v 0.195320 0.997537 -0.254337
v 0.197112 0.996783 -0.252886
v 0.200704 0.995352 -0.250320
v 0.203223 0.994601 -0.249616
v 0.203955 0.995258 -0.253210
v 0.204122 0.995950 -0.256381
v 0.206936 0.996370 -0.261056
v 0.210064 0.996888 -0.266476
v 0.206099 1.000072 -0.276266
v 0.201142 1.003327 -0.285361
v 0.198059 1.003797 -0.284270
v 0.195622 1.004095 -0.283092
v 0.194688 1.004495 -0.283879
v 0.193723 1.004893 -0.284630
v 0.195349 1.005618 -0.289425
v 0.196943 1.006350 -0.294216
v 0.195252 1.008010 -0.299700
v 0.192938 1.010130 -0.306551
v 0.190087 1.011231 -0.308435
v 0.186974 1.012525 -0.310891
v 0.184377 1.014285 -0.315893
v 0.177341 1.009162 -0.308241
v 0.176587 1.009587 -0.309319
v 0.180075 1.007258 -0.302753
v 0.180194 1.006863 -0.301160
v 0.182078 1.006531 -0.301631
v 0.184318 1.006157 -0.302281
v 0.185336 1.005585 -0.300833
v 0.185278 1.005258 -0.299352
v 0.183752 1.005560 -0.299115
v 0.183080 1.004974 -0.295892
v 0.182427 1.004135 -0.291589
v 0.183958 1.003520 -0.290474
v 0.185890 1.002923 -0.289846
v 0.185052 1.002175 -0.285753
v 0.184217 1.001420 -0.281627
v 0.189118 0.999798 -0.279563
v 0.193733 0.998296 -0.277729
v 0.197979 0.996152 -0.272733
v 0.202155 0.993929 -0.267326
v 0.195512 0.993135 -0.257142
v 0.194264 0.993020 -0.255378
v 0.196056 0.992266 -0.253927
v 0.199648 0.990835 -0.251362
v 0.202167 0.990084 -0.250657
v 0.202899 0.990741 -0.254252
v 0.203066 0.991433 -0.257423
v 0.205880 0.991853 -0.262098
v 0.209008 0.992371 -0.267517
v 0.205043 0.995555 -0.277307
v 0.200086 0.998811 -0.286402
v 0.197003 0.999280 -0.285311
v 0.194566 0.999578 -0.284134
v 0.193632 0.999978 -0.284920
v 0.192667 1.000376 -0.285671
v 0.194294 1.001101 -0.290466
v 0.195887 1.001833 -0.295257
v 0.194197 1.003493 -0.300741
v 0.191882 1.005613 -0.307593
v 0.189031 1.006714 -0.309476
v 0.185918 1.008008 -0.311933
v 0.183321 1.009768 -0.316934
vn 0.2221 0.9501 0.2190
vn -0.8771 0.0966 0.4705
vn -0.9723 0.1992 0.1221
vn 0.1906 -0.2626 0.9459
vn 0.2264 -0.2688 0.9362
vn -0.8070 0.0531 0.5882
vn -0.1009 0.2458 -0.9640
vn -0.9541 0.2581 -0.1520
vn -0.9638 0.2479 -0.0979
vn -0.5996 -0.0441 0.7991
vn -0.3438 -0.1339 0.9295
vn -0.9548 0.2574 -0.1484
vn -0.9552 0.2571 -0.1464
vn -0.4166 -0.1106 0.9023
vn -0.3992 -0.1163 0.9094
vn -0.7561 0.0260 0.6539
vn -0.7829 0.0399 0.6209
vn -0.8084 0.3050 -0.5035
vn -0.7862 0.3074 -0.5362
vn -0.6362 -0.0290 0.7710
vn -0.5929 -0.0467 0.8039
vn -0.3064 -0.1452 0.9408
vn 0.9550 -0.2573 0.1475
vn 0.9737 -0.2279 0.0013
vn 0.8284 -0.3024 0.4715
vn 0.8381 -0.3008 0.4550
vn 0.9063 -0.1184 -0.4056
vn 0.8615 -0.0861 -0.5004
vn -0.2826 0.2777 -0.9181
vn -0.3869 0.2921 -0.8746
vn 0.6228 0.0346 -0.7816
vn 0.9217 -0.2779 0.2707
vn 0.9236 -0.2770 0.2649
vn 0.9331 -0.1419 -0.3305
vn 0.9254 -0.1347 -0.3543
vn 0.5656 0.0574 -0.8227
vn 0.6275 0.0326 -0.7779
vn 0.8702 -0.0918 -0.4841
vn -0.7155 0.3114 -0.6253
vn 0.6493 0.0234 -0.7601
vn -0.9743 0.2250 0.0120
vn -0.8081 0.0537 0.5866
vt 0.946018 0.916547
vt 0.945363 0.926310
vt 0.941129 0.947143
vt 0.947356 0.896610
vt 0.946518 0.905575
vt 0.947167 0.907791
vt 0.944440 0.908237
vt 0.941152 0.908649
vt 0.940540 0.911184
vt 0.941365 0.913147
vt 0.943501 0.912589
vt 0.949057 0.921971
vt 0.947598 0.924353
vt 0.948539 0.931345
vt 0.951729 0.936425
vt 0.946298 0.942022
vt 0.938046 0.956313
vt 0.935264 0.965999
vt 0.949189 0.975908
vt 0.951729 0.977569
vt 0.950095 0.980553
vt 0.946648 0.986073
vt 0.943676 0.988470
vt 0.940891 0.984046
vt 0.939068 0.979868
vt 0.932987 0.975184
vt 0.926114 0.969676
vt 0.926403 0.954206
vt 0.928353 0.939103
vt 0.932976 0.938802
vt 0.936790 0.938990
vt 0.938522 0.935827
vt 0.937627 0.937394
vt 0.933949 0.930300
vt 0.929421 0.924758
vt 0.928882 0.916396
vt 0.928475 0.905834
vt 0.931289 0.901659
vt 0.934159 0.896560
vt 0.935061 0.888328
vt 0.947807 0.894724
s 0
usemtl glyph
f 10/1/1 13/2/1 17/3/1
f 1/4/2 44/5/2 3/5/2
f 3/5/3 45/6/3 4/6/3
f 4/6/4 46/7/4 5/7/4
f 5/7/5 47/8/5 6/8/5
f 6/8/6 48/9/6 7/9/6
f 8/10/7 50/11/7 9/11/7
f 9/11/8 51/1/8 10/1/8
f 10/1/9 52/12/9 11/12/9
f 11/12/10 53/13/10 12/13/10
f 12/13/11 54/2/11 13/2/11
f 13/2/12 55/14/12 14/14/12
f 14/14/13 56/15/13 15/15/13
f 15/15/14 57/16/14 16/16/14
f 16/16/15 58/3/15 17/3/15
f 17/3/16 59/17/16 18/17/16
f 18/17/17 60/18/17 19/18/17
f 19/18/18 61/19/18 20/19/18
f 20/19/19 62/20/19 21/20/19
f 21/20/20 63/21/20 22/21/20
f 22/21/21 64/22/21 23/22/21
f 23/22/22 65/23/22 24/23/22
f 24/23/23 66/24/23 25/24/23
f 25/24/24 67/25/24 26/25/24
f 26/25/25 68/26/25 27/26/25
f 27/26/26 69/27/26 28/27/26
f 28/27/27 70/28/27 29/28/27
f 29/28/28 71/29/28 30/29/28
f 30/29/29 72/30/29 31/30/29
f 31/30/30 73/31/30 32/31/30
f 34/32/31 74/33/31 75/32/31
f 34/32/32 76/34/32 35/34/32
f 35/34/33 77/35/33 36/35/33
f 36/35/34 78/36/34 37/36/34
f 37/36/35 79/37/35 38/37/35
f 38/37/36 80/38/36 39/38/36
f 39/38/37 81/39/37 40/39/37
f 41/40/38 81/39/38 82/40/38
f 41/40/39 43/41/39 2/41/39
f 32/31/40 74/33/40 33/33/40
f 7/9/41 49/10/41 8/10/41
f 2/41/42 42/4/42 1/4/42
f 3/5/1 4/6/1 5/7/1
f 3/5/1 5/7/1 6/8/1
f 41/40/1 2/41/1 1/4/1
f 1/4/1 3/5/1 6/8/1
f 41/40/1 1/4/1 6/8/1
f 40/39/1 41/40/1 6/8/1
f 40/39/1 6/8/1 7/9/1
f 37/36/1 38/37/1 39/38/1
f 39/38/1 40/39/1 7/9/1
f 8/10/1 9/11/1 10/1/1
f 39/38/1 7/9/1 8/10/1
f 36/35/1 37/36/1 39/38/1
f 34/32/1 35/34/1 36/35/1
f 32/31/1 33/33/1 34/32/1
f 30/29/1 31/30/1 32/31/1
f 28/27/1 29/28/1 30/29/1
f 26/25/1 27/26/1 28/27/1
f 24/23/1 25/24/1 26/25/1
f 22/21/1 23/22/1 24/23/1
f 20/19/1 21/20/1 22/21/1
f 19/18/1 20/19/1 22/21/1
f 22/21/1 24/23/1 26/25/1
f 28/27/1 30/29/1 32/31/1
f 34/32/1 36/35/1 39/38/1
f 28/27/1 32/31/1 34/32/1
f 22/21/1 26/25/1 28/27/1
f 19/18/1 22/21/1 28/27/1
f 34/32/1 39/38/1 8/10/1
f 19/18/1 28/27/1 34/32/1
f 18/17/1 19/18/1 34/32/1
f 34/32/1 8/10/1 10/1/1
f 10/1/1 11/12/1 12/13/1
f 13/2/1 14/14/1 15/15/1
f 10/1/1 12/13/1 13/2/1
f 18/17/1 34/32/1 10/1/1
f 15/15/1 16/16/1 17/3/1
f 17/3/1 18/17/1 10/1/1
f 13/2/1 15/15/1 17/3/1
f 1/4/2 42/4/2 44/5/2
f 3/5/3 44/5/3 45/6/3
f 4/6/4 45/6/4 46/7/4
f 5/7/5 46/7/5 47/8/5
f 6/8/6 47/8/6 48/9/6
f 8/10/7 49/10/7 50/11/7
f 9/11/8 50/11/8 51/1/8
f 10/1/9 51/1/9 52/12/9
f 11/12/10 52/12/10 53/13/10
f 12/13/11 53/13/11 54/2/11
f 13/2/12 54/2/12 55/14/12
f 14/14/13 55/14/13 56/15/13
f 15/15/14 56/15/14 57/16/14
f 16/16/15 57/16/15 58/3/15
f 17/3/16 58/3/16 59/17/16
f 18/17/17 59/17/17 60/18/17
f 19/18/18 60/18/18 61/19/18
f 20/19/19 61/19/19 62/20/19
f 21/20/20 62/20/20 63/21/20
f 22/21/21 63/21/21 64/22/21
f 23/22/22 64/22/22 65/23/22
f 24/23/23 65/23/23 66/24/23
f 25/24/24 66/24/24 67/25/24
f 26/25/25 67/25/25 68/26/25
f 27/26/26 68/26/26 69/27/26
f 28/27/27 69/27/27 70/28/27
f 29/28/28 70/28/28 71/29/28
f 30/29/29 71/29/29 72/30/29
f 31/30/30 72/30/30 73/31/30
f 34/32/31 33/33/31 74/33/31
f 34/32/32 75/32/32 76/34/32
f 35/34/33 76/34/33 77/35/33
f 36/35/34 77/35/34 78/36/34
f 37/36/35 78/36/35 79/37/35
f 38/37/36 79/37/36 80/38/36
f 39/38/37 80/38/37 81/39/37
f 41/40/38 40/39/38 81/39/38
f 41/40/39 82/40/39 43/41/39
f 32/31/40 73/31/40 74/33/40
f 7/9/41 48/9/41 49/10/41
f 2/41/42 43/41/42 42/4/42
