# Blender 5.0.1
# www.blender.org
mtllib glyphs.mtl
o 030.001
v -0.148275 1.003044 -0.199663
v -0.147625 1.004214 -0.203180
v -0.148303 1.002151 -0.196687
v -0.145462 1.002336 -0.195512
v -0.136316 1.002360 -0.189819
v -0.131366 1.001464 -0.183685
v -0.128499 1.000765 -0.179530
v -0.123193 1.002389 -0.181627
v -0.126170 1.003241 -0.186366
v -0.129145 1.004063 -0.191001
v -0.133149 1.004298 -0.194318
v -0.137154 1.004627 -0.197952
v -0.128248 1.007918 -0.203367
v -0.126383 1.006645 -0.197919
v -0.123029 1.004821 -0.189682
v -0.119864 1.004433 -0.186381
v -0.118972 1.004217 -0.185095
v -0.119729 1.003647 -0.183660
v -0.121678 1.003137 -0.183182
v -0.122518 1.002450 -0.181406
v -0.122355 1.002133 -0.180239
v -0.123546 1.001958 -0.180406
v -0.127255 1.000618 -0.178253
v -0.126433 0.999903 -0.175335
v -0.123926 0.999898 -0.173733
v -0.121464 1.000629 -0.174632
v -0.120490 1.001394 -0.176584
v -0.119542 1.001644 -0.176824
v -0.116267 1.002470 -0.177524
v -0.115968 1.003189 -0.179749
v -0.115347 1.003649 -0.180902
v -0.111937 1.004804 -0.182622
v -0.113181 1.005846 -0.186903
v -0.117240 1.005365 -0.187851
v -0.118376 1.004965 -0.187226
v -0.117429 1.005481 -0.188362
v -0.116482 1.005998 -0.189499
v -0.118862 1.007017 -0.194419
v -0.123513 1.010031 -0.207467
v -0.122240 1.010966 -0.209799
v -0.121427 1.011688 -0.211707
v -0.127921 1.011587 -0.215471
v -0.128924 1.010526 -0.212545
v -0.130490 1.009246 -0.209238
v -0.137314 1.006673 -0.204918
v -0.142349 1.004845 -0.201964
v -0.144378 1.004691 -0.202728
v -0.126040 0.997616 -0.167412
v -0.126661 0.999119 -0.172847
v -0.124796 0.995647 -0.160022
v -0.124391 0.995080 -0.157866
v -0.126178 0.994175 -0.155956
v -0.127938 0.993172 -0.153702
v -0.121579 0.993147 -0.149603
v -0.120172 0.994034 -0.151691
v -0.119143 0.994840 -0.153746
v -0.108776 0.998414 -0.159190
v -0.098411 1.001988 -0.164632
v -0.096057 1.002166 -0.163745
v -0.093378 1.002480 -0.163106
v -0.092213 1.003695 -0.166445
v -0.091887 1.004872 -0.170190
v -0.095216 1.004629 -0.171476
v -0.097867 1.004250 -0.171877
v -0.102927 1.004578 -0.176172
v -0.109149 1.004964 -0.181397
v -0.110313 1.005006 -0.182275
v -0.112749 1.003878 -0.180029
v -0.115213 1.002738 -0.177759
v -0.113075 1.002596 -0.175935
v -0.107718 1.002312 -0.171598
v -0.104498 1.002123 -0.168928
v -0.118465 0.997227 -0.161326
v -0.119409 0.998549 -0.166357
v -0.120138 1.000065 -0.171902
v -0.147592 0.999412 -0.200746
v -0.146942 1.000582 -0.204262
v -0.147619 0.998519 -0.197769
v -0.144778 0.998704 -0.196594
v -0.135633 0.998728 -0.190902
v -0.130682 0.997832 -0.184768
v -0.127816 0.997133 -0.180613
v -0.122510 0.998757 -0.182710
v -0.125486 0.999609 -0.187449
v -0.128461 1.000431 -0.192084
v -0.132466 1.000666 -0.195401
v -0.136471 1.000995 -0.199035
v -0.127565 1.004286 -0.204449
v -0.125700 1.003013 -0.199002
v -0.122346 1.001189 -0.190764
v -0.119180 1.000801 -0.187464
v -0.118289 1.000585 -0.186178
v -0.119046 1.000015 -0.184743
v -0.120994 0.999505 -0.184264
v -0.121834 0.998818 -0.182489
v -0.121671 0.998501 -0.181322
v -0.122863 0.998326 -0.181488
v -0.126571 0.996986 -0.179335
v -0.125750 0.996271 -0.176417
v -0.123242 0.996266 -0.174815
v -0.120780 0.996997 -0.175715
v -0.119806 0.997762 -0.177666
v -0.118859 0.998012 -0.177907
v -0.115583 0.998838 -0.178607
v -0.115285 0.999557 -0.180832
v -0.114663 1.000018 -0.181984
v -0.111253 1.001172 -0.183704
v -0.112497 1.002214 -0.187985
v -0.116556 1.001733 -0.188934
v -0.117692 1.001333 -0.188309
v -0.116745 1.001850 -0.189445
v -0.115798 1.002367 -0.190581
v -0.118178 1.003385 -0.195501
v -0.122829 1.006399 -0.208550
v -0.121556 1.007334 -0.210882
v -0.120744 1.008056 -0.212790
v -0.127238 1.007955 -0.216554
v -0.128240 1.006894 -0.213627
v -0.129806 1.005614 -0.210320
v -0.136630 1.003041 -0.206000
v -0.141665 1.001213 -0.203046
v -0.143694 1.001059 -0.203810
v -0.125356 0.993984 -0.168495
v -0.125977 0.995487 -0.173930
v -0.124113 0.992015 -0.161104
v -0.123708 0.991448 -0.158949
v -0.125494 0.990543 -0.157039
v -0.127254 0.989540 -0.154785
v -0.120895 0.989515 -0.150686
v -0.119488 0.990402 -0.152774
v -0.118459 0.991208 -0.154828
v -0.108092 0.994782 -0.160272
v -0.097727 0.998356 -0.165715
v -0.095373 0.998534 -0.164828
v -0.092694 0.998848 -0.164189
v -0.091529 1.000063 -0.167527
v -0.091204 1.001240 -0.171273
v -0.094532 1.000997 -0.172559
v -0.097184 1.000618 -0.172960
v -0.102243 1.000946 -0.177255
v -0.108465 1.001332 -0.182480
v -0.109629 1.001374 -0.183357
v -0.112066 1.000246 -0.181112
v -0.114529 0.999106 -0.178842
v -0.112392 0.998964 -0.177017
v -0.107035 0.998680 -0.172681
v -0.103814 0.998491 -0.170011
v -0.117781 0.993595 -0.162409
v -0.118725 0.994917 -0.167439
v -0.119454 0.996433 -0.172985
vn -0.1775 0.9431 0.2811
vn -0.9688 -0.1173 -0.2182
vn -0.9841 -0.1675 -0.0594
vn -0.3430 -0.3271 0.8806
vn -0.4977 -0.3325 0.8011
vn -0.7609 -0.3127 0.5685
vn -0.8075 -0.3029 0.5061
vn 0.4104 -0.1887 0.8922
vn 0.8318 0.2964 -0.4692
vn 0.8265 0.2979 -0.4775
vn 0.6136 0.3294 -0.7176
vn 0.6497 0.3269 -0.6863
vn 0.5519 -0.1411 0.8219
vn -0.9319 -0.2529 0.2599
vn -0.9121 -0.2649 0.3127
vn -0.7020 -0.3216 0.6354
vn -0.8061 -0.3032 0.5081
vn -0.8802 -0.0244 -0.4739
vn -0.2872 0.2236 -0.9314
vn -0.8975 -0.0380 -0.4394
vn -0.9750 -0.2074 0.0800
vn -0.5358 0.1470 -0.8315
vn -0.9481 -0.2404 0.2079
vn -0.5082 -0.3325 0.7945
vn 0.3873 -0.1957 0.9009
vn 0.8893 0.0314 0.4562
vn 0.2945 -0.2217 0.9296
vn 0.2587 -0.2309 0.9380
vn 0.9759 0.1320 0.1736
vn 0.4879 -0.1637 0.8574
vn 0.9459 0.2424 -0.2159
vn 0.1809 0.3121 -0.9327
vn 0.7766 -0.0412 0.6287
vn 0.7767 -0.0412 0.6286
vn 0.8861 0.2775 -0.3712
vn 0.9278 0.2556 -0.2717
vn 0.8742 0.0199 0.4851
vn 0.9119 0.0502 0.4073
vn 0.4691 0.3322 -0.8183
vn -0.9352 -0.0727 -0.3467
vn -0.8974 -0.0379 -0.4396
vn -0.5660 0.1359 -0.8132
vn -0.5394 0.1457 -0.8293
vn 0.3115 0.3248 -0.8930
vn 0.0882 0.2998 -0.9499
vn -0.9780 -0.2008 0.0561
vn -0.9709 -0.2144 0.1063
vn -0.9678 -0.2192 0.1242
vn -0.7429 0.0589 -0.6668
vn -0.7945 0.0312 -0.6064
vn -0.5119 -0.3325 0.7921
vn 0.8310 -0.0093 0.5561
vn 0.8888 0.0310 0.4573
vn 0.5015 -0.1591 0.8504
vn 0.5014 -0.1591 0.8504
vn -0.3120 -0.3249 0.8928
vn -0.1855 -0.3126 0.9316
vn 0.9335 0.0709 0.3516
vn 0.9806 0.1456 0.1310
vn 0.3200 0.3255 -0.8898
vn 0.1004 0.3015 -0.9482
vn 0.6234 0.3288 -0.7094
vn 0.6192 0.3291 -0.7129
vn -0.6957 0.0818 -0.7137
vn -0.6956 0.0818 -0.7138
vn -0.6255 -0.3287 0.7076
vn -0.6044 -0.3299 0.7251
vn -0.6141 -0.3294 0.7172
vn -0.5136 0.1549 -0.8439
vn 0.9678 0.2192 -0.1241
vn 0.9760 0.2052 -0.0722
vn 0.0938 0.3006 -0.9491
vn -0.5173 0.1536 -0.8419
vn 0.0890 0.2999 -0.9498
vn 0.5754 0.3312 -0.7478
vn 0.8763 0.0215 0.4813
vt 0.941975 0.923828
vt 0.927916 0.914799
vt 0.933860 0.915571
vt 0.927604 0.923251
vt 0.935752 0.918013
vt 0.936015 0.927635
vt 0.924091 0.963076
vt 0.920714 0.959680
vt 0.918430 0.956450
vt 0.920671 0.953234
vt 0.926439 0.940793
vt 0.927252 0.930727
vt 0.927265 0.924240
vt 0.934699 0.922916
vt 0.935006 0.930116
vt 0.935237 0.937200
vt 0.933334 0.943547
vt 0.931673 0.950240
vt 0.945584 0.950086
vt 0.943516 0.942871
vt 0.940976 0.931596
vt 0.941966 0.925839
vt 0.940054 0.922777
vt 0.937545 0.923581
vt 0.935275 0.922215
vt 0.934572 0.920831
vt 0.933385 0.921824
vt 0.927669 0.921999
vt 0.926365 0.918254
vt 0.931309 0.914104
vt 0.935086 0.915188
vt 0.939225 0.913723
vt 0.941238 0.915948
vt 0.942796 0.916782
vt 0.947855 0.916338
vt 0.949725 0.921857
vt 0.945970 0.925657
vt 0.944245 0.925748
vt 0.946149 0.926343
vt 0.948053 0.926938
vt 0.949154 0.933929
vt 0.953907 0.951338
vt 0.957074 0.953017
vt 0.959414 0.954546
vt 0.955107 0.963076
vt 0.951788 0.960564
vt 0.947559 0.958021
vt 0.936769 0.957952
vt 0.928985 0.958156
vt 0.927328 0.960371
vt 0.952964 0.951047
vt 0.946278 0.953774
vt 0.936962 0.957016
vt 0.934222 0.957912
vt 0.932991 0.961213
vt 0.931345 0.964702
vt 0.923012 0.959874
vt 0.924662 0.956904
vt 0.926484 0.954396
vt 0.927044 0.938822
vt 0.925254 0.921064
vt 0.923012 0.918339
vt 0.926256 0.914856
vt 0.930443 0.912097
vt 0.933802 0.915169
vt 0.943587 0.921198
vt 0.953158 0.925150
vt 0.954831 0.925953
vt 0.953572 0.930227
vt 0.952300 0.934548
vt 0.948978 0.933209
vt 0.940928 0.929703
vt 0.934948 0.948788
vt 0.941343 0.946696
vt 0.948219 0.944025
s 0
usemtl glyph
f 17/1/1 25/2/1 27/3/1
f 58/4/1 64/5/1 72/6/1
f 2/7/2 76/8/2 1/8/2
f 1/8/3 78/9/3 3/9/3
f 3/9/4 79/10/4 4/10/4
f 4/10/5 80/11/5 5/11/5
f 5/11/6 81/12/6 6/12/6
f 6/12/7 82/13/7 7/13/7
f 7/13/8 83/14/8 8/14/8
f 8/14/9 84/15/9 9/15/9
f 9/15/10 85/16/10 10/16/10
f 10/16/11 86/17/11 11/17/11
f 12/18/12 86/17/12 87/18/12
f 12/18/13 88/19/13 13/19/13
f 13/19/14 89/20/14 14/20/14
f 14/20/15 90/21/15 15/21/15
f 15/21/16 91/22/16 16/22/16
f 16/22/17 92/1/17 17/1/17
f 17/1/18 93/23/18 18/23/18
f 18/23/19 94/24/19 19/24/19
f 19/24/20 95/25/20 20/25/20
f 20/25/21 96/26/21 21/26/21
f 22/27/22 98/28/22 23/28/22
f 23/28/23 99/29/23 24/29/23
f 24/29/24 100/2/24 25/2/24
f 25/2/25 101/30/25 26/30/25
f 26/30/26 102/3/26 27/3/26
f 27/3/27 103/31/27 28/31/27
f 28/31/28 104/32/28 29/32/28
f 29/32/29 105/33/29 30/33/29
f 31/34/30 107/35/30 32/35/30
f 32/35/31 108/36/31 33/36/31
f 33/36/32 109/37/32 34/37/32
f 35/38/33 111/39/33 36/39/33
f 36/39/34 112/40/34 37/40/34
f 37/40/35 113/41/35 38/41/35
f 39/42/36 113/41/36 114/42/36
f 39/42/37 115/43/37 40/43/37
f 40/43/38 116/44/38 41/44/38
f 41/44/39 117/45/39 42/45/39
f 42/45/40 118/46/40 43/46/40
f 43/46/41 119/47/41 44/47/41
f 44/47/42 120/48/42 45/48/42
f 45/48/43 121/49/43 46/49/43
f 46/49/44 122/50/44 47/50/44
f 47/50/45 77/7/45 2/7/45
f 49/51/46 123/52/46 48/52/46
f 48/52/47 125/53/47 50/53/47
f 50/53/48 126/54/48 51/54/48
f 51/54/49 127/55/49 52/55/49
f 52/55/50 128/56/50 53/56/50
f 53/56/51 129/57/51 54/57/51
f 54/57/52 130/58/52 55/58/52
f 55/58/53 131/59/53 56/59/53
f 56/59/54 132/60/54 57/60/54
f 57/60/55 133/4/55 58/4/55
f 58/4/56 134/61/56 59/61/56
f 59/61/57 135/62/57 60/62/57
f 60/62/58 136/63/58 61/63/58
f 61/63/59 137/64/59 62/64/59
f 62/64/60 138/65/60 63/65/60
f 63/65/61 139/5/61 64/5/61
f 65/66/62 139/5/62 140/66/62
f 65/66/63 141/67/63 66/67/63
f 67/68/64 143/69/64 68/69/64
f 68/69/65 144/70/65 69/70/65
f 69/70/66 145/71/66 70/71/66
f 70/71/67 146/72/67 71/72/67
f 71/72/68 147/6/68 72/6/68
f 72/6/69 148/73/69 73/73/69
f 73/73/70 149/74/70 74/74/70
f 74/74/71 150/75/71 75/75/71
f 75/75/72 124/51/72 49/51/72
f 34/37/73 110/38/73 35/38/73
f 21/26/74 97/27/74 22/27/74
f 66/67/75 142/68/75 67/68/75
f 30/33/76 106/34/76 31/34/76
f 47/50/1 2/7/1 1/8/1
f 1/8/1 3/9/1 4/10/1
f 1/8/1 4/10/1 5/11/1
f 46/49/1 47/50/1 1/8/1
f 46/49/1 1/8/1 5/11/1
f 6/12/1 7/13/1 8/14/1
f 46/49/1 5/11/1 6/12/1
f 46/49/1 6/12/1 8/14/1
f 8/14/1 9/15/1 10/16/1
f 8/14/1 10/16/1 11/17/1
f 41/44/1 42/45/1 43/46/1
f 39/42/1 40/43/1 41/44/1
f 36/39/1 37/40/1 38/41/1
f 39/42/1 41/44/1 43/46/1
f 36/39/1 38/41/1 39/42/1
f 33/36/1 34/37/1 35/38/1
f 35/38/1 36/39/1 39/42/1
f 39/42/1 43/46/1 44/47/1
f 39/42/1 44/47/1 45/48/1
f 32/35/1 33/36/1 35/38/1
f 39/42/1 45/48/1 46/49/1
f 46/49/1 8/14/1 11/17/1
f 46/49/1 11/17/1 12/18/1
f 31/34/1 32/35/1 35/38/1
f 28/31/1 29/32/1 30/33/1
f 30/33/1 31/34/1 35/38/1
f 39/42/1 46/49/1 12/18/1
f 13/19/1 14/20/1 15/21/1
f 39/42/1 12/18/1 13/19/1
f 28/31/1 30/33/1 35/38/1
f 35/38/1 39/42/1 13/19/1
f 13/19/1 15/21/1 16/22/1
f 13/19/1 16/22/1 17/1/1
f 27/3/1 28/31/1 35/38/1
f 25/2/1 26/30/1 27/3/1
f 23/28/1 24/29/1 25/2/1
f 21/26/1 22/27/1 23/28/1
f 19/24/1 20/25/1 21/26/1
f 18/23/1 19/24/1 21/26/1
f 21/26/1 23/28/1 25/2/1
f 35/38/1 13/19/1 17/1/1
f 18/23/1 21/26/1 25/2/1
f 27/3/1 35/38/1 17/1/1
f 17/1/1 18/23/1 25/2/1
f 75/75/1 49/51/1 48/52/1
f 48/52/1 50/53/1 51/54/1
f 51/54/1 52/55/1 53/56/1
f 53/56/1 54/57/1 55/58/1
f 53/56/1 55/58/1 56/59/1
f 75/75/1 48/52/1 51/54/1
f 51/54/1 53/56/1 56/59/1
f 51/54/1 56/59/1 57/60/1
f 74/74/1 75/75/1 51/54/1
f 73/73/1 74/74/1 51/54/1
f 51/54/1 57/60/1 58/4/1
f 58/4/1 59/61/1 60/62/1
f 60/62/1 61/63/1 62/64/1
f 62/64/1 63/65/1 64/5/1
f 64/5/1 65/66/1 66/67/1
f 66/67/1 67/68/1 68/69/1
f 68/69/1 69/70/1 70/71/1
f 68/69/1 70/71/1 71/72/1
f 64/5/1 66/67/1 68/69/1
f 60/62/1 62/64/1 64/5/1
f 73/73/1 51/54/1 58/4/1
f 58/4/1 60/62/1 64/5/1
f 64/5/1 68/69/1 71/72/1
f 72/6/1 73/73/1 58/4/1
f 64/5/1 71/72/1 72/6/1
f 2/7/2 77/7/2 76/8/2
f 1/8/3 76/8/3 78/9/3
f 3/9/4 78/9/4 79/10/4
f 4/10/5 79/10/5 80/11/5
f 5/11/6 80/11/6 81/12/6
f 6/12/7 81/12/7 82/13/7
f 7/13/8 82/13/8 83/14/8
f 8/14/9 83/14/9 84/15/9
f 9/15/10 84/15/10 85/16/10
f 10/16/11 85/16/11 86/17/11
f 12/18/12 11/17/12 86/17/12
f 12/18/13 87/18/13 88/19/13
f 13/19/14 88/19/14 89/20/14
f 14/20/15 89/20/15 90/21/15
f 15/21/16 90/21/16 91/22/16
f 16/22/17 91/22/17 92/1/17
f 17/1/18 92/1/18 93/23/18
f 18/23/19 93/23/19 94/24/19
f 19/24/20 94/24/20 95/25/20
f 20/25/21 95/25/21 96/26/21
f 22/27/22 97/27/22 98/28/22
f 23/28/23 98/28/23 99/29/23
f 24/29/24 99/29/24 100/2/24
f 25/2/25 100/2/25 101/30/25
f 26/30/26 101/30/26 102/3/26
f 27/3/27 102/3/27 103/31/27
f 28/31/28 103/31/28 104/32/28
f 29/32/29 104/32/29 105/33/29
f 31/34/30 106/34/30 107/35/30
f 32/35/31 107/35/31 108/36/31
f 33/36/32 108/36/32 109/37/32
f 35/38/33 110/38/33 111/39/33
f 36/39/34 111/39/34 112/40/34
f 37/40/35 112/40/35 113/41/35
f 39/42/36 38/41/36 113/41/36
f 39/42/37 114/42/37 115/43/37
f 40/43/38 115/43/38 116/44/38
f 41/44/39 116/44/39 117/45/39
f 42/45/40 117/45/40 118/46/40
f 43/46/41 118/46/41 119/47/41
f 44/47/42 119/47/42 120/48/42
f 45/48/43 120/48/43 121/49/43
f 46/49/44 121/49/44 122/50/44
f 47/50/45 122/50/45 77/7/45
f 49/51/46 124/51/46 123/52/46
f 48/52/47 123/52/47 125/53/47
f 50/53/48 125/53/48 126/54/48
f 51/54/49 126/54/49 127/55/49
f 52/55/50 127/55/50 128/56/50
f 53/56/51 128/56/51 129/57/51
f 54/57/52 129/57/52 130/58/52
f 55/58/53 130/58/53 131/59/53
f 56/59/54 131/59/54 132/60/54
f 57/60/55 132/60/55 133/4/55
f 58/4/56 133/4/56 134/61/56
f 59/61/57 134/61/57 135/62/57
f 60/62/58 135/62/58 136/63/58
f 61/63/59 136/63/59 137/64/59
f 62/64/60 137/64/60 138/65/60
f 63/65/61 138/65/61 139/5/61
f 65/66/62 64/5/62 139/5/62
f 65/66/63 140/66/63 141/67/63
f 67/68/64 142/68/64 143/69/64
f 68/69/65 143/69/65 144/70/65
f 69/70/66 144/70/66 145/71/66
f 70/71/67 145/71/67 146/72/67
f 71/72/68 146/72/68 147/6/68
f 72/6/69 147/6/69 148/73/69
f 73/73/70 148/73/70 149/74/70
f 74/74/71 149/74/71 150/75/71
f 75/75/72 150/75/72 124/51/72
f 34/37/73 109/37/73 110/38/73
f 21/26/74 96/26/74 97/27/74
f 66/67/75 141/67/75 142/68/75
f 30/33/76 105/33/76 106/34/76
