mtllib glyphs.mtl
# Blender 5.0.1
# www.blender.org
o 031
v -0.179137 0.918783 -0.024604
v -0.181835 0.910600 -0.012768
v -0.176876 0.926918 -0.036611
v -0.178571 0.927010 -0.037740
v -0.189777 0.921228 -0.034742
v -0.200550 0.915842 -0.032143
v -0.209738 0.918062 -0.041075
v -0.218997 0.920195 -0.049907
v -0.219785 0.919817 -0.049744
v -0.225406 0.902348 -0.024399
v -0.223849 0.902154 -0.023182
v -0.212508 0.908001 -0.026210
v -0.200995 0.913930 -0.029271
v -0.191930 0.912010 -0.020899
v -0.182692 0.910044 -0.012352
v -0.183765 0.921082 -0.031035
v -0.185310 0.914388 -0.020972
v -0.185632 0.914351 -0.021097
v -0.189588 0.915353 -0.025019
v -0.193042 0.916419 -0.028755
v -0.208185 0.913611 -0.032896
v -0.208012 0.913437 -0.032512
v -0.213686 0.910349 -0.030730
v -0.219313 0.907349 -0.029068
v -0.217949 0.911715 -0.035425
v -0.216532 0.916113 -0.041805
v -0.178028 0.915637 -0.026527
v -0.180726 0.907453 -0.014691
v -0.175766 0.923771 -0.038534
v -0.177462 0.923863 -0.039662
v -0.188668 0.918081 -0.036665
v -0.199441 0.912696 -0.034066
v -0.208629 0.914915 -0.042998
v -0.217888 0.917048 -0.051830
v -0.218676 0.916670 -0.051667
v -0.224297 0.899201 -0.026322
v -0.222740 0.899007 -0.025105
v -0.211399 0.904855 -0.028133
v -0.199886 0.910784 -0.031194
v -0.190821 0.908863 -0.022822
v -0.181583 0.906897 -0.014275
v -0.182656 0.917935 -0.032958
v -0.184201 0.911242 -0.022895
v -0.184523 0.911204 -0.023020
v -0.188478 0.912207 -0.026942
v -0.191933 0.913272 -0.030678
v -0.207076 0.910465 -0.034819
v -0.206903 0.910291 -0.034435
v -0.212577 0.907202 -0.032653
v -0.218204 0.904202 -0.030991
v -0.216840 0.908568 -0.037348
v -0.215423 0.912966 -0.043727
v -0.251897 0.911146 -0.073253
v -0.245406 0.871976 -0.005409
v -0.138977 0.936039 -0.048712
v -0.253629 0.916048 -0.070257
v -0.250383 0.896463 -0.036335
v -0.140709 0.940940 -0.045717
v -0.138958 0.930375 -0.027417
v -0.137207 0.919810 -0.009117
v -0.135476 0.914908 -0.012113
v -0.247137 0.876878 -0.002413
vn -0.2880 0.8171 0.4993
vn 0.9397 0.1408 0.3116
vn 0.9451 0.1587 0.2855
vn 0.4750 0.5747 -0.6664
vn -0.4117 0.3651 -0.8350
vn -0.3906 0.3758 -0.8403
vn 0.6465 0.5506 -0.5281
vn 0.6384 0.5525 -0.5359
vn -0.3620 0.3898 -0.8468
vn -0.9406 -0.1436 -0.3076
vn -0.5495 -0.5681 0.6126
vn 0.4113 -0.3653 0.8351
vn 0.4104 -0.3658 0.8353
vn -0.6246 -0.5556 0.5488
vn -0.6253 -0.5554 0.5482
vn 0.5600 -0.2792 0.7800
vn -0.9492 -0.1746 -0.2619
vn 0.2390 0.5663 -0.7888
vn 0.6547 0.5486 -0.5200
vn 0.6896 0.5388 -0.4839
vn 0.3943 -0.3740 0.8394
vn -0.8791 -0.4325 0.2006
vn -0.4473 0.3462 -0.8246
vn -0.4335 0.3537 -0.8289
vn 0.9416 0.1468 0.3029
vn 0.9406 0.1434 0.3078
vn -0.6844 -0.5404 0.4895
vn -0.9539 -0.2903 -0.0763
vn 0.0645 0.5369 -0.8412
vn -0.2886 0.8170 0.4993
vn 0.9539 0.2903 0.0763
vn 0.2277 -0.4480 0.8646
vt 0.962684 0.907426
vt 0.930991 0.912691
vt 0.917784 0.906517
vt 0.942093 0.937984
vt 0.939489 0.949334
vt 0.938928 0.948976
vt 0.938797 0.964276
vt 0.962684 0.969756
vt 0.916420 0.972154
vt 0.918920 0.905381
vt 0.940247 0.904670
vt 0.961641 0.904644
vt 0.951942 0.922967
vt 0.952492 0.953831
vt 0.962009 0.970862
vt 0.915159 0.969549
vt 0.926020 0.953821
vt 0.937024 0.937850
vt 0.927508 0.922334
vt 0.948743 0.913180
vt 0.931038 0.913194
vt 0.935644 0.920038
vt 0.940190 0.926099
vt 0.933044 0.956773
vt 0.927386 0.964533
vt 0.950274 0.963947
vt 0.219037 0.688178
vt 0.280963 0.688178
vt 0.283323 0.693128
vt 0.268862 0.493734
vt 0.250000 0.687500
vt 0.266464 0.499987
vt 0.250000 0.500000
vt 0.231138 0.493734
vt 0.233536 0.499987
vt 0.216677 0.693128
s 0
usemtl Material.003
f 4/1/1 17/2/1 15/3/1
f 6/4/1 21/5/1 22/6/1
f 25/7/1 8/8/1 10/9/1
f 2/10/2 27/11/2 1/11/2
f 1/11/3 29/12/3 3/12/3
f 3/12/4 30/1/4 4/1/4
f 4/1/5 31/13/5 5/13/5
f 5/13/6 32/4/6 6/4/6
f 6/4/7 33/14/7 7/14/7
f 7/14/8 34/8/8 8/8/8
f 8/8/9 35/15/9 9/15/9
f 9/15/10 36/9/10 10/9/10
f 10/9/11 37/16/11 11/16/11
f 11/16/12 38/17/12 12/17/12
f 12/17/13 39/18/13 13/18/13
f 13/18/14 40/19/14 14/19/14
f 15/3/15 40/19/15 41/3/15
f 15/3/16 28/10/16 2/10/16
f 16/20/17 43/2/17 17/2/17
f 17/2/18 44/21/18 18/21/18
f 18/21/19 45/22/19 19/22/19
f 19/22/20 46/23/20 20/23/20
f 20/23/21 42/20/21 16/20/21
f 21/5/22 48/6/22 22/6/22
f 22/6/23 49/24/23 23/24/23
f 23/24/24 50/25/24 24/25/24
f 24/25/25 51/7/25 25/7/25
f 25/7/26 52/26/26 26/26/26
f 26/26/27 47/5/27 21/5/27
f 62/27/28 56/28/28 53/29/28
f 56/28/29 55/30/29 53/29/29
f 57/31/30 58/32/30 56/28/30
f 58/32/31 59/33/31 61/34/31
f 60/35/30 57/31/30 62/27/30
f 61/34/32 62/27/32 54/36/32
f 15/3/1 2/10/1 1/11/1
f 1/11/1 3/12/1 4/1/1
f 4/1/1 16/20/1 17/2/1
f 17/2/1 18/21/1 14/19/1
f 15/3/1 1/11/1 4/1/1
f 17/2/1 14/19/1 15/3/1
f 13/18/1 14/19/1 18/21/1
f 13/18/1 18/21/1 19/22/1
f 24/25/1 11/16/1 12/17/1
f 13/18/1 19/22/1 20/23/1
f 24/25/1 12/17/1 13/18/1
f 23/24/1 24/25/1 13/18/1
f 13/18/1 20/23/1 16/20/1
f 16/20/1 4/1/1 5/13/1
f 6/4/1 7/14/1 8/8/1
f 16/20/1 5/13/1 6/4/1
f 23/24/1 13/18/1 16/20/1
f 22/6/1 23/24/1 16/20/1
f 6/4/1 8/8/1 26/26/1
f 22/6/1 16/20/1 6/4/1
f 6/4/1 26/26/1 21/5/1
f 10/9/1 11/16/1 24/25/1
f 25/7/1 26/26/1 8/8/1
f 10/9/1 24/25/1 25/7/1
f 8/8/1 9/15/1 10/9/1
f 2/10/2 28/10/2 27/11/2
f 1/11/3 27/11/3 29/12/3
f 3/12/4 29/12/4 30/1/4
f 4/1/5 30/1/5 31/13/5
f 5/13/6 31/13/6 32/4/6
f 6/4/7 32/4/7 33/14/7
f 7/14/8 33/14/8 34/8/8
f 8/8/9 34/8/9 35/15/9
f 9/15/10 35/15/10 36/9/10
f 10/9/11 36/9/11 37/16/11
f 11/16/12 37/16/12 38/17/12
f 12/17/13 38/17/13 39/18/13
f 13/18/14 39/18/14 40/19/14
f 15/3/15 14/19/15 40/19/15
f 15/3/16 41/3/16 28/10/16
f 16/20/17 42/20/17 43/2/17
f 17/2/18 43/2/18 44/21/18
f 18/21/19 44/21/19 45/22/19
f 19/22/20 45/22/20 46/23/20
f 20/23/21 46/23/21 42/20/21
f 21/5/22 47/5/22 48/6/22
f 22/6/23 48/6/23 49/24/23
f 23/24/24 49/24/24 50/25/24
f 24/25/25 50/25/25 51/7/25
f 25/7/26 51/7/26 52/26/26
f 26/26/27 52/26/27 47/5/27
f 53/29/28 54/36/28 62/27/28
f 62/27/1 57/31/1 56/28/1
f 56/28/29 58/32/29 55/30/29
f 57/31/30 59/33/30 58/32/30
f 61/34/31 55/30/31 58/32/31
f 59/33/31 60/35/31 61/34/31
f 60/35/30 59/33/30 57/31/30
f 61/34/32 60/35/32 62/27/32
