mtllib glyphs.mtl
# Blender 5.0.1
# www.blender.org
o 035
v -0.153511 0.975683 -0.122986
v -0.144520 0.976770 -0.119510
v -0.153509 0.975683 -0.122986
v -0.165791 0.975812 -0.132024
v -0.168916 0.975973 -0.134664
v -0.171819 0.977494 -0.140761
v -0.175902 0.979550 -0.149116
v -0.177084 0.980085 -0.151373
v -0.181936 0.979318 -0.152772
v -0.187314 0.978415 -0.154178
v -0.190183 0.977315 -0.153288
v -0.192652 0.976354 -0.152482
v -0.191867 0.979869 -0.161267
v -0.181135 0.981485 -0.157961
v -0.175044 0.982500 -0.156346
v -0.172011 0.983007 -0.155547
v -0.167694 0.980367 -0.145475
v -0.163057 0.979045 -0.138678
v -0.151980 0.978731 -0.130003
v -0.142140 0.980095 -0.126659
v -0.140631 0.980381 -0.126351
v -0.140144 0.979517 -0.123712
v -0.139734 0.977640 -0.118433
v -0.152579 0.972186 -0.124302
v -0.143589 0.973273 -0.120826
v -0.152577 0.972186 -0.124302
v -0.164860 0.972315 -0.133340
v -0.167984 0.972476 -0.135980
v -0.170887 0.973997 -0.142077
v -0.174970 0.976053 -0.150432
v -0.176152 0.976588 -0.152689
v -0.181004 0.975821 -0.154088
v -0.186382 0.974918 -0.155495
v -0.189251 0.973818 -0.154604
v -0.191720 0.972857 -0.153798
v -0.190935 0.976372 -0.162583
v -0.180203 0.977988 -0.159277
v -0.174112 0.979003 -0.157662
v -0.171079 0.979510 -0.156864
v -0.166763 0.976870 -0.146791
v -0.162125 0.975548 -0.139995
v -0.151048 0.975234 -0.131319
v -0.141208 0.976598 -0.127975
v -0.139699 0.976884 -0.127667
v -0.139212 0.976020 -0.125028
v -0.138802 0.974143 -0.119749
v -0.187379 0.986548 -0.203852
v -0.230373 0.953644 -0.146861
v -0.103678 0.977691 -0.120856
v -0.188833 0.991996 -0.201804
v -0.210331 0.975544 -0.173308
v -0.105133 0.983139 -0.118807
v -0.116730 0.974264 -0.103435
v -0.128327 0.965389 -0.088062
v -0.126872 0.959940 -0.090111
v -0.231828 0.959092 -0.144813
vn -0.2420 0.9081 0.3418
vn -0.2872 -0.4035 0.8688
vn -0.5411 -0.4187 0.7293
vn -0.5990 -0.4169 0.6837
vn -0.8750 -0.3564 0.3277
vn -0.8704 -0.3588 0.3371
vn -0.8575 -0.3649 0.3626
vn -0.1976 -0.3910 0.8990
vn -0.1719 -0.3868 0.9060
vn 0.3702 -0.2392 0.8976
vn 0.3830 -0.2342 0.8936
vn -0.9668 -0.1956 -0.1647
vn 0.2160 0.3938 -0.8935
vn 0.1754 0.3874 -0.9051
vn 0.1737 0.3871 -0.9055
vn 0.8915 0.3471 -0.2911
vn 0.7948 0.3875 -0.4670
vn 0.5674 0.4181 -0.7094
vn 0.2452 0.3980 -0.8840
vn 0.1159 0.3768 -0.9190
vn 0.9548 0.2855 -0.0826
vn 0.9675 0.2523 0.0145
vn -0.1365 -0.3806 0.9146
vn -0.1592 0.3103 -0.9372
vn -0.8013 0.0110 -0.5982
vn 0.6632 0.4120 -0.6249
vn -0.2424 0.9081 0.3414
vn 0.8013 -0.0110 0.5982
vn -0.4178 -0.4153 0.8081
vt 0.931553 0.898203
vt 0.944428 0.893746
vt 0.940349 0.902603
vt 0.947578 0.989102
vt 0.952715 0.973077
vt 0.952689 0.973104
vt 0.953169 0.946702
vt 0.952775 0.939626
vt 0.946880 0.929188
vt 0.938924 0.914743
vt 0.936867 0.910733
vt 0.949093 0.890758
vt 0.953169 0.888230
vt 0.938937 0.879998
vt 0.926967 0.908258
vt 0.924675 0.913259
vt 0.934965 0.929844
vt 0.939917 0.943399
vt 0.940280 0.967766
vt 0.933984 0.984789
vt 0.932708 0.987182
vt 0.936149 0.990646
vt 0.943681 0.996800
vt 0.219037 0.688178
vt 0.250000 0.687500
vt 0.283323 0.693128
vt 0.280963 0.688178
vt 0.268862 0.493734
vt 0.266464 0.499987
vt 0.250000 0.500000
vt 0.231138 0.493734
vt 0.233536 0.499987
vt 0.216677 0.693128
s 0
usemtl Material.003
f 14/1/1 10/2/1 9/3/1
f 2/4/2 24/5/2 25/4/2
f 3/6/3 27/7/3 26/6/3
f 5/8/4 27/7/4 4/7/4
f 5/8/5 29/9/5 28/8/5
f 7/10/6 29/9/6 6/9/6
f 7/10/7 31/11/7 30/10/7
f 9/3/8 31/11/8 8/11/8
f 10/2/9 32/3/9 9/3/9
f 11/12/10 33/2/10 10/2/10
f 12/13/11 34/12/11 11/12/11
f 12/13/12 36/14/12 35/13/12
f 14/1/13 36/14/13 13/14/13
f 15/15/14 37/1/14 14/1/14
f 16/16/15 38/15/15 15/15/15
f 17/17/16 39/16/16 16/16/16
f 18/18/17 40/17/17 17/17/17
f 19/19/18 41/18/18 18/18/18
f 20/20/19 42/19/19 19/19/19
f 21/21/20 43/20/20 20/20/20
f 22/22/21 44/21/21 21/21/21
f 23/23/22 45/22/22 22/22/22
f 2/4/23 46/23/23 23/23/23
f 3/6/24 24/5/24 1/5/24
f 56/24/25 51/25/25 47/26/25
f 50/27/26 49/28/26 47/26/26
f 51/25/27 52/29/27 50/27/27
f 52/29/28 53/30/28 55/31/28
f 54/32/27 51/25/27 56/24/27
f 55/31/29 56/24/29 48/33/29
f 1/5/1 2/4/1 23/23/1
f 23/23/1 22/22/1 21/21/1
f 23/23/1 21/21/1 20/20/1
f 3/6/1 1/5/1 23/23/1
f 5/8/1 4/7/1 3/6/1
f 6/9/1 5/8/1 3/6/1
f 3/6/1 23/23/1 20/20/1
f 3/6/1 20/20/1 19/19/1
f 7/10/1 6/9/1 3/6/1
f 8/11/1 7/10/1 3/6/1
f 3/6/1 19/19/1 18/18/1
f 17/17/1 16/16/1 15/15/1
f 3/6/1 18/18/1 17/17/1
f 8/11/1 3/6/1 17/17/1
f 17/17/1 15/15/1 14/1/1
f 14/1/1 13/14/1 12/13/1
f 14/1/1 12/13/1 11/12/1
f 8/11/1 17/17/1 14/1/1
f 9/3/1 8/11/1 14/1/1
f 14/1/1 11/12/1 10/2/1
f 2/4/2 1/5/2 24/5/2
f 3/6/3 4/7/3 27/7/3
f 5/8/4 28/8/4 27/7/4
f 5/8/5 6/9/5 29/9/5
f 7/10/6 30/10/6 29/9/6
f 7/10/7 8/11/7 31/11/7
f 9/3/8 32/3/8 31/11/8
f 10/2/9 33/2/9 32/3/9
f 11/12/10 34/12/10 33/2/10
f 12/13/11 35/13/11 34/12/11
f 12/13/12 13/14/12 36/14/12
f 14/1/13 37/1/13 36/14/13
f 15/15/14 38/15/14 37/1/14
f 16/16/15 39/16/15 38/15/15
f 17/17/16 40/17/16 39/16/16
f 18/18/17 41/18/17 40/17/17
f 19/19/18 42/19/18 41/18/18
f 20/20/19 43/20/19 42/19/19
f 21/21/20 44/21/20 43/20/20
f 22/22/21 45/22/21 44/21/21
f 23/23/22 46/23/22 45/22/22
f 2/4/23 25/4/23 46/23/23
f 3/6/24 26/6/24 24/5/24
f 47/26/25 48/33/25 56/24/25
f 51/25/25 50/27/25 47/26/25
f 50/27/26 52/29/26 49/28/26
f 51/25/27 53/30/27 52/29/27
f 55/31/28 49/28/28 52/29/28
f 53/30/28 54/32/28 55/31/28
f 54/32/27 53/30/27 51/25/27
f 55/31/29 54/32/29 56/24/29
