# Blender 5.0.1
# www.blender.org
mtllib glyphs.mtl
o 038.001
v 0.308781 0.948998 -0.210148
v 0.305418 0.948198 -0.204236
v 0.311533 0.950311 -0.217006
v 0.311011 0.950833 -0.218075
v 0.307503 0.951806 -0.217464
v 0.304024 0.952774 -0.216870
v 0.300765 0.954375 -0.218444
v 0.285260 0.961384 -0.224067
v 0.269071 0.967516 -0.226292
v 0.246623 0.974300 -0.224098
v 0.239601 0.976702 -0.224272
v 0.234631 0.978409 -0.224416
v 0.233720 0.978442 -0.223581
v 0.235044 0.975791 -0.216792
v 0.236415 0.973168 -0.210137
v 0.237528 0.972708 -0.209867
v 0.238610 0.972253 -0.209579
v 0.241865 0.972310 -0.213097
v 0.245105 0.972382 -0.216643
v 0.249126 0.971273 -0.217363
v 0.273247 0.963452 -0.218091
v 0.297470 0.953332 -0.211853
v 0.300389 0.951969 -0.210662
v 0.301738 0.950446 -0.207367
v 0.303086 0.948924 -0.204072
v 0.304192 0.948570 -0.204121
v 0.307342 0.944690 -0.211549
v 0.303979 0.943890 -0.205638
v 0.310094 0.946002 -0.218408
v 0.309572 0.946524 -0.219477
v 0.306063 0.947497 -0.218866
v 0.302585 0.948466 -0.218271
v 0.299326 0.950066 -0.219845
v 0.283821 0.957075 -0.225469
v 0.267631 0.963207 -0.227694
v 0.245183 0.969991 -0.225500
v 0.238161 0.972394 -0.225674
v 0.233192 0.974101 -0.225818
v 0.232281 0.974133 -0.224983
v 0.233605 0.971482 -0.218194
v 0.234976 0.968859 -0.211539
v 0.236089 0.968399 -0.211268
v 0.237171 0.967944 -0.210981
v 0.240425 0.968002 -0.214499
v 0.243666 0.968073 -0.218045
v 0.247687 0.966964 -0.218765
v 0.271808 0.959144 -0.219493
v 0.296031 0.949023 -0.213255
v 0.298950 0.947660 -0.212064
v 0.300298 0.946138 -0.208768
v 0.301647 0.944615 -0.205474
v 0.302753 0.944262 -0.205522
vn 0.3027 0.9063 0.2949
vn 0.8168 -0.4062 0.4098
vn 0.8797 -0.3847 0.2793
vn 0.8644 -0.1307 -0.4856
vn -0.0722 0.3303 -0.9411
vn -0.0693 0.3295 -0.9416
vn 0.4797 0.1224 -0.8688
vn 0.3997 0.1601 -0.9025
vn 0.2191 0.2349 -0.9470
vn 0.0005 0.3092 -0.9510
vn 0.1167 0.2718 -0.9552
vn 0.1207 0.2704 -0.9551
vn -0.6045 0.4218 -0.6758
vn -0.9362 0.2248 0.2704
vn -0.9343 0.2211 0.2797
vn -0.3085 -0.1996 0.9301
vn -0.3267 -0.1920 0.9254
vn 0.6688 -0.4224 0.6118
vn 0.6734 -0.4223 0.6068
vn 0.0769 -0.3316 0.9403
vn -0.0649 -0.2891 0.9551
vn -0.3201 -0.1947 0.9272
vn -0.4313 -0.1456 0.8904
vn -0.8872 0.1550 0.4346
vn -0.8872 0.1549 0.4347
vn -0.0517 -0.2933 0.9546
vn -0.0037 -0.3083 0.9513
vn 0.3009 0.9068 0.2953
vt 0.933226 0.880190
vt 0.940336 0.904552
vt 0.936292 0.939902
vt 0.952403 0.991008
vt 0.943412 0.994385
vt 0.933122 0.996608
vt 0.931636 0.995554
vt 0.932957 0.990547
vt 0.934250 0.985581
vt 0.932371 0.980357
vt 0.926135 0.956008
vt 0.924913 0.931558
vt 0.930877 0.899065
vt 0.931495 0.888671
vt 0.931901 0.881310
vt 0.942910 0.883954
vt 0.952393 0.887752
vt 0.952648 0.889464
vt 0.952931 0.891136
vt 0.947425 0.894992
vt 0.941879 0.898820
vt 0.942339 0.977262
vt 0.943705 0.981882
vt 0.948319 0.984749
vt 0.952931 0.987616
vt 0.952723 0.989233
s 0
usemtl glyph
f 13/1/1 20/2/1 21/3/1
f 2/4/2 27/5/2 1/5/2
f 3/6/3 27/5/3 29/6/3
f 3/6/4 30/7/4 4/7/4
f 4/7/5 31/8/5 5/8/5
f 5/8/6 32/9/6 6/9/6
f 6/9/7 33/10/7 7/10/7
f 8/11/8 33/10/8 34/11/8
f 9/12/9 34/11/9 35/12/9
f 9/12/10 36/13/10 10/13/10
f 10/13/11 37/14/11 11/14/11
f 12/15/12 37/14/12 38/15/12
f 12/15/13 39/1/13 13/1/13
f 13/1/14 40/16/14 14/16/14
f 14/16/15 41/17/15 15/17/15
f 15/17/16 42/18/16 16/18/16
f 16/18/17 43/19/17 17/19/17
f 17/19/18 44/20/18 18/20/18
f 18/20/19 45/21/19 19/21/19
f 19/21/20 46/2/20 20/2/20
f 20/2/21 47/3/21 21/3/21
f 21/3/22 48/22/22 22/22/22
f 22/22/23 49/23/23 23/23/23
f 23/23/24 50/24/24 24/24/24
f 24/24/25 51/25/25 25/25/25
f 25/25/26 52/26/26 26/26/26
f 26/26/27 28/4/27 2/4/27
f 26/26/1 2/4/1 1/5/1
f 1/5/1 3/6/1 4/7/1
f 1/5/1 4/7/1 5/8/1
f 25/25/1 26/26/1 1/5/1
f 23/23/28 24/24/28 25/25/28
f 23/23/1 25/25/1 1/5/1
f 1/5/1 5/8/1 6/9/1
f 6/9/1 7/10/1 8/11/1
f 8/11/1 9/12/1 10/13/1
f 11/14/1 12/15/1 13/1/1
f 6/9/1 8/11/1 10/13/1
f 10/13/1 11/14/1 13/1/1
f 13/1/1 14/16/1 15/17/1
f 16/18/1 17/19/1 18/20/1
f 13/1/1 15/17/1 16/18/1
f 6/9/1 10/13/1 13/1/1
f 23/23/1 1/5/1 6/9/1
f 22/22/1 23/23/1 6/9/1
f 13/1/1 16/18/1 18/20/1
f 13/1/1 18/20/1 19/21/1
f 21/3/1 22/22/1 6/9/1
f 13/1/1 19/21/1 20/2/1
f 21/3/1 6/9/1 13/1/1
f 2/4/2 28/4/2 27/5/2
f 3/6/3 1/5/3 27/5/3
f 3/6/4 29/6/4 30/7/4
f 4/7/5 30/7/5 31/8/5
f 5/8/6 31/8/6 32/9/6
f 6/9/7 32/9/7 33/10/7
f 8/11/8 7/10/8 33/10/8
f 9/12/9 8/11/9 34/11/9
f 9/12/10 35/12/10 36/13/10
f 10/13/11 36/13/11 37/14/11
f 12/15/12 11/14/12 37/14/12
f 12/15/13 38/15/13 39/1/13
f 13/1/14 39/1/14 40/16/14
f 14/16/15 40/16/15 41/17/15
f 15/17/16 41/17/16 42/18/16
f 16/18/17 42/18/17 43/19/17
f 17/19/18 43/19/18 44/20/18
f 18/20/19 44/20/19 45/21/19
f 19/21/20 45/21/20 46/2/20
f 20/2/21 46/2/21 47/3/21
f 21/3/22 47/3/22 48/22/22
f 22/22/23 48/22/23 49/23/23
f 23/23/24 49/23/24 50/24/24
f 24/24/25 50/24/25 51/25/25
f 25/25/26 51/25/26 52/26/26
f 26/26/27 52/26/27 28/4/27
