# Blender 5.0.1
# www.blender.org
mtllib glyphs.mtl
o 039.001
v 0.189994 0.974887 -0.146711
v 0.193082 0.972301 -0.142024
v 0.184409 0.978321 -0.151881
v 0.179981 0.980026 -0.153277
v 0.177807 0.980678 -0.153469
v 0.177823 0.981032 -0.154419
v 0.177737 0.981535 -0.155695
v 0.182344 0.981666 -0.159305
v 0.187111 0.981968 -0.163483
v 0.187201 0.982289 -0.164401
v 0.183779 0.983801 -0.165997
v 0.179696 0.985404 -0.167363
v 0.171623 0.984093 -0.158165
v 0.172392 0.982450 -0.154343
v 0.172644 0.980932 -0.150489
v 0.165245 0.981022 -0.145488
v 0.158401 0.981104 -0.140860
v 0.155831 0.981605 -0.140374
v 0.153099 0.981986 -0.139451
v 0.155809 0.978847 -0.133028
v 0.158710 0.978872 -0.135150
v 0.168370 0.978881 -0.142014
v 0.177151 0.978657 -0.147634
v 0.180567 0.977026 -0.145719
v 0.183668 0.975281 -0.143278
v 0.146600 0.977668 -0.123376
v 0.143370 0.977923 -0.121765
v 0.143982 0.977160 -0.120171
v 0.146447 0.975605 -0.117785
v 0.150680 0.973720 -0.115773
v 0.151473 0.974457 -0.118293
v 0.152114 0.975199 -0.120721
v 0.172488 0.973639 -0.130998
v 0.189062 0.971391 -0.148027
v 0.192150 0.968804 -0.143340
v 0.183478 0.974824 -0.153197
v 0.179049 0.976530 -0.154593
v 0.176875 0.977181 -0.154785
v 0.176891 0.977535 -0.155735
v 0.176805 0.978038 -0.157011
v 0.181412 0.978169 -0.160621
v 0.186179 0.978471 -0.164799
v 0.186269 0.978792 -0.165717
v 0.182848 0.980304 -0.167313
v 0.178764 0.981907 -0.168679
v 0.170691 0.980596 -0.159481
v 0.171460 0.978953 -0.155659
v 0.171712 0.977435 -0.151806
v 0.164313 0.977525 -0.146804
v 0.157469 0.977607 -0.142176
v 0.154899 0.978108 -0.141690
v 0.152167 0.978489 -0.140767
v 0.154878 0.975350 -0.134344
v 0.157778 0.975375 -0.136466
v 0.167439 0.975385 -0.143330
v 0.176220 0.975160 -0.148950
v 0.179635 0.973529 -0.147035
v 0.182737 0.971784 -0.144594
v 0.145668 0.974171 -0.124692
v 0.142438 0.974426 -0.123081
v 0.143050 0.973663 -0.121487
v 0.145516 0.972108 -0.119101
v 0.149749 0.970223 -0.117089
v 0.150541 0.970960 -0.119609
v 0.151183 0.971703 -0.122037
v 0.171556 0.970142 -0.132314
vn 0.2420 0.9081 0.3418
vn 0.8317 -0.0127 -0.5550
vn 0.7029 0.0788 -0.7069
vn 0.3742 0.2376 -0.8964
vn 0.1740 0.3059 -0.9360
vn 0.9702 -0.2321 -0.0702
vn 0.9683 -0.2034 -0.1450
vn 0.5676 -0.4181 0.7092
vn 0.6141 -0.4160 0.6707
vn 0.4835 0.1925 -0.8539
vn 0.3892 0.2318 -0.8915
vn -0.7150 0.4050 -0.5699
vn -0.9531 0.1564 0.2591
vn -0.9684 0.2040 0.1437
vn -0.5051 0.4186 -0.7547
vn -0.5053 0.4186 -0.7546
vn -0.1014 0.3740 -0.9219
vn -0.2432 0.3977 -0.8847
vn -0.9032 0.0821 0.4213
vn 0.5385 -0.4187 0.7313
vn 0.5263 -0.4187 0.7401
vn 0.4821 -0.4182 0.7699
vn -0.5414 -0.1659 0.8242
vn -0.6518 -0.1088 0.7505
vn -0.4095 0.4149 -0.8125
vn -0.3802 0.4128 -0.8277
vn -0.9133 0.0943 0.3961
vn -0.7163 -0.0704 0.6942
vn -0.4892 -0.1900 0.8512
vn 0.9262 -0.3211 0.1975
vn 0.9389 -0.3080 0.1537
vn 0.3847 -0.4131 0.8254
vn 0.4084 -0.4148 0.8131
vn 0.9659 -0.2590 0.0044
vn 0.2420 0.9081 0.3417
vn 0.2419 0.9081 0.3417
vt 0.928726 0.967185
vt 0.930759 0.941379
vt 0.935470 0.958811
vt 0.964725 0.969789
vt 0.954338 0.972362
vt 0.939886 0.972698
vt 0.931967 0.969434
vt 0.927502 0.968445
vt 0.925713 0.970014
vt 0.927317 0.980023
vt 0.928398 0.990957
vt 0.927320 0.992260
vt 0.920523 0.990414
vt 0.913118 0.987505
vt 0.914069 0.966214
vt 0.920134 0.962105
vt 0.925531 0.957361
vt 0.921910 0.942326
vt 0.918563 0.928415
vt 0.915666 0.924827
vt 0.913118 0.920483
vt 0.925261 0.915207
vt 0.926470 0.921312
vt 0.942675 0.960234
vt 0.950138 0.960610
vt 0.925245 0.892017
vt 0.922914 0.886200
vt 0.925844 0.884822
vt 0.932361 0.884538
vt 0.940817 0.886775
vt 0.938606 0.890977
vt 0.936307 0.894885
vt 0.950855 0.931722
s 0
usemtl glyph
f 5/1/1 22/2/1 23/3/1
f 2/4/2 34/5/2 1/5/2
f 1/5/3 36/6/3 3/6/3
f 3/6/4 37/7/4 4/7/4
f 4/7/5 38/1/5 5/1/5
f 5/1/6 39/8/6 6/8/6
f 6/8/7 40/9/7 7/9/7
f 7/9/8 41/10/8 8/10/8
f 8/10/9 42/11/9 9/11/9
f 10/12/10 44/13/10 11/13/10
f 11/13/11 45/14/11 12/14/11
f 12/14/12 46/15/12 13/15/12
f 13/15/13 47/16/13 14/16/13
f 14/16/14 48/17/14 15/17/14
f 16/18/15 48/17/15 49/18/15
f 16/18/16 50/19/16 17/19/16
f 17/19/17 51/20/17 18/20/17
f 18/20/18 52/21/18 19/21/18
f 20/22/19 52/21/19 53/22/19
f 20/22/20 54/23/20 21/23/20
f 21/23/21 55/2/21 22/2/21
f 22/2/22 56/3/22 23/3/22
f 24/24/23 56/3/23 57/24/23
f 24/24/24 58/25/24 25/25/24
f 26/26/25 58/25/25 59/26/25
f 26/26/26 60/27/26 27/27/26
f 27/27/27 61/28/27 28/28/27
f 28/28/28 62/29/28 29/29/28
f 29/29/29 63/30/29 30/30/29
f 30/30/30 64/31/30 31/31/30
f 31/31/31 65/32/31 32/32/31
f 32/32/32 66/33/32 33/33/32
f 33/33/33 35/4/33 2/4/33
f 9/11/34 43/12/34 10/12/34
f 33/33/1 2/4/1 1/5/1
f 1/5/1 3/6/1 4/7/1
f 5/1/35 6/8/35 7/9/35
f 1/5/1 4/7/1 5/1/1
f 32/32/1 33/33/1 1/5/1
f 30/30/1 31/31/1 32/32/1
f 28/28/1 29/29/1 30/30/1
f 26/26/1 27/27/1 28/28/1
f 25/25/1 26/26/1 28/28/1
f 28/28/1 30/30/1 32/32/1
f 7/9/1 8/10/1 9/11/1
f 9/11/1 10/12/1 11/13/1
f 11/13/1 12/14/1 13/15/1
f 11/13/1 13/15/1 14/16/1
f 7/9/1 9/11/1 11/13/1
f 7/9/1 11/13/1 14/16/1
f 15/17/36 16/18/36 17/19/36
f 7/9/1 14/16/1 15/17/1
f 5/1/1 7/9/1 15/17/1
f 17/19/1 18/20/1 19/21/1
f 5/1/1 15/17/1 17/19/1
f 28/28/1 32/32/1 1/5/1
f 25/25/1 28/28/1 1/5/1
f 17/19/1 19/21/1 20/22/1
f 17/19/1 20/22/1 21/23/1
f 25/25/1 1/5/1 5/1/1
f 24/24/1 25/25/1 5/1/1
f 5/1/1 17/19/1 21/23/1
f 5/1/1 21/23/1 22/2/1
f 23/3/1 24/24/1 5/1/1
f 2/4/2 35/4/2 34/5/2
f 1/5/3 34/5/3 36/6/3
f 3/6/4 36/6/4 37/7/4
f 4/7/5 37/7/5 38/1/5
f 5/1/6 38/1/6 39/8/6
f 6/8/7 39/8/7 40/9/7
f 7/9/8 40/9/8 41/10/8
f 8/10/9 41/10/9 42/11/9
f 10/12/10 43/12/10 44/13/10
f 11/13/11 44/13/11 45/14/11
f 12/14/12 45/14/12 46/15/12
f 13/15/13 46/15/13 47/16/13
f 14/16/14 47/16/14 48/17/14
f 16/18/15 15/17/15 48/17/15
f 16/18/16 49/18/16 50/19/16
f 17/19/17 50/19/17 51/20/17
f 18/20/18 51/20/18 52/21/18
f 20/22/19 19/21/19 52/21/19
f 20/22/20 53/22/20 54/23/20
f 21/23/21 54/23/21 55/2/21
f 22/2/22 55/2/22 56/3/22
f 24/24/23 23/3/23 56/3/23
f 24/24/24 57/24/24 58/25/24
f 26/26/25 25/25/25 58/25/25
f 26/26/26 59/26/26 60/27/26
f 27/27/27 60/27/27 61/28/27
f 28/28/28 61/28/28 62/29/28
f 29/29/29 62/29/29 63/30/29
f 30/30/30 63/30/30 64/31/30
f 31/31/31 64/31/31 65/32/31
f 32/32/32 65/32/32 66/33/32
f 33/33/33 66/33/33 35/4/33
f 9/11/34 42/11/34 43/12/34
