# Blender 5.0.1
# www.blender.org
mtllib DHD.mtl
o ButtonFrame2
v 0.000000 0.630542 0.243160
v 0.000000 0.647608 0.253013
v 0.000000 0.757871 0.165257
v 0.000000 0.766909 0.170475
v 0.000000 0.864444 0.078394
v 0.000000 0.898381 0.071814
v 0.000000 0.902880 0.064021
v 0.135357 0.642476 0.222491
v 0.135357 0.659542 0.232344
v 0.090508 0.765850 0.151436
v 0.090508 0.774889 0.156654
v 0.046554 0.868549 0.071285
v 0.038802 0.901802 0.065889
v 0.035724 0.906029 0.058566
v 0.254388 0.676837 0.162975
v 0.254388 0.693903 0.172828
v 0.170099 0.788826 0.111640
v 0.170099 0.797864 0.116859
v 0.087493 0.880367 0.050816
v 0.072923 0.911652 0.048828
v 0.067139 0.915098 0.042859
v 0.342736 0.729482 0.071792
v 0.342736 0.746548 0.081645
v 0.229174 0.824028 0.050670
v 0.229174 0.833066 0.055888
v 0.117879 0.898473 0.019455
v 0.098249 0.926743 0.022689
v 0.090456 0.928992 0.018793
v 0.389745 0.794060 -0.040060
v 0.389745 0.811126 -0.030207
v 0.260607 0.867208 -0.024121
v 0.260607 0.876247 -0.018903
v 0.134047 0.920684 -0.019015
v 0.111724 0.945255 -0.009374
v 0.102863 0.946036 -0.010727
v 0.389745 0.862782 -0.159092
v 0.389745 0.879848 -0.149239
v 0.260607 0.913160 -0.103713
v 0.260607 0.922199 -0.098494
v 0.134047 0.944320 -0.059954
v 0.111724 0.964955 -0.043496
v 0.102863 0.964173 -0.042143
v 0.342736 0.927361 -0.270944
v 0.342736 0.944426 -0.261091
v 0.229174 0.956341 -0.178504
v 0.229174 0.965379 -0.173286
v 0.117879 0.966530 -0.098424
v 0.098249 0.983467 -0.075559
v 0.090456 0.981217 -0.071663
v 0.254388 0.980005 -0.362127
v 0.254388 0.997071 -0.352274
v 0.170099 0.991542 -0.239474
v 0.170099 1.000581 -0.234256
v 0.087493 0.984637 -0.129786
v 0.072923 0.998558 -0.101698
v 0.067139 0.995111 -0.095729
v 0.135357 1.014366 -0.421643
v 0.135357 1.031432 -0.411790
v 0.090508 1.014518 -0.279270
v 0.090508 1.023556 -0.274051
v 0.046554 0.996455 -0.150255
v 0.038801 1.008408 -0.118759
v 0.035724 1.004180 -0.111436
v -0.000000 1.026300 -0.442312
v -0.000000 1.043366 -0.432459
v -0.000000 1.022498 -0.293091
v -0.000000 1.031536 -0.287872
v -0.000000 1.000559 -0.157364
v -0.000000 1.011829 -0.124684
v -0.000000 1.007330 -0.116891
v -0.135357 1.014366 -0.421643
v -0.135357 1.031432 -0.411790
v -0.090508 1.014518 -0.279270
v -0.090508 1.023556 -0.274051
v -0.046554 0.996455 -0.150255
v -0.038802 1.008408 -0.118759
v -0.035724 1.004180 -0.111436
v -0.254388 0.980005 -0.362127
v -0.254388 0.997071 -0.352274
v -0.170099 0.991542 -0.239474
v -0.170099 1.000581 -0.234256
v -0.087493 0.984637 -0.129785
v -0.072923 0.998558 -0.101698
v -0.067139 0.995111 -0.095729
v -0.342736 0.927360 -0.270944
v -0.342736 0.944426 -0.261091
v -0.229174 0.956341 -0.178504
v -0.229174 0.965379 -0.173285
v -0.117879 0.966530 -0.098424
v -0.098249 0.983467 -0.075559
v -0.090456 0.981217 -0.071663
v -0.389745 0.862782 -0.159091
v -0.389745 0.879848 -0.149238
v -0.260607 0.913160 -0.103712
v -0.260607 0.922198 -0.098494
v -0.134047 0.944320 -0.059954
v -0.111724 0.964955 -0.043496
v -0.102863 0.964173 -0.042143
v -0.389745 0.794060 -0.040060
v -0.389745 0.811126 -0.030207
v -0.260607 0.867208 -0.024121
v -0.260607 0.876246 -0.018903
v -0.134047 0.920684 -0.019015
v -0.111724 0.945255 -0.009374
v -0.102863 0.946036 -0.010727
v -0.342736 0.729482 0.071793
v -0.342736 0.746547 0.081646
v -0.229174 0.824027 0.050670
v -0.229174 0.833066 0.055888
v -0.117879 0.898473 0.019455
v -0.098249 0.926743 0.022689
v -0.090456 0.928992 0.018793
v -0.254388 0.676837 0.162976
v -0.254388 0.693903 0.172828
v -0.170099 0.788826 0.111640
v -0.170099 0.797864 0.116859
v -0.087493 0.880367 0.050816
v -0.072923 0.911652 0.048828
v -0.067139 0.915098 0.042859
v -0.135357 0.642476 0.222491
v -0.135357 0.659542 0.232344
v -0.090508 0.765850 0.151436
v -0.090508 0.774889 0.156654
v -0.046554 0.868549 0.071285
v -0.038801 0.901802 0.065889
v -0.035724 0.906029 0.058566
vn 0.1736 -0.4924 0.8529
vn 0.5000 -0.4330 0.7500
vn 0.7660 -0.3214 0.5567
vn 0.9397 -0.1710 0.2962
vn 1.0000 -0.0000 -0.0000
vn 0.9397 0.1710 -0.2962
vn 0.7660 0.3214 -0.5567
vn 0.5000 0.4330 -0.7500
vn 0.1736 0.4924 -0.8529
vn -0.1736 0.4924 -0.8529
vn -0.5000 0.4330 -0.7500
vn -0.7660 0.3214 -0.5567
vn -0.9397 0.1710 -0.2962
vn -1.0000 -0.0000 -0.0000
vn -0.9397 -0.1710 0.2962
vn -0.7660 -0.3214 0.5567
vn -0.5000 -0.4330 0.7500
vn -0.1736 -0.4924 0.8529
vn 0.0644 0.6214 0.7808
vn 0.1856 0.6435 0.7426
vn 0.2843 0.6849 0.6709
vn 0.3487 0.7407 0.5742
vn 0.3711 0.8042 0.4643
vn 0.3487 0.8676 0.3544
vn 0.2843 0.9235 0.2577
vn 0.1856 0.9649 0.1860
vn 0.0644 0.9869 0.1478
vn -0.0644 0.9869 0.1478
vn -0.1856 0.9649 0.1860
vn -0.2843 0.9235 0.2577
vn -0.3487 0.8676 0.3544
vn -0.3711 0.8042 0.4643
vn -0.3487 0.7407 0.5742
vn -0.2843 0.6849 0.6709
vn -0.1856 0.6435 0.7426
vn -0.0644 0.6214 0.7808
vn 0.0505 0.6856 0.7262
vn 0.1453 0.7029 0.6963
vn 0.2226 0.7353 0.6402
vn 0.2730 0.7790 0.5645
vn 0.2905 0.8287 0.4784
vn 0.2730 0.8784 0.3924
vn 0.2226 0.9220 0.3167
vn 0.1453 0.9545 0.2605
vn 0.0505 0.9717 0.2306
vn -0.0505 0.9717 0.2306
vn -0.1453 0.9545 0.2605
vn -0.2226 0.9220 0.3167
vn -0.2730 0.8784 0.3924
vn -0.2905 0.8287 0.4784
vn -0.2730 0.7790 0.5645
vn -0.2226 0.7353 0.6402
vn -0.1453 0.7029 0.6963
vn -0.0505 0.6856 0.7262
vn -0.0000 0.8660 0.5000
vn 0.1320 0.1887 0.9731
vn 0.3800 0.2338 0.8950
vn 0.5822 0.3186 0.7480
vn 0.7141 0.4329 0.5501
vn 0.7600 0.5629 0.3250
vn 0.7141 0.6929 0.0999
vn 0.5822 0.8071 -0.0981
vn 0.3800 0.8920 -0.2450
vn 0.1320 0.9371 -0.3232
vn -0.1320 0.9371 -0.3232
vn -0.3800 0.8920 -0.2450
vn -0.5822 0.8071 -0.0981
vn -0.7141 0.6929 0.0999
vn -0.7600 0.5629 0.3250
vn -0.7141 0.4329 0.5501
vn -0.5822 0.3186 0.7480
vn -0.3800 0.2338 0.8950
vn -0.1320 0.1887 0.9731
vt 0.000000 0.000000
vt 0.055556 0.023901
vt 0.000000 0.023901
vt 0.055556 0.000000
vt 0.111111 0.023901
vt 0.166667 0.000000
vt 0.166667 0.023901
vt 0.222222 0.023901
vt 0.222222 0.000000
vt 0.277778 0.023901
vt 0.277778 0.000000
vt 0.333333 0.023901
vt 0.333333 0.000000
vt 0.388889 0.023901
vt 0.388889 0.000000
vt 0.444444 0.023901
vt 0.444444 0.000000
vt 0.500000 0.023901
vt 0.500000 0.000000
vt 0.555556 0.023901
vt 0.611111 0.000000
vt 0.611111 0.023901
vt 0.666667 0.000000
vt 0.666667 0.023901
vt 0.722222 0.023901
vt 0.722222 0.000000
vt 0.777778 0.023901
vt 0.833333 0.000000
vt 0.833333 0.023901
vt 0.888889 0.023901
vt 0.888889 0.000000
vt 0.944444 0.023901
vt 0.944444 0.000000
vt 1.000000 0.023901
vt 0.055556 0.086499
vt 0.000000 0.086499
vt 0.111111 0.086499
vt 0.166667 0.086499
vt 0.222222 0.086499
vt 0.277778 0.086499
vt 0.333333 0.086499
vt 0.388889 0.086499
vt 0.444444 0.086499
vt 0.500000 0.086499
vt 0.555556 0.086499
vt 0.611111 0.086499
vt 0.666667 0.086499
vt 0.722222 0.086499
vt 0.777778 0.086499
vt 0.833333 0.086499
vt 0.888889 0.086499
vt 0.944444 0.086499
vt 1.000000 0.086499
vt 0.055556 0.099157
vt 0.000000 0.099157
vt 0.111111 0.099157
vt 0.166667 0.099157
vt 0.222222 0.099157
vt 0.277778 0.099157
vt 0.333333 0.099157
vt 0.388889 0.099157
vt 0.444444 0.099157
vt 0.500000 0.099157
vt 0.555556 0.099157
vt 0.611111 0.099157
vt 0.666667 0.099157
vt 0.722222 0.099157
vt 0.777778 0.099157
vt 0.833333 0.099157
vt 0.888889 0.099157
vt 0.944444 0.099157
vt 1.000000 0.099157
vt 0.000000 0.145764
vt 0.055556 0.145764
vt 0.111111 0.145764
vt 0.166667 0.145764
vt 0.222222 0.145764
vt 0.277778 0.145764
vt 0.333333 0.145764
vt 0.388889 0.145764
vt 0.444444 0.145764
vt 0.500000 0.145764
vt 0.555556 0.145764
vt 0.611111 0.145764
vt 0.666667 0.145764
vt 0.722222 0.145764
vt 0.777778 0.145764
vt 0.833333 0.145764
vt 0.888889 0.145764
vt 0.944444 0.145764
vt 1.000000 0.145764
vt 0.000000 0.177420
vt 0.055556 0.177420
vt 0.111111 0.177420
vt 0.166667 0.177420
vt 0.222222 0.177420
vt 0.277778 0.177420
vt 0.333333 0.177420
vt 0.388889 0.177420
vt 0.444444 0.177420
vt 0.500000 0.177420
vt 0.555556 0.177420
vt 0.611111 0.177420
vt 0.666667 0.177420
vt 0.722222 0.177420
vt 0.777778 0.177420
vt 0.833333 0.177420
vt 0.888889 0.177420
vt 0.944444 0.177420
vt 1.000000 0.177420
vt 0.111111 0.000000
vt 0.555556 0.000000
vt 0.777778 0.000000
vt 1.000000 0.000000
s 0
usemtl plate
f 1/1/1 9/2/1 2/3/1
f 8/4/2 16/5/2 9/2/2
f 16/5/3 22/6/3 23/7/3
f 22/6/4 30/8/4 23/7/4
f 29/9/5 37/10/5 30/8/5
f 36/11/6 44/12/6 37/10/6
f 43/13/7 51/14/7 44/12/7
f 50/15/8 58/16/8 51/14/8
f 57/17/9 65/18/9 58/16/9
f 64/19/10 72/20/10 65/18/10
f 72/20/11 78/21/11 79/22/11
f 79/22/12 85/23/12 86/24/12
f 85/23/13 93/25/13 86/24/13
f 92/26/14 100/27/14 93/25/14
f 100/27/15 106/28/15 107/29/15
f 106/28/16 114/30/16 107/29/16
f 113/31/17 121/32/17 114/30/17
f 120/33/18 2/34/18 121/32/18
f 2/3/19 10/35/19 3/36/19
f 9/2/20 17/37/20 10/35/20
f 17/37/21 23/7/21 24/38/21
f 23/7/22 31/39/22 24/38/22
f 31/39/23 37/10/23 38/40/23
f 37/10/24 45/41/24 38/40/24
f 44/12/25 52/42/25 45/41/25
f 52/42/26 58/16/26 59/43/26
f 58/16/27 66/44/27 59/43/27
f 65/18/28 73/45/28 66/44/28
f 72/20/29 80/46/29 73/45/29
f 80/46/30 86/24/30 87/47/30
f 86/24/31 94/48/31 87/47/31
f 93/25/32 101/49/32 94/48/32
f 100/27/33 108/50/33 101/49/33
f 107/29/34 115/51/34 108/50/34
f 114/30/35 122/52/35 115/51/35
f 121/32/36 3/53/36 122/52/36
f 3/36/1 11/54/1 4/55/1
f 10/35/2 18/56/2 11/54/2
f 17/37/3 25/57/3 18/56/3
f 24/38/4 32/58/4 25/57/4
f 31/39/5 39/59/5 32/58/5
f 38/40/6 46/60/6 39/59/6
f 45/41/7 53/61/7 46/60/7
f 52/42/8 60/62/8 53/61/8
f 59/43/9 67/63/9 60/62/9
f 66/44/10 74/64/10 67/63/10
f 73/45/11 81/65/11 74/64/11
f 80/46/12 88/66/12 81/65/12
f 87/47/13 95/67/13 88/66/13
f 94/48/14 102/68/14 95/67/14
f 101/49/15 109/69/15 102/68/15
f 108/50/16 116/70/16 109/69/16
f 115/51/17 123/71/17 116/70/17
f 122/52/18 4/72/18 123/71/18
f 5/73/37 11/54/37 12/74/37
f 11/54/38 19/75/38 12/74/38
f 18/56/39 26/76/39 19/75/39
f 25/57/40 33/77/40 26/76/40
f 32/58/41 40/78/41 33/77/41
f 39/59/42 47/79/42 40/78/42
f 47/79/43 53/61/43 54/80/43
f 53/61/44 61/81/44 54/80/44
f 60/62/45 68/82/45 61/81/45
f 67/63/46 75/83/46 68/82/46
f 75/83/47 81/65/47 82/84/47
f 82/84/48 88/66/48 89/85/48
f 88/66/49 96/86/49 89/85/49
f 95/67/50 103/87/50 96/86/50
f 102/68/51 110/88/51 103/87/51
f 109/69/52 117/89/52 110/88/52
f 116/70/53 124/90/53 117/89/53
f 123/71/54 5/91/54 124/90/54
f 6/92/55 14/93/55 7/92/55
f 14/93/55 20/94/55 21/94/55
f 21/94/55 27/95/55 28/95/55
f 27/95/55 35/96/55 28/95/55
f 35/96/55 41/97/55 42/97/55
f 41/97/55 49/98/55 42/97/55
f 48/98/55 56/99/55 49/98/55
f 55/99/55 63/100/55 56/99/55
f 62/100/55 70/101/55 63/100/55
f 69/101/55 77/102/55 70/101/55
f 76/102/55 84/103/55 77/102/55
f 83/103/55 91/104/55 84/103/55
f 90/104/55 98/105/55 91/104/55
f 98/105/55 104/106/55 105/106/55
f 104/106/55 112/107/55 105/106/55
f 111/107/55 119/108/55 112/107/55
f 118/108/55 126/109/55 119/108/55
f 125/109/55 7/110/55 126/109/55
f 5/73/56 13/93/56 6/92/56
f 12/74/57 20/94/57 13/93/57
f 19/75/58 27/95/58 20/94/58
f 26/76/59 34/96/59 27/95/59
f 33/77/60 41/97/60 34/96/60
f 40/78/61 48/98/61 41/97/61
f 48/98/62 54/80/62 55/99/62
f 54/80/63 62/100/63 55/99/63
f 61/81/64 69/101/64 62/100/64
f 68/82/65 76/102/65 69/101/65
f 76/102/66 82/84/66 83/103/66
f 82/84/67 90/104/67 83/103/67
f 89/85/68 97/105/68 90/104/68
f 97/105/69 103/87/69 104/106/69
f 103/87/70 111/107/70 104/106/70
f 110/88/71 118/108/71 111/107/71
f 117/89/72 125/109/72 118/108/72
f 124/90/73 6/110/73 125/109/73
f 1/1/1 8/4/1 9/2/1
f 8/4/2 15/111/2 16/5/2
f 16/5/3 15/111/3 22/6/3
f 22/6/4 29/9/4 30/8/4
f 29/9/5 36/11/5 37/10/5
f 36/11/6 43/13/6 44/12/6
f 43/13/7 50/15/7 51/14/7
f 50/15/8 57/17/8 58/16/8
f 57/17/9 64/19/9 65/18/9
f 64/19/10 71/112/10 72/20/10
f 72/20/11 71/112/11 78/21/11
f 79/22/12 78/21/12 85/23/12
f 85/23/13 92/26/13 93/25/13
f 92/26/14 99/113/14 100/27/14
f 100/27/15 99/113/15 106/28/15
f 106/28/16 113/31/16 114/30/16
f 113/31/17 120/33/17 121/32/17
f 120/33/18 1/114/18 2/34/18
f 2/3/19 9/2/19 10/35/19
f 9/2/20 16/5/20 17/37/20
f 17/37/21 16/5/21 23/7/21
f 23/7/22 30/8/22 31/39/22
f 31/39/23 30/8/23 37/10/23
f 37/10/24 44/12/24 45/41/24
f 44/12/25 51/14/25 52/42/25
f 52/42/26 51/14/26 58/16/26
f 58/16/27 65/18/27 66/44/27
f 65/18/28 72/20/28 73/45/28
f 72/20/29 79/22/29 80/46/29
f 80/46/30 79/22/30 86/24/30
f 86/24/31 93/25/31 94/48/31
f 93/25/32 100/27/32 101/49/32
f 100/27/33 107/29/33 108/50/33
f 107/29/34 114/30/34 115/51/34
f 114/30/35 121/32/35 122/52/35
f 121/32/36 2/34/36 3/53/36
f 3/36/1 10/35/1 11/54/1
f 10/35/2 17/37/2 18/56/2
f 17/37/3 24/38/3 25/57/3
f 24/38/4 31/39/4 32/58/4
f 31/39/5 38/40/5 39/59/5
f 38/40/6 45/41/6 46/60/6
f 45/41/7 52/42/7 53/61/7
f 52/42/8 59/43/8 60/62/8
f 59/43/9 66/44/9 67/63/9
f 66/44/10 73/45/10 74/64/10
f 73/45/11 80/46/11 81/65/11
f 80/46/12 87/47/12 88/66/12
f 87/47/13 94/48/13 95/67/13
f 94/48/14 101/49/14 102/68/14
f 101/49/15 108/50/15 109/69/15
f 108/50/16 115/51/16 116/70/16
f 115/51/17 122/52/17 123/71/17
f 122/52/18 3/53/18 4/72/18
f 5/73/37 4/55/37 11/54/37
f 11/54/38 18/56/38 19/75/38
f 18/56/39 25/57/39 26/76/39
f 25/57/40 32/58/40 33/77/40
f 32/58/41 39/59/41 40/78/41
f 39/59/42 46/60/42 47/79/42
f 47/79/43 46/60/43 53/61/43
f 53/61/44 60/62/44 61/81/44
f 60/62/45 67/63/45 68/82/45
f 67/63/46 74/64/46 75/83/46
f 75/83/47 74/64/47 81/65/47
f 82/84/48 81/65/48 88/66/48
f 88/66/49 95/67/49 96/86/49
f 95/67/50 102/68/50 103/87/50
f 102/68/51 109/69/51 110/88/51
f 109/69/52 116/70/52 117/89/52
f 116/70/53 123/71/53 124/90/53
f 123/71/54 4/72/54 5/91/54
f 6/92/55 13/93/55 14/93/55
f 14/93/55 13/93/55 20/94/55
f 21/94/55 20/94/55 27/95/55
f 27/95/55 34/96/55 35/96/55
f 35/96/55 34/96/55 41/97/55
f 41/97/55 48/98/55 49/98/55
f 48/98/55 55/99/55 56/99/55
f 55/99/55 62/100/55 63/100/55
f 62/100/55 69/101/55 70/101/55
f 69/101/55 76/102/55 77/102/55
f 76/102/55 83/103/55 84/103/55
f 83/103/55 90/104/55 91/104/55
f 90/104/55 97/105/55 98/105/55
f 98/105/55 97/105/55 104/106/55
f 104/106/55 111/107/55 112/107/55
f 111/107/55 118/108/55 119/108/55
f 118/108/55 125/109/55 126/109/55
f 125/109/55 6/110/55 7/110/55
f 5/73/56 12/74/56 13/93/56
f 12/74/57 19/75/57 20/94/57
f 19/75/58 26/76/58 27/95/58
f 26/76/59 33/77/59 34/96/59
f 33/77/60 40/78/60 41/97/60
f 40/78/61 47/79/61 48/98/61
f 48/98/62 47/79/62 54/80/62
f 54/80/63 61/81/63 62/100/63
f 61/81/64 68/82/64 69/101/64
f 68/82/65 75/83/65 76/102/65
f 76/102/66 75/83/66 82/84/66
f 82/84/67 89/85/67 90/104/67
f 89/85/68 96/86/68 97/105/68
f 97/105/69 96/86/69 103/87/69
f 103/87/70 110/88/70 111/107/70
f 110/88/71 117/89/71 118/108/71
f 117/89/72 124/90/72 125/109/72
f 124/90/73 5/91/73 6/110/73
