# Blender 4.5.4 LTS
# www.blender.org
mtllib MilkywayChevron.mtl
o UpperChevronFront
v 0.000000 3.189947 0.090467
v -0.098539 3.356940 0.123607
v -0.100570 3.354476 0.207665
v -0.050970 3.189947 0.174599
v -0.127812 3.460690 0.112599
v -0.129843 3.461261 0.146142
v -0.048734 3.189947 0.090467
v -0.127812 3.460696 0.025397
v -0.098539 3.356940 0.025398
v 0.000000 3.189947 0.174599
v 0.000000 3.355010 0.207558
v 0.000000 3.461401 0.145891
v 0.000000 3.460690 0.112600
v 0.000000 3.356940 0.025398
v 0.000000 3.460696 0.025397
v 0.098539 3.356940 0.123607
v 0.100570 3.354476 0.207665
v 0.050970 3.189947 0.174599
v 0.127812 3.460690 0.112599
v 0.129843 3.461261 0.146142
v 0.048734 3.189947 0.090467
v 0.127812 3.460696 0.025397
v 0.000000 3.356940 0.025398
v 0.000000 3.460696 0.025397
v 0.098539 3.356940 0.123607
v 0.100570 3.354476 0.207665
v 0.127812 3.460690 0.112599
v 0.129843 3.461261 0.146142
v 0.127812 3.460696 0.025397
v 0.098539 3.356940 0.025398
vn -0.9587 -0.2827 -0.0314
vn -0.9596 -0.2764 -0.0534
vn -0.9624 -0.2715 -0.0000
vn -0.0000 -1.0000 -0.0000
vn 0.0021 -0.1964 0.9805
vn -0.0000 -0.0000 -1.0000
vn 0.0011 0.4994 0.8663
vn -0.0000 0.9998 -0.0214
vn -0.0000 1.0000 0.0001
vn 0.9594 -0.2811 -0.0255
vn -0.0021 -0.1964 0.9805
vn -0.0011 0.4994 0.8663
vn 0.0011 0.9999 -0.0171
vn 0.9592 -0.2810 -0.0314
vn 0.9624 -0.2715 -0.0000
vn -0.9594 -0.2811 -0.0255
vn -0.9592 -0.2810 -0.0314
vn -0.0000 -0.1958 0.9806
vn -0.0017 0.5015 0.8652
vn -0.0011 0.9999 -0.0171
vn 0.9587 -0.2827 -0.0314
vn 0.0017 0.5015 0.8652
vn 0.9596 -0.2764 -0.0534
vt 0.843750 0.796875
vt 0.906250 0.734375
vt 0.906250 0.796875
vt 0.890625 0.625000
vt 0.875000 0.734375
vt 0.890625 0.734375
vt 0.921875 0.734375
vt 0.921875 0.625000
vt 0.781250 0.625000
vt 0.796875 0.687500
vt 0.765625 0.687500
vt 1.000000 0.625000
vt 0.906250 0.625000
vt 0.796875 0.734375
vt 0.750000 0.734375
vt 0.750000 0.750000
vt 0.796875 0.750000
vt 0.796875 0.796875
vt 0.750000 0.796875
vt 0.843750 0.734375
vt 0.812500 0.625000
vt 0.828125 0.687500
vt 0.843750 0.750000
vt 0.875000 0.625000
vt 1.000000 0.734375
vt 0.796875 0.625000
s 0
usemtl MilkywayChevronOn
f 2/1/1 4/2/1 3/3/1
f 2/4/2 6/5/2 5/6/2
f 5/7/3 9/4/3 2/8/3
f 7/1/4 10/2/4 4/3/4
f 4/9/5 11/10/5 3/11/5
f 9/12/6 15/2/6 14/13/6
f 3/11/7 12/14/7 6/15/7
f 5/16/8 12/14/8 13/17/8
f 5/16/9 15/18/9 8/19/9
f 16/20/10 18/3/10 21/1/10
f 10/3/4 21/20/4 18/2/4
f 11/10/11 18/21/11 17/22/11
f 12/14/12 17/22/12 20/20/12
f 19/23/13 12/14/13 20/20/13
f 15/18/9 19/23/9 22/1/9
f 25/4/14 28/5/14 26/24/14
f 30/8/15 27/6/15 25/4/15
f 30/13/6 24/25/6 29/2/6
f 2/1/16 7/20/16 4/2/16
f 2/4/17 3/24/17 6/5/17
f 5/7/3 8/6/3 9/4/3
f 7/1/4 1/20/4 10/2/4
f 4/9/18 10/26/18 11/10/18
f 9/12/6 8/25/6 15/2/6
f 3/11/19 11/10/19 12/14/19
f 5/16/20 6/15/20 12/14/20
f 5/16/9 13/17/9 15/18/9
f 16/20/21 17/2/21 18/3/21
f 10/3/4 1/1/4 21/20/4
f 11/10/18 10/26/18 18/21/18
f 12/14/22 11/10/22 17/22/22
f 19/23/8 13/17/8 12/14/8
f 15/18/9 13/17/9 19/23/9
f 25/4/23 27/6/23 28/5/23
f 30/8/15 29/7/15 27/6/15
f 30/13/6 23/12/6 24/25/6
